<?xml version="1.0" encoding="UTF-8"?>
<!DOCTYPE svg PUBLIC "-//W3C//DTD SVG 1.1//EN" "http://www.w3.org/Graphics/SVG/1.1/DTD/svg11.dtd">
<!-- Creator: CorelDRAW -->
<svg xmlns="http://www.w3.org/2000/svg" xml:space="preserve" width="100px" height="100px" version="1.1" style="shape-rendering:geometricPrecision; text-rendering:geometricPrecision; image-rendering:optimizeQuality; fill-rule:evenodd; clip-rule:evenodd"
viewBox="0 0 100 100"
 xmlns:xlink="http://www.w3.org/1999/xlink"
 xmlns:xodm="http://www.corel.com/coreldraw/odm/2003">
 <defs>
  <style type="text/css">
   <![CDATA[
    .fil0 {fill:#1F1F1F}
    .fil1 {fill:#ED145B}
    .fil2 {fill:#FDFFF9}
    .fil3 {fill:#FDFFF9;fill-rule:nonzero}
   ]]>
  </style>
 </defs>
 <g id="Camada_x0020_1">
  <metadata id="CorelCorpID_0Corel-Layer"/>
  <rect class="fil0" width="100" height="100"/>
  <g id="_2485103790496">
   <polygon class="fil1" points="26.15,43.32 32.83,50 32.82,50.01 26.15,56.68 26.15,73.85 43.32,73.85 50,67.17 50.01,67.18 56.68,73.85 73.85,73.85 73.85,56.68 67.18,50.01 67.17,50 73.85,43.32 73.85,26.15 56.68,26.15 50.01,32.82 50,32.83 43.32,26.15 26.15,26.15 "/>
   <g>
    <polygon class="fil2" points="51.23,37.02 51.23,48.81 63.02,48.81 63.02,37.02 "/>
    <polygon class="fil2" points="36.98,36.95 36.98,48.88 41.76,48.88 41.76,48.87 41.76,46.51 42.94,47.69 44.13,48.88 48.91,48.88 48.91,36.95 44.13,36.95 44.13,36.95 44.13,39.31 42.95,38.13 41.76,36.95 "/>
    <polygon class="fil2" points="36.91,51.12 36.91,63.05 46.46,63.05 46.46,63.05 46.46,60.69 46.46,60.67 48.82,60.67 48.83,60.68 48.84,60.69 48.84,51.12 "/>
    <polygon class="fil2" points="51.16,55.42 52.83,57.09 52.83,57.09 51.16,58.76 51.16,63.05 55.45,63.05 57.12,61.38 57.12,61.38 58.79,63.05 63.09,63.05 63.09,58.76 61.42,57.09 61.42,57.09 63.09,55.42 63.09,51.12 58.79,51.12 57.12,52.79 57.12,52.8 55.45,51.12 51.16,51.12 "/>
   </g>
   <g>
    <polygon class="fil3" points="23.25,73.85 20.65,73.85 20.65,73.25 22.39,71.81 22.39,72.1 20.65,72.1 20.65,71.38 23.25,71.38 23.25,71.99 21.52,73.42 21.52,73.13 23.25,73.13 "/>
    <path id="_1" class="fil3" d="M23.3 69.55c0,0.2 -0.03,0.39 -0.09,0.57 -0.07,0.18 -0.17,0.33 -0.29,0.46 -0.12,0.13 -0.26,0.23 -0.43,0.3 -0.16,0.07 -0.34,0.11 -0.54,0.11 -0.19,0 -0.37,-0.03 -0.53,-0.11 -0.17,-0.07 -0.31,-0.17 -0.43,-0.3 -0.12,-0.13 -0.22,-0.28 -0.29,-0.46 -0.06,-0.18 -0.1,-0.37 -0.1,-0.57 0,-0.21 0.04,-0.41 0.1,-0.58 0.07,-0.17 0.17,-0.32 0.29,-0.45 0.12,-0.13 0.26,-0.24 0.42,-0.31 0.17,-0.07 0.35,-0.1 0.54,-0.1 0.2,0 0.38,0.03 0.54,0.1 0.17,0.07 0.31,0.18 0.43,0.31 0.12,0.13 0.22,0.28 0.29,0.45 0.06,0.17 0.09,0.37 0.09,0.58zm-0.6 0c0,-0.1 -0.02,-0.19 -0.05,-0.28 -0.04,-0.09 -0.09,-0.16 -0.16,-0.22 -0.06,-0.07 -0.14,-0.12 -0.23,-0.15 -0.09,-0.04 -0.19,-0.06 -0.31,-0.06 -0.11,0 -0.21,0.02 -0.3,0.06 -0.1,0.03 -0.17,0.08 -0.24,0.15 -0.06,0.06 -0.11,0.13 -0.15,0.22 -0.04,0.08 -0.05,0.18 -0.06,0.28 0.01,0.1 0.03,0.19 0.06,0.28 0.04,0.08 0.09,0.16 0.15,0.22 0.07,0.06 0.14,0.11 0.24,0.15 0.09,0.03 0.19,0.05 0.3,0.05 0.12,0 0.22,-0.02 0.31,-0.05 0.09,-0.04 0.17,-0.09 0.24,-0.15 0.06,-0.07 0.11,-0.14 0.15,-0.22 0.03,-0.09 0.05,-0.18 0.05,-0.28z"/>
    <path id="_2" class="fil3" d="M23.25 67.72l-2.6 0 0 -1.19c0,-0.24 0.04,-0.45 0.12,-0.62 0.08,-0.17 0.19,-0.31 0.33,-0.4 0.15,-0.09 0.32,-0.14 0.52,-0.14 0.19,0 0.36,0.05 0.5,0.14 0.15,0.09 0.26,0.23 0.34,0.4 0.08,0.17 0.11,0.38 0.11,0.62l0 0.78 -0.32 -0.33 1 0 0 0.74zm-0.92 -0.74l-0.34 0.33 0 -0.74c0,-0.15 -0.03,-0.27 -0.1,-0.34 -0.06,-0.08 -0.16,-0.12 -0.27,-0.12 -0.13,0 -0.22,0.04 -0.29,0.12 -0.06,0.07 -0.1,0.19 -0.1,0.34l0 0.74 -0.33 -0.33 1.43 0z"/>
    <polygon id="_3" class="fil3" points="23.25,65.35 21.68,64.21 22.2,64.21 20.65,65.31 20.65,64.48 21.66,63.78 21.66,64.13 20.65,63.44 20.65,62.65 22.17,63.74 21.65,63.74 23.25,62.59 23.25,63.44 22.2,64.15 22.2,63.81 23.25,64.51 "/>
    <polygon id="_4" class="fil3" points="23.98,61.12 20.5,61.12 20.5,60.94 23.98,60.94 "/>
    <polygon id="_5" class="fil3" points="23.25,58.5 20.65,59.38 20.65,59.18 23.14,58.34 23.14,58.44 20.65,57.58 20.65,57.39 23.14,56.54 23.14,56.63 20.65,55.79 20.65,55.6 23.25,56.48 23.25,56.68 20.85,57.51 20.85,57.46 23.25,58.3 "/>
    <path id="_6" class="fil3" d="M23.27 54.47c0,0.2 -0.04,0.37 -0.13,0.52 -0.08,0.15 -0.2,0.27 -0.35,0.35 -0.14,0.09 -0.31,0.13 -0.5,0.13 -0.2,0 -0.37,-0.04 -0.52,-0.12 -0.14,-0.08 -0.26,-0.19 -0.34,-0.33 -0.09,-0.14 -0.13,-0.3 -0.13,-0.48 0,-0.17 0.04,-0.33 0.12,-0.47 0.08,-0.14 0.2,-0.25 0.35,-0.33 0.14,-0.08 0.31,-0.12 0.51,-0.12 0.01,0 0.01,0 0.02,0 0.01,0 0.02,0 0.03,0l0 1.72 -0.15 0 0 -1.62 0.07 0.08c-0.15,-0.01 -0.28,0.03 -0.4,0.09 -0.12,0.07 -0.22,0.16 -0.28,0.27 -0.07,0.11 -0.11,0.24 -0.11,0.38 0,0.15 0.04,0.28 0.11,0.39 0.06,0.11 0.16,0.2 0.28,0.26 0.12,0.07 0.26,0.1 0.41,0.1l0.03 0c0.16,0 0.3,-0.03 0.42,-0.1 0.13,-0.08 0.22,-0.17 0.29,-0.3 0.07,-0.12 0.1,-0.26 0.1,-0.42 0,-0.12 -0.02,-0.24 -0.06,-0.35 -0.05,-0.11 -0.12,-0.2 -0.21,-0.27l0.12 -0.11c0.11,0.09 0.19,0.19 0.24,0.32 0.05,0.13 0.08,0.26 0.08,0.41z"/>
    <path id="_7" class="fil3" d="M23.27 52.07c0,0.17 -0.04,0.32 -0.12,0.46 -0.08,0.14 -0.19,0.25 -0.34,0.33 -0.15,0.08 -0.32,0.12 -0.52,0.12 -0.21,0 -0.39,-0.04 -0.53,-0.12 -0.15,-0.08 -0.26,-0.19 -0.34,-0.33 -0.08,-0.14 -0.12,-0.29 -0.12,-0.46 0,-0.18 0.04,-0.35 0.12,-0.49 0.09,-0.15 0.2,-0.26 0.35,-0.35 0.15,-0.08 0.32,-0.12 0.52,-0.12 0.19,0 0.36,0.04 0.51,0.12 0.15,0.09 0.26,0.2 0.35,0.35 0.08,0.14 0.12,0.31 0.12,0.49zm-0.02 0.97l-2.75 0 0 -0.18 1.44 0 0.34 0.03 0.34 -0.03 0.63 0 0 0.18zm-0.15 -0.96c0,-0.15 -0.03,-0.28 -0.1,-0.4 -0.07,-0.12 -0.16,-0.21 -0.29,-0.28 -0.12,-0.07 -0.26,-0.11 -0.42,-0.11 -0.17,0 -0.31,0.04 -0.43,0.11 -0.13,0.07 -0.22,0.16 -0.29,0.28 -0.07,0.12 -0.1,0.25 -0.1,0.4 0,0.15 0.03,0.28 0.1,0.4 0.07,0.12 0.16,0.21 0.29,0.28 0.12,0.07 0.26,0.1 0.43,0.1 0.16,0 0.3,-0.03 0.42,-0.1 0.13,-0.07 0.22,-0.16 0.29,-0.28 0.07,-0.12 0.1,-0.25 0.1,-0.4z"/>
    <path id="_8" class="fil3" d="M23.29 47.69l-1.49 1.42c-0.09,0.09 -0.17,0.15 -0.24,0.2 -0.07,0.05 -0.14,0.09 -0.2,0.11 -0.06,0.01 -0.12,0.02 -0.19,0.02 -0.11,0 -0.2,-0.02 -0.28,-0.07 -0.08,-0.05 -0.14,-0.12 -0.19,-0.22 -0.04,-0.09 -0.06,-0.2 -0.06,-0.32 0,-0.12 0.02,-0.22 0.06,-0.31 0.04,-0.08 0.09,-0.15 0.17,-0.19 0.07,-0.05 0.16,-0.08 0.26,-0.08 0.09,0 0.18,0.03 0.26,0.07 0.08,0.04 0.15,0.12 0.23,0.22 0.08,0.1 0.17,0.24 0.27,0.41 0.09,0.17 0.18,0.3 0.25,0.39 0.08,0.09 0.16,0.16 0.23,0.2 0.07,0.04 0.15,0.06 0.24,0.06 0.1,0 0.19,-0.03 0.27,-0.09 0.07,-0.06 0.13,-0.13 0.17,-0.24 0.05,-0.1 0.07,-0.21 0.07,-0.35 0,-0.18 -0.04,-0.33 -0.11,-0.47 -0.08,-0.14 -0.19,-0.26 -0.34,-0.35 -0.14,-0.1 -0.33,-0.16 -0.56,-0.21l0.05 -0.15c0.25,0.05 0.45,0.13 0.62,0.24 0.16,0.1 0.29,0.24 0.37,0.4 0.08,0.16 0.12,0.35 0.12,0.55 0,0.16 -0.02,0.31 -0.08,0.44 -0.05,0.13 -0.13,0.23 -0.23,0.3 -0.09,0.07 -0.21,0.11 -0.34,0.11 -0.1,0 -0.2,-0.03 -0.29,-0.07 -0.09,-0.05 -0.18,-0.13 -0.27,-0.23 -0.09,-0.11 -0.19,-0.26 -0.29,-0.44 -0.09,-0.16 -0.17,-0.28 -0.24,-0.37 -0.07,-0.09 -0.13,-0.16 -0.19,-0.2 -0.06,-0.03 -0.13,-0.05 -0.2,-0.05 -0.11,0 -0.2,0.03 -0.26,0.1 -0.06,0.07 -0.1,0.18 -0.1,0.31 0,0.14 0.04,0.24 0.11,0.32 0.07,0.08 0.16,0.12 0.28,0.12 0.05,0 0.11,-0.01 0.16,-0.03 0.05,-0.01 0.1,-0.05 0.16,-0.09 0.06,-0.05 0.14,-0.11 0.23,-0.19l1.45 -1.38 0.12 0.11z"/>
    <path id="_9" class="fil3" d="M23.25 46.56l-2.6 -1.19 0 -0.19 2.6 -1.2 0 0.2 -2.48 1.13 0 -0.08 2.48 1.13 0 0.2zm-0.73 -0.44l-0.16 -0.06 0 -1.56 0.16 -0.06 0 1.68z"/>
    <path id="_10" class="fil3" d="M23.27 42.59c0,0.17 -0.04,0.33 -0.12,0.47 -0.08,0.13 -0.19,0.24 -0.34,0.32 -0.15,0.08 -0.32,0.12 -0.52,0.12 -0.21,0 -0.38,-0.04 -0.53,-0.12 -0.15,-0.08 -0.26,-0.19 -0.34,-0.32 -0.08,-0.14 -0.12,-0.3 -0.12,-0.47 0,-0.18 0.04,-0.34 0.12,-0.49 0.09,-0.14 0.2,-0.26 0.35,-0.34 0.15,-0.08 0.32,-0.13 0.52,-0.13 0.19,0 0.36,0.05 0.51,0.13 0.15,0.08 0.26,0.2 0.35,0.34 0.08,0.15 0.12,0.31 0.12,0.49zm0.71 0.98l-2.67 0 0 -0.18 0.64 0 0.34 0.03 0.34 -0.04 1.35 0 0 0.19zm-0.88 -0.97c0,-0.14 -0.03,-0.28 -0.1,-0.4 -0.07,-0.12 -0.16,-0.21 -0.29,-0.28 -0.12,-0.07 -0.26,-0.1 -0.42,-0.1 -0.17,0 -0.31,0.03 -0.43,0.1 -0.13,0.07 -0.22,0.16 -0.29,0.28 -0.07,0.12 -0.1,0.26 -0.1,0.4 0,0.15 0.03,0.29 0.1,0.4 0.07,0.12 0.16,0.21 0.29,0.28 0.12,0.07 0.26,0.1 0.43,0.1 0.16,0 0.3,-0.03 0.42,-0.1 0.13,-0.07 0.22,-0.16 0.29,-0.28 0.07,-0.11 0.1,-0.25 0.1,-0.4z"/>
    <path id="_11" class="fil3" d="M23.27 40.08c0,0.18 -0.04,0.33 -0.12,0.47 -0.08,0.13 -0.19,0.24 -0.34,0.32 -0.15,0.09 -0.32,0.13 -0.52,0.13 -0.21,0 -0.38,-0.04 -0.53,-0.13 -0.15,-0.08 -0.26,-0.19 -0.34,-0.32 -0.08,-0.14 -0.12,-0.29 -0.12,-0.47 0,-0.18 0.04,-0.34 0.12,-0.49 0.09,-0.14 0.2,-0.26 0.35,-0.34 0.15,-0.08 0.32,-0.12 0.52,-0.12 0.19,0 0.36,0.04 0.51,0.12 0.15,0.08 0.26,0.2 0.35,0.34 0.08,0.15 0.12,0.31 0.12,0.49zm0.71 0.98l-2.67 0 0 -0.18 0.64 0 0.34 0.03 0.34 -0.04 1.35 0 0 0.19zm-0.88 -0.96c0,-0.15 -0.03,-0.29 -0.1,-0.41 -0.07,-0.11 -0.16,-0.21 -0.29,-0.28 -0.12,-0.06 -0.26,-0.1 -0.42,-0.1 -0.17,0 -0.31,0.04 -0.43,0.1 -0.13,0.07 -0.22,0.17 -0.29,0.28 -0.07,0.12 -0.1,0.26 -0.1,0.41 0,0.14 0.03,0.28 0.1,0.4 0.07,0.11 0.16,0.21 0.29,0.27 0.12,0.07 0.26,0.11 0.43,0.11 0.16,0 0.3,-0.04 0.42,-0.11 0.13,-0.06 0.22,-0.16 0.29,-0.27 0.07,-0.12 0.1,-0.26 0.1,-0.4z"/>
    <path id="_12" class="fil3" d="M23.27 36.85c0,0.19 -0.03,0.38 -0.1,0.55 -0.06,0.17 -0.15,0.3 -0.25,0.4l-0.14 -0.09c0.09,-0.09 0.17,-0.21 0.23,-0.36 0.06,-0.16 0.1,-0.32 0.1,-0.5 0,-0.17 -0.03,-0.31 -0.07,-0.42 -0.05,-0.11 -0.11,-0.19 -0.19,-0.25 -0.07,-0.05 -0.16,-0.08 -0.25,-0.08 -0.11,0 -0.2,0.03 -0.27,0.09 -0.07,0.06 -0.12,0.14 -0.16,0.24 -0.04,0.09 -0.07,0.2 -0.1,0.31 -0.03,0.12 -0.06,0.23 -0.09,0.35 -0.03,0.12 -0.07,0.22 -0.12,0.32 -0.05,0.1 -0.12,0.17 -0.2,0.23 -0.09,0.06 -0.2,0.09 -0.33,0.09 -0.13,0 -0.24,-0.03 -0.35,-0.1 -0.1,-0.06 -0.18,-0.16 -0.25,-0.3 -0.06,-0.14 -0.1,-0.31 -0.1,-0.52 0,-0.15 0.03,-0.29 0.07,-0.43 0.04,-0.14 0.1,-0.26 0.17,-0.36l0.15 0.07c-0.07,0.11 -0.13,0.23 -0.16,0.35 -0.04,0.13 -0.06,0.25 -0.06,0.37 0,0.16 0.03,0.3 0.07,0.41 0.05,0.11 0.11,0.19 0.19,0.24 0.08,0.05 0.17,0.08 0.26,0.08 0.11,0 0.2,-0.03 0.27,-0.09 0.07,-0.06 0.12,-0.14 0.16,-0.23 0.04,-0.1 0.07,-0.2 0.1,-0.32 0.03,-0.12 0.06,-0.23 0.09,-0.35 0.03,-0.11 0.07,-0.22 0.12,-0.31 0.05,-0.1 0.11,-0.18 0.2,-0.24 0.08,-0.06 0.19,-0.09 0.33,-0.09 0.12,0 0.23,0.04 0.34,0.1 0.1,0.07 0.19,0.17 0.25,0.31 0.06,0.14 0.09,0.31 0.09,0.53z"/>
    <path id="_13" class="fil3" d="M23.27 34.76c0,0.18 -0.05,0.31 -0.14,0.4 -0.1,0.09 -0.22,0.13 -0.39,0.13l-1.85 0 0 -0.18 1.83 0c0.13,0 0.22,-0.03 0.29,-0.1 0.07,-0.06 0.1,-0.15 0.1,-0.26 0,-0.12 -0.04,-0.22 -0.11,-0.31l0.13 -0.07c0.05,0.05 0.08,0.11 0.11,0.18 0.02,0.07 0.03,0.14 0.03,0.21zm-1.8 0.89l-0.16 0 0 -1.16 0.16 0 0 1.16z"/>
    <path id="_14" class="fil3" d="M23.27 33.06c0,0.17 -0.03,0.31 -0.09,0.43 -0.06,0.12 -0.15,0.22 -0.28,0.28 -0.12,0.07 -0.27,0.1 -0.45,0.1l-1.14 0 0 -0.18 1.12 0c0.22,0 0.39,-0.06 0.5,-0.17 0.12,-0.11 0.17,-0.27 0.17,-0.47 0,-0.15 -0.03,-0.28 -0.09,-0.38 -0.06,-0.11 -0.15,-0.19 -0.26,-0.25 -0.12,-0.05 -0.25,-0.08 -0.4,-0.08l-1.04 0 0 -0.19 1.94 0 0 0.18 -0.53 0 0.06 -0.03c0.15,0.06 0.27,0.16 0.36,0.29 0.09,0.13 0.13,0.29 0.13,0.47z"/>
    <path id="_15" class="fil3" d="M23.27 30.62c0,0.18 -0.04,0.34 -0.12,0.49 -0.09,0.14 -0.2,0.25 -0.35,0.34 -0.15,0.08 -0.32,0.13 -0.51,0.13 -0.2,0 -0.37,-0.05 -0.52,-0.13 -0.15,-0.09 -0.26,-0.2 -0.35,-0.34 -0.08,-0.15 -0.12,-0.31 -0.12,-0.49 0,-0.17 0.04,-0.33 0.12,-0.47 0.08,-0.13 0.19,-0.24 0.34,-0.32 0.14,-0.08 0.32,-0.12 0.53,-0.12 0.2,0 0.37,0.04 0.52,0.12 0.15,0.07 0.26,0.18 0.34,0.32 0.08,0.14 0.12,0.29 0.12,0.47zm-0.17 -0.02c0,-0.14 -0.03,-0.28 -0.1,-0.39 -0.07,-0.12 -0.16,-0.21 -0.29,-0.28 -0.12,-0.07 -0.26,-0.1 -0.42,-0.1 -0.17,0 -0.31,0.03 -0.43,0.1 -0.13,0.07 -0.22,0.16 -0.29,0.28 -0.07,0.11 -0.1,0.25 -0.1,0.39 0,0.15 0.03,0.29 0.1,0.41 0.07,0.11 0.16,0.21 0.29,0.27 0.12,0.07 0.26,0.11 0.43,0.11 0.16,0 0.3,-0.04 0.42,-0.11 0.13,-0.06 0.22,-0.16 0.29,-0.27 0.07,-0.12 0.1,-0.26 0.1,-0.41zm0.15 -0.78l-0.63 0 -0.34 -0.03 -0.34 0.04 -1.44 0 0 -0.19 2.75 0 0 0.18z"/>
    <path id="_16" class="fil3" d="M23.25 28.85l-1.94 0 0 -0.18 1.94 0 0 0.18zm-2.41 -0.09c0,0.04 -0.01,0.08 -0.04,0.11 -0.03,0.03 -0.07,0.04 -0.11,0.04 -0.04,0 -0.07,-0.01 -0.1,-0.04 -0.03,-0.03 -0.05,-0.07 -0.05,-0.11 0,-0.04 0.02,-0.08 0.04,-0.11 0.03,-0.03 0.07,-0.04 0.11,-0.04 0.04,0 0.08,0.01 0.11,0.04 0.03,0.03 0.04,0.07 0.04,0.11z"/>
    <path id="_17" class="fil3" d="M23.27 27.13c0,0.18 -0.04,0.35 -0.13,0.49 -0.08,0.15 -0.2,0.26 -0.35,0.35 -0.14,0.08 -0.31,0.12 -0.5,0.12 -0.2,0.01 -0.37,-0.04 -0.52,-0.12 -0.14,-0.09 -0.26,-0.2 -0.34,-0.35 -0.09,-0.14 -0.13,-0.31 -0.13,-0.49 0,-0.19 0.04,-0.35 0.13,-0.5 0.08,-0.15 0.2,-0.26 0.34,-0.34 0.15,-0.09 0.32,-0.13 0.52,-0.13 0.19,0 0.36,0.04 0.5,0.12 0.15,0.09 0.27,0.2 0.35,0.35 0.09,0.15 0.13,0.31 0.13,0.5zm-0.17 0c0,-0.15 -0.03,-0.29 -0.1,-0.4 -0.07,-0.12 -0.16,-0.22 -0.29,-0.28 -0.12,-0.07 -0.26,-0.1 -0.42,-0.11 -0.17,0.01 -0.31,0.04 -0.43,0.11 -0.13,0.06 -0.22,0.16 -0.29,0.28 -0.07,0.11 -0.1,0.25 -0.11,0.4 0.01,0.15 0.04,0.28 0.11,0.4 0.07,0.11 0.16,0.21 0.29,0.28 0.12,0.06 0.26,0.1 0.43,0.1 0.16,0 0.3,-0.04 0.42,-0.1 0.13,-0.07 0.22,-0.16 0.29,-0.28 0.07,-0.12 0.1,-0.25 0.1,-0.4z"/>
    <polygon class="fil3" points="76.75,26.15 79.35,26.15 79.35,26.75 77.61,28.19 77.61,27.9 79.35,27.9 79.35,28.62 76.75,28.62 76.75,28.01 78.48,26.58 78.48,26.87 76.75,26.87 "/>
    <path id="_1_0" class="fil3" d="M76.7 30.45c0,-0.2 0.03,-0.39 0.09,-0.57 0.07,-0.18 0.17,-0.33 0.29,-0.46 0.12,-0.13 0.26,-0.23 0.43,-0.3 0.16,-0.07 0.34,-0.11 0.54,-0.11 0.19,0 0.37,0.03 0.53,0.11 0.17,0.07 0.31,0.17 0.43,0.3 0.12,0.13 0.22,0.28 0.29,0.46 0.06,0.18 0.1,0.37 0.1,0.57 0,0.21 -0.04,0.41 -0.1,0.58 -0.07,0.17 -0.17,0.32 -0.29,0.45 -0.12,0.13 -0.26,0.24 -0.42,0.31 -0.17,0.07 -0.35,0.1 -0.54,0.1 -0.2,0 -0.38,-0.03 -0.54,-0.1 -0.17,-0.07 -0.31,-0.18 -0.43,-0.31 -0.12,-0.13 -0.22,-0.28 -0.29,-0.45 -0.06,-0.17 -0.09,-0.37 -0.09,-0.58zm0.6 0c0,0.1 0.02,0.19 0.05,0.28 0.04,0.09 0.09,0.16 0.16,0.22 0.06,0.07 0.14,0.12 0.23,0.15 0.09,0.04 0.19,0.06 0.31,0.06 0.11,0 0.21,-0.02 0.3,-0.06 0.1,-0.03 0.17,-0.08 0.24,-0.15 0.06,-0.06 0.11,-0.13 0.15,-0.22 0.04,-0.08 0.05,-0.18 0.06,-0.28 -0.01,-0.1 -0.03,-0.19 -0.06,-0.28 -0.04,-0.08 -0.09,-0.16 -0.15,-0.22 -0.07,-0.06 -0.14,-0.11 -0.24,-0.15 -0.09,-0.03 -0.19,-0.05 -0.3,-0.05 -0.12,0 -0.22,0.02 -0.31,0.05 -0.09,0.04 -0.17,0.09 -0.24,0.15 -0.06,0.07 -0.11,0.14 -0.15,0.22 -0.03,0.09 -0.05,0.18 -0.05,0.28z"/>
    <path id="_2_1" class="fil3" d="M76.75 32.28l2.6 0 0 1.19c0,0.24 -0.04,0.45 -0.12,0.62 -0.08,0.17 -0.19,0.31 -0.33,0.4 -0.15,0.09 -0.32,0.14 -0.52,0.14 -0.19,0 -0.36,-0.05 -0.5,-0.14 -0.15,-0.09 -0.26,-0.23 -0.34,-0.4 -0.08,-0.17 -0.11,-0.38 -0.11,-0.62l0 -0.78 0.32 0.33 -1 0 0 -0.74zm0.92 0.74l0.34 -0.33 0 0.74c0,0.15 0.03,0.27 0.1,0.34 0.06,0.08 0.16,0.12 0.27,0.12 0.13,0 0.22,-0.04 0.29,-0.12 0.06,-0.07 0.1,-0.19 0.1,-0.34l0 -0.74 0.33 0.33 -1.43 0z"/>
    <polygon id="_3_2" class="fil3" points="76.75,34.65 78.32,35.79 77.8,35.79 79.35,34.69 79.35,35.52 78.34,36.22 78.34,35.87 79.35,36.56 79.35,37.35 77.83,36.26 78.35,36.26 76.75,37.41 76.75,36.56 77.8,35.85 77.8,36.19 76.75,35.49 "/>
    <polygon id="_4_3" class="fil3" points="76.02,38.88 79.5,38.88 79.5,39.06 76.02,39.06 "/>
    <polygon id="_5_4" class="fil3" points="76.75,41.5 79.35,40.62 79.35,40.82 76.86,41.66 76.86,41.56 79.35,42.42 79.35,42.61 76.86,43.46 76.86,43.37 79.35,44.21 79.35,44.4 76.75,43.52 76.75,43.32 79.15,42.49 79.15,42.54 76.75,41.7 "/>
    <path id="_6_5" class="fil3" d="M76.73 45.53c0,-0.2 0.04,-0.37 0.13,-0.52 0.08,-0.15 0.2,-0.27 0.35,-0.35 0.14,-0.09 0.31,-0.13 0.5,-0.13 0.2,0 0.37,0.04 0.52,0.12 0.14,0.08 0.26,0.19 0.34,0.33 0.09,0.14 0.13,0.3 0.13,0.48 0,0.17 -0.04,0.33 -0.12,0.47 -0.08,0.14 -0.2,0.25 -0.35,0.33 -0.14,0.08 -0.31,0.12 -0.51,0.12 -0.01,0 -0.01,0 -0.02,0 -0.01,0 -0.02,0 -0.03,0l0 -1.72 0.15 0 0 1.62 -0.07 -0.08c0.15,0.01 0.28,-0.03 0.4,-0.09 0.12,-0.07 0.22,-0.16 0.28,-0.27 0.07,-0.11 0.11,-0.24 0.11,-0.38 0,-0.15 -0.04,-0.28 -0.11,-0.39 -0.06,-0.11 -0.16,-0.2 -0.28,-0.26 -0.12,-0.07 -0.26,-0.1 -0.41,-0.1l-0.03 0c-0.16,0 -0.3,0.03 -0.42,0.1 -0.13,0.08 -0.22,0.17 -0.29,0.3 -0.07,0.12 -0.1,0.26 -0.1,0.42 0,0.12 0.02,0.24 0.06,0.35 0.05,0.11 0.12,0.2 0.21,0.27l-0.12 0.11c-0.11,-0.09 -0.19,-0.19 -0.24,-0.32 -0.05,-0.13 -0.08,-0.26 -0.08,-0.41z"/>
    <path id="_7_6" class="fil3" d="M76.73 47.93c0,-0.17 0.04,-0.32 0.12,-0.46 0.08,-0.14 0.19,-0.25 0.34,-0.33 0.15,-0.08 0.32,-0.12 0.52,-0.12 0.21,0 0.39,0.04 0.53,0.12 0.15,0.08 0.26,0.19 0.34,0.33 0.08,0.14 0.12,0.29 0.12,0.46 0,0.18 -0.04,0.35 -0.12,0.49 -0.09,0.15 -0.2,0.26 -0.35,0.35 -0.15,0.08 -0.32,0.12 -0.52,0.12 -0.19,0 -0.36,-0.04 -0.51,-0.12 -0.15,-0.09 -0.26,-0.2 -0.35,-0.35 -0.08,-0.14 -0.12,-0.31 -0.12,-0.49zm0.02 -0.97l2.75 0 0 0.18 -1.44 0 -0.34 -0.03 -0.34 0.03 -0.63 0 0 -0.18zm0.15 0.96c0,0.15 0.03,0.28 0.1,0.4 0.07,0.12 0.16,0.21 0.29,0.28 0.12,0.07 0.26,0.11 0.42,0.11 0.17,0 0.31,-0.04 0.43,-0.11 0.13,-0.07 0.22,-0.16 0.29,-0.28 0.07,-0.12 0.1,-0.25 0.1,-0.4 0,-0.15 -0.03,-0.28 -0.1,-0.4 -0.07,-0.12 -0.16,-0.21 -0.29,-0.28 -0.12,-0.07 -0.26,-0.1 -0.43,-0.1 -0.16,0 -0.3,0.03 -0.42,0.1 -0.13,0.07 -0.22,0.16 -0.29,0.28 -0.07,0.12 -0.1,0.25 -0.1,0.4z"/>
    <path id="_8_7" class="fil3" d="M76.71 52.31l1.49 -1.42c0.09,-0.09 0.17,-0.15 0.24,-0.2 0.07,-0.05 0.14,-0.09 0.2,-0.11 0.06,-0.01 0.12,-0.02 0.19,-0.02 0.11,0 0.2,0.02 0.28,0.07 0.08,0.05 0.14,0.12 0.19,0.22 0.04,0.09 0.06,0.2 0.06,0.32 0,0.12 -0.02,0.22 -0.06,0.31 -0.04,0.08 -0.09,0.15 -0.17,0.19 -0.07,0.05 -0.16,0.08 -0.26,0.08 -0.09,0 -0.18,-0.03 -0.26,-0.07 -0.08,-0.04 -0.15,-0.12 -0.23,-0.22 -0.08,-0.1 -0.17,-0.24 -0.27,-0.41 -0.09,-0.17 -0.18,-0.3 -0.25,-0.39 -0.08,-0.09 -0.16,-0.16 -0.23,-0.2 -0.07,-0.04 -0.15,-0.06 -0.24,-0.06 -0.1,0 -0.19,0.03 -0.27,0.09 -0.07,0.06 -0.13,0.13 -0.17,0.24 -0.05,0.1 -0.07,0.21 -0.07,0.35 0,0.18 0.04,0.33 0.11,0.47 0.08,0.14 0.19,0.26 0.34,0.35 0.14,0.1 0.33,0.16 0.56,0.21l-0.05 0.15c-0.25,-0.05 -0.45,-0.13 -0.62,-0.24 -0.16,-0.1 -0.29,-0.24 -0.37,-0.4 -0.08,-0.16 -0.12,-0.35 -0.12,-0.55 0,-0.16 0.02,-0.31 0.08,-0.44 0.05,-0.13 0.13,-0.23 0.23,-0.3 0.09,-0.07 0.21,-0.11 0.34,-0.11 0.1,0 0.2,0.03 0.29,0.07 0.09,0.05 0.18,0.13 0.27,0.23 0.09,0.11 0.19,0.26 0.29,0.44 0.09,0.16 0.17,0.28 0.24,0.37 0.07,0.09 0.13,0.16 0.19,0.2 0.06,0.03 0.13,0.05 0.2,0.05 0.11,0 0.2,-0.03 0.26,-0.1 0.06,-0.07 0.1,-0.18 0.1,-0.31 0,-0.14 -0.04,-0.24 -0.11,-0.32 -0.07,-0.08 -0.16,-0.12 -0.28,-0.12 -0.05,0 -0.11,0.01 -0.16,0.03 -0.05,0.01 -0.1,0.05 -0.16,0.09 -0.06,0.05 -0.14,0.11 -0.23,0.19l-1.45 1.38 -0.12 -0.11z"/>
    <path id="_9_8" class="fil3" d="M76.75 53.44l2.6 1.19 0 0.19 -2.6 1.2 0 -0.2 2.48 -1.13 0 0.08 -2.48 -1.13 0 -0.2zm0.73 0.44l0.16 0.06 0 1.56 -0.16 0.06 0 -1.68z"/>
    <path id="_10_9" class="fil3" d="M76.73 57.41c0,-0.17 0.04,-0.33 0.12,-0.47 0.08,-0.13 0.19,-0.24 0.34,-0.32 0.15,-0.08 0.32,-0.12 0.52,-0.12 0.21,0 0.38,0.04 0.53,0.12 0.15,0.08 0.26,0.19 0.34,0.32 0.08,0.14 0.12,0.3 0.12,0.47 0,0.18 -0.04,0.34 -0.12,0.49 -0.09,0.14 -0.2,0.26 -0.35,0.34 -0.15,0.08 -0.32,0.13 -0.52,0.13 -0.19,0 -0.36,-0.05 -0.51,-0.13 -0.15,-0.08 -0.26,-0.2 -0.35,-0.34 -0.08,-0.15 -0.12,-0.31 -0.12,-0.49zm-0.71 -0.98l2.67 0 0 0.18 -0.64 0 -0.34 -0.03 -0.34 0.04 -1.35 0 0 -0.19zm0.88 0.97c0,0.14 0.03,0.28 0.1,0.4 0.07,0.12 0.16,0.21 0.29,0.28 0.12,0.07 0.26,0.1 0.42,0.1 0.17,0 0.31,-0.03 0.43,-0.1 0.13,-0.07 0.22,-0.16 0.29,-0.28 0.07,-0.12 0.1,-0.26 0.1,-0.4 0,-0.15 -0.03,-0.29 -0.1,-0.4 -0.07,-0.12 -0.16,-0.21 -0.29,-0.28 -0.12,-0.07 -0.26,-0.1 -0.43,-0.1 -0.16,0 -0.3,0.03 -0.42,0.1 -0.13,0.07 -0.22,0.16 -0.29,0.28 -0.07,0.11 -0.1,0.25 -0.1,0.4z"/>
    <path id="_11_10" class="fil3" d="M76.73 59.92c0,-0.18 0.04,-0.33 0.12,-0.47 0.08,-0.13 0.19,-0.24 0.34,-0.32 0.15,-0.09 0.32,-0.13 0.52,-0.13 0.21,0 0.38,0.04 0.53,0.13 0.15,0.08 0.26,0.19 0.34,0.32 0.08,0.14 0.12,0.29 0.12,0.47 0,0.18 -0.04,0.34 -0.12,0.49 -0.09,0.14 -0.2,0.26 -0.35,0.34 -0.15,0.08 -0.32,0.12 -0.52,0.12 -0.19,0 -0.36,-0.04 -0.51,-0.12 -0.15,-0.08 -0.26,-0.2 -0.35,-0.34 -0.08,-0.15 -0.12,-0.31 -0.12,-0.49zm-0.71 -0.98l2.67 0 0 0.18 -0.64 0 -0.34 -0.03 -0.34 0.04 -1.35 0 0 -0.19zm0.88 0.96c0,0.15 0.03,0.29 0.1,0.41 0.07,0.11 0.16,0.21 0.29,0.28 0.12,0.06 0.26,0.1 0.42,0.1 0.17,0 0.31,-0.04 0.43,-0.1 0.13,-0.07 0.22,-0.17 0.29,-0.28 0.07,-0.12 0.1,-0.26 0.1,-0.41 0,-0.14 -0.03,-0.28 -0.1,-0.4 -0.07,-0.11 -0.16,-0.21 -0.29,-0.27 -0.12,-0.07 -0.26,-0.11 -0.43,-0.11 -0.16,0 -0.3,0.04 -0.42,0.11 -0.13,0.06 -0.22,0.16 -0.29,0.27 -0.07,0.12 -0.1,0.26 -0.1,0.4z"/>
    <path id="_12_11" class="fil3" d="M76.73 63.15c0,-0.19 0.03,-0.38 0.1,-0.55 0.06,-0.17 0.15,-0.3 0.25,-0.4l0.14 0.09c-0.09,0.09 -0.17,0.21 -0.23,0.36 -0.06,0.16 -0.1,0.32 -0.1,0.5 0,0.17 0.03,0.31 0.07,0.42 0.05,0.11 0.11,0.19 0.19,0.25 0.07,0.05 0.16,0.08 0.25,0.08 0.11,0 0.2,-0.03 0.27,-0.09 0.07,-0.06 0.12,-0.14 0.16,-0.24 0.04,-0.09 0.07,-0.2 0.1,-0.31 0.03,-0.12 0.06,-0.23 0.09,-0.35 0.03,-0.12 0.07,-0.22 0.12,-0.32 0.05,-0.1 0.12,-0.17 0.2,-0.23 0.09,-0.06 0.2,-0.09 0.33,-0.09 0.13,0 0.24,0.03 0.35,0.1 0.1,0.06 0.18,0.16 0.25,0.3 0.06,0.14 0.1,0.31 0.1,0.52 0,0.15 -0.03,0.29 -0.07,0.43 -0.04,0.14 -0.1,0.26 -0.17,0.36l-0.15 -0.07c0.07,-0.11 0.13,-0.23 0.16,-0.35 0.04,-0.13 0.06,-0.25 0.06,-0.37 0,-0.16 -0.03,-0.3 -0.07,-0.41 -0.05,-0.11 -0.11,-0.19 -0.19,-0.24 -0.08,-0.05 -0.17,-0.08 -0.26,-0.08 -0.11,0 -0.2,0.03 -0.27,0.09 -0.07,0.06 -0.12,0.14 -0.16,0.23 -0.04,0.1 -0.07,0.2 -0.1,0.32 -0.03,0.12 -0.06,0.23 -0.09,0.35 -0.03,0.11 -0.07,0.22 -0.12,0.31 -0.05,0.1 -0.11,0.18 -0.2,0.24 -0.08,0.06 -0.19,0.09 -0.33,0.09 -0.12,0 -0.23,-0.04 -0.34,-0.1 -0.1,-0.07 -0.19,-0.17 -0.25,-0.31 -0.06,-0.14 -0.09,-0.31 -0.09,-0.53z"/>
    <path id="_13_12" class="fil3" d="M76.73 65.24c0,-0.18 0.05,-0.31 0.14,-0.4 0.1,-0.09 0.22,-0.13 0.39,-0.13l1.85 0 0 0.18 -1.83 0c-0.13,0 -0.22,0.03 -0.29,0.1 -0.07,0.06 -0.1,0.15 -0.1,0.26 0,0.12 0.04,0.22 0.11,0.31l-0.13 0.07c-0.05,-0.05 -0.08,-0.11 -0.11,-0.18 -0.02,-0.07 -0.03,-0.14 -0.03,-0.21zm1.8 -0.89l0.16 0 0 1.16 -0.16 0 0 -1.16z"/>
    <path id="_14_13" class="fil3" d="M76.73 66.94c0,-0.17 0.03,-0.31 0.09,-0.43 0.06,-0.12 0.15,-0.22 0.28,-0.28 0.12,-0.07 0.27,-0.1 0.45,-0.1l1.14 0 0 0.18 -1.12 0c-0.22,0 -0.39,0.06 -0.5,0.17 -0.12,0.11 -0.17,0.27 -0.17,0.47 0,0.15 0.03,0.28 0.09,0.38 0.06,0.11 0.15,0.19 0.26,0.25 0.12,0.05 0.25,0.08 0.4,0.08l1.04 0 0 0.19 -1.94 0 0 -0.18 0.53 0 -0.06 0.03c-0.15,-0.06 -0.27,-0.16 -0.36,-0.29 -0.09,-0.13 -0.13,-0.29 -0.13,-0.47z"/>
    <path id="_15_14" class="fil3" d="M76.73 69.38c0,-0.18 0.04,-0.34 0.12,-0.49 0.09,-0.14 0.2,-0.25 0.35,-0.34 0.15,-0.08 0.32,-0.13 0.51,-0.13 0.2,0 0.37,0.05 0.52,0.13 0.15,0.09 0.26,0.2 0.35,0.34 0.08,0.15 0.12,0.31 0.12,0.49 0,0.17 -0.04,0.33 -0.12,0.47 -0.08,0.13 -0.19,0.24 -0.34,0.32 -0.14,0.08 -0.32,0.12 -0.53,0.12 -0.2,0 -0.37,-0.04 -0.52,-0.12 -0.15,-0.07 -0.26,-0.18 -0.34,-0.32 -0.08,-0.14 -0.12,-0.29 -0.12,-0.47zm0.17 0.02c0,0.14 0.03,0.28 0.1,0.39 0.07,0.12 0.16,0.21 0.29,0.28 0.12,0.07 0.26,0.1 0.42,0.1 0.17,0 0.31,-0.03 0.43,-0.1 0.13,-0.07 0.22,-0.16 0.29,-0.28 0.07,-0.11 0.1,-0.25 0.1,-0.39 0,-0.15 -0.03,-0.29 -0.1,-0.41 -0.07,-0.11 -0.16,-0.21 -0.29,-0.27 -0.12,-0.07 -0.26,-0.11 -0.43,-0.11 -0.16,0 -0.3,0.04 -0.42,0.11 -0.13,0.06 -0.22,0.16 -0.29,0.27 -0.07,0.12 -0.1,0.26 -0.1,0.41zm-0.15 0.78l0.63 0 0.34 0.03 0.34 -0.04 1.44 0 0 0.19 -2.75 0 0 -0.18z"/>
    <path id="_16_15" class="fil3" d="M76.75 71.15l1.94 0 0 0.18 -1.94 0 0 -0.18zm2.41 0.09c0,-0.04 0.01,-0.08 0.04,-0.11 0.03,-0.03 0.07,-0.04 0.11,-0.04 0.04,0 0.07,0.01 0.1,0.04 0.03,0.03 0.05,0.07 0.05,0.11 0,0.04 -0.02,0.08 -0.04,0.11 -0.03,0.03 -0.07,0.04 -0.11,0.04 -0.04,0 -0.08,-0.01 -0.11,-0.04 -0.03,-0.03 -0.04,-0.07 -0.04,-0.11z"/>
    <path id="_17_16" class="fil3" d="M76.73 72.87c0,-0.18 0.04,-0.35 0.13,-0.49 0.08,-0.15 0.2,-0.26 0.35,-0.35 0.14,-0.08 0.31,-0.12 0.5,-0.12 0.2,-0.01 0.37,0.04 0.52,0.12 0.14,0.09 0.26,0.2 0.34,0.35 0.09,0.14 0.13,0.31 0.13,0.49 0,0.19 -0.04,0.35 -0.13,0.5 -0.08,0.15 -0.2,0.26 -0.34,0.34 -0.15,0.09 -0.32,0.13 -0.52,0.13 -0.19,0 -0.36,-0.04 -0.5,-0.12 -0.15,-0.09 -0.27,-0.2 -0.35,-0.35 -0.09,-0.15 -0.13,-0.31 -0.13,-0.5zm0.17 0c0,0.15 0.03,0.29 0.1,0.4 0.07,0.12 0.16,0.22 0.29,0.28 0.12,0.07 0.26,0.1 0.42,0.11 0.17,-0.01 0.31,-0.04 0.43,-0.11 0.13,-0.06 0.22,-0.16 0.29,-0.28 0.07,-0.11 0.1,-0.25 0.11,-0.4 -0.01,-0.15 -0.04,-0.28 -0.11,-0.4 -0.07,-0.11 -0.16,-0.21 -0.29,-0.28 -0.12,-0.06 -0.26,-0.1 -0.43,-0.1 -0.16,0 -0.3,0.04 -0.42,0.1 -0.13,0.07 -0.22,0.16 -0.29,0.28 -0.07,0.12 -0.1,0.25 -0.1,0.4z"/>
    <polygon class="fil3" points="26.1,23.25 26.1,20.65 26.71,20.65 28.14,22.39 27.86,22.39 27.86,20.65 28.58,20.65 28.58,23.25 27.97,23.25 26.54,21.52 26.82,21.52 26.82,23.25 "/>
    <path id="_1_17" class="fil3" d="M30.41 23.3c-0.21,0 -0.4,-0.03 -0.58,-0.09 -0.17,-0.07 -0.33,-0.17 -0.46,-0.29 -0.13,-0.12 -0.23,-0.26 -0.3,-0.43 -0.07,-0.16 -0.1,-0.34 -0.1,-0.54 -0.01,-0.19 0.03,-0.37 0.1,-0.53 0.08,-0.17 0.18,-0.31 0.31,-0.43 0.12,-0.12 0.28,-0.22 0.45,-0.29 0.18,-0.06 0.37,-0.1 0.58,-0.1 0.21,0 0.4,0.04 0.58,0.1 0.17,0.07 0.32,0.17 0.45,0.29 0.13,0.12 0.23,0.26 0.3,0.42 0.08,0.17 0.11,0.35 0.11,0.54 0,0.2 -0.03,0.38 -0.11,0.54 -0.07,0.17 -0.17,0.31 -0.3,0.43 -0.13,0.12 -0.28,0.22 -0.45,0.29 -0.18,0.06 -0.37,0.09 -0.58,0.09zm0 -0.6c0.1,0 0.19,-0.02 0.28,-0.05 0.08,-0.04 0.16,-0.09 0.22,-0.16 0.06,-0.06 0.11,-0.14 0.15,-0.23 0.04,-0.09 0.06,-0.19 0.06,-0.31 -0.01,-0.11 -0.03,-0.21 -0.06,-0.3 -0.04,-0.1 -0.09,-0.17 -0.15,-0.24 -0.06,-0.06 -0.14,-0.11 -0.22,-0.15 -0.09,-0.04 -0.18,-0.05 -0.28,-0.06 -0.1,0.01 -0.19,0.03 -0.28,0.06 -0.09,0.04 -0.16,0.09 -0.22,0.15 -0.07,0.07 -0.12,0.14 -0.15,0.24 -0.04,0.09 -0.06,0.19 -0.06,0.3 0,0.12 0.02,0.22 0.06,0.31 0.03,0.09 0.08,0.17 0.15,0.24 0.06,0.06 0.14,0.11 0.22,0.15 0.08,0.03 0.18,0.05 0.28,0.05z"/>
    <path id="_2_18" class="fil3" d="M32.24 23.25l0 -2.6 1.19 0c0.24,0 0.44,0.04 0.62,0.12 0.17,0.08 0.3,0.19 0.39,0.33 0.1,0.15 0.15,0.32 0.15,0.52 0,0.19 -0.05,0.36 -0.15,0.5 -0.09,0.15 -0.22,0.26 -0.39,0.34 -0.18,0.08 -0.38,0.11 -0.62,0.11l-0.78 0 0.33 -0.32 0 1 -0.74 0zm0.74 -0.92l-0.33 -0.34 0.74 0c0.15,0 0.26,-0.03 0.34,-0.1 0.08,-0.06 0.11,-0.16 0.11,-0.27 0,-0.13 -0.03,-0.22 -0.11,-0.29 -0.08,-0.06 -0.19,-0.1 -0.34,-0.1l-0.74 0 0.33 -0.33 0 1.43z"/>
    <polygon id="_3_19" class="fil3" points="34.61,23.25 35.75,21.68 35.74,22.2 34.65,20.65 35.48,20.65 36.18,21.66 35.82,21.66 36.51,20.65 37.31,20.65 36.21,22.17 36.21,21.65 37.37,23.25 36.52,23.25 35.81,22.2 36.15,22.2 35.45,23.25 "/>
    <polygon id="_4_20" class="fil3" points="38.84,23.98 38.84,20.5 39.02,20.5 39.02,23.98 "/>
    <polygon id="_5_21" class="fil3" points="41.46,23.25 40.57,20.65 40.77,20.65 41.61,23.14 41.51,23.14 42.38,20.65 42.56,20.65 43.42,23.14 43.32,23.14 44.17,20.65 44.36,20.65 43.48,23.25 43.28,23.25 42.44,20.85 42.49,20.85 41.66,23.25 "/>
    <path id="_6_22" class="fil3" d="M45.48 23.27c-0.19,0 -0.37,-0.04 -0.52,-0.13 -0.15,-0.08 -0.26,-0.2 -0.35,-0.35 -0.08,-0.14 -0.13,-0.31 -0.13,-0.5 0,-0.2 0.04,-0.37 0.12,-0.52 0.08,-0.14 0.2,-0.26 0.34,-0.34 0.14,-0.09 0.3,-0.13 0.47,-0.13 0.18,0 0.34,0.04 0.48,0.12 0.14,0.08 0.25,0.2 0.33,0.35 0.08,0.14 0.12,0.31 0.12,0.51 0,0.01 0,0.01 0,0.02 0,0.01 -0.01,0.02 -0.01,0.03l-1.71 0 0 -0.15 1.61 0 -0.07 0.07c0,-0.15 -0.03,-0.28 -0.1,-0.4 -0.06,-0.12 -0.15,-0.22 -0.26,-0.28 -0.11,-0.07 -0.24,-0.11 -0.39,-0.11 -0.14,0 -0.27,0.04 -0.38,0.11 -0.11,0.06 -0.2,0.16 -0.27,0.28 -0.06,0.12 -0.1,0.26 -0.1,0.41l0 0.03c0,0.16 0.04,0.3 0.11,0.42 0.07,0.13 0.17,0.22 0.29,0.29 0.13,0.07 0.27,0.1 0.43,0.1 0.12,0 0.24,-0.02 0.34,-0.06 0.11,-0.05 0.2,-0.12 0.28,-0.21l0.11 0.12c-0.09,0.11 -0.19,0.19 -0.32,0.24 -0.13,0.05 -0.27,0.08 -0.42,0.08z"/>
    <path id="_7_23" class="fil3" d="M47.89 23.27c-0.17,0 -0.33,-0.04 -0.46,-0.12 -0.14,-0.08 -0.25,-0.19 -0.33,-0.34 -0.08,-0.15 -0.12,-0.32 -0.12,-0.52 0,-0.21 0.04,-0.39 0.12,-0.53 0.08,-0.15 0.19,-0.26 0.33,-0.34 0.13,-0.08 0.29,-0.12 0.46,-0.12 0.18,0 0.35,0.04 0.49,0.12 0.15,0.09 0.26,0.2 0.34,0.35 0.09,0.15 0.13,0.32 0.13,0.52 0,0.19 -0.04,0.36 -0.13,0.51 -0.08,0.15 -0.19,0.26 -0.34,0.35 -0.14,0.08 -0.31,0.12 -0.49,0.12zm-0.98 -0.02l0 -2.75 0.19 0 0 1.44 -0.04 0.34 0.03 0.34 0 0.63 -0.18 0zm0.97 -0.15c0.15,0 0.28,-0.03 0.4,-0.1 0.12,-0.07 0.21,-0.16 0.28,-0.29 0.07,-0.12 0.1,-0.26 0.1,-0.42 0,-0.17 -0.03,-0.31 -0.1,-0.43 -0.07,-0.13 -0.16,-0.22 -0.28,-0.29 -0.12,-0.07 -0.25,-0.1 -0.4,-0.1 -0.15,0 -0.28,0.03 -0.4,0.1 -0.12,0.07 -0.21,0.16 -0.28,0.29 -0.07,0.12 -0.1,0.26 -0.1,0.43 0,0.16 0.03,0.3 0.1,0.42 0.07,0.13 0.16,0.22 0.28,0.29 0.12,0.07 0.25,0.1 0.4,0.1z"/>
    <path id="_8_24" class="fil3" d="M52.27 23.29l-1.42 -1.49c-0.09,-0.09 -0.16,-0.17 -0.21,-0.24 -0.05,-0.07 -0.08,-0.14 -0.1,-0.2 -0.02,-0.06 -0.03,-0.12 -0.03,-0.19 0,-0.11 0.03,-0.2 0.08,-0.28 0.05,-0.08 0.12,-0.14 0.21,-0.19 0.1,-0.04 0.21,-0.06 0.33,-0.06 0.12,0 0.22,0.02 0.3,0.06 0.09,0.04 0.15,0.09 0.2,0.17 0.05,0.07 0.07,0.16 0.07,0.26 0,0.09 -0.02,0.18 -0.06,0.26 -0.05,0.08 -0.12,0.15 -0.22,0.23 -0.1,0.08 -0.24,0.17 -0.42,0.27 -0.16,0.09 -0.29,0.18 -0.38,0.25 -0.1,0.08 -0.16,0.16 -0.2,0.23 -0.04,0.07 -0.06,0.15 -0.06,0.24 0,0.1 0.03,0.19 0.09,0.27 0.05,0.07 0.13,0.13 0.23,0.17 0.1,0.05 0.22,0.07 0.35,0.07 0.18,0 0.34,-0.04 0.48,-0.11 0.14,-0.08 0.25,-0.19 0.35,-0.34 0.09,-0.14 0.16,-0.33 0.2,-0.56l0.15 0.05c-0.04,0.25 -0.12,0.45 -0.23,0.62 -0.11,0.16 -0.24,0.29 -0.4,0.37 -0.17,0.08 -0.35,0.12 -0.55,0.12 -0.17,0 -0.31,-0.02 -0.44,-0.08 -0.13,-0.05 -0.23,-0.13 -0.3,-0.23 -0.08,-0.09 -0.11,-0.21 -0.11,-0.34 0,-0.1 0.02,-0.2 0.07,-0.29 0.05,-0.09 0.12,-0.18 0.23,-0.27 0.11,-0.09 0.25,-0.19 0.43,-0.29 0.16,-0.09 0.29,-0.17 0.38,-0.24 0.09,-0.07 0.16,-0.13 0.19,-0.19 0.04,-0.06 0.06,-0.13 0.06,-0.2 0,-0.11 -0.04,-0.2 -0.11,-0.26 -0.07,-0.06 -0.17,-0.1 -0.3,-0.1 -0.14,0 -0.25,0.04 -0.33,0.11 -0.07,0.07 -0.11,0.16 -0.11,0.28 0,0.05 0.01,0.11 0.02,0.16 0.02,0.05 0.05,0.1 0.1,0.16 0.04,0.06 0.11,0.14 0.19,0.23l1.38 1.45 -0.11 0.12z"/>
    <path id="_9_25" class="fil3" d="M53.39 23.25l1.2 -2.6 0.19 0 1.2 2.6 -0.21 0 -1.13 -2.48 0.08 0 -1.12 2.48 -0.21 0zm0.44 -0.73l0.07 -0.16 1.55 0 0.07 0.16 -1.69 0z"/>
    <path id="_10_26" class="fil3" d="M57.36 23.27c-0.17,0 -0.32,-0.04 -0.46,-0.12 -0.14,-0.08 -0.25,-0.19 -0.33,-0.34 -0.08,-0.15 -0.12,-0.32 -0.12,-0.52 0,-0.21 0.04,-0.38 0.12,-0.53 0.08,-0.15 0.19,-0.26 0.33,-0.34 0.14,-0.08 0.29,-0.12 0.46,-0.12 0.19,0 0.35,0.04 0.5,0.12 0.14,0.09 0.25,0.2 0.34,0.35 0.08,0.15 0.12,0.32 0.12,0.52 0,0.19 -0.04,0.36 -0.12,0.51 -0.09,0.15 -0.2,0.26 -0.34,0.35 -0.15,0.08 -0.31,0.12 -0.5,0.12zm-0.97 0.71l0 -2.67 0.18 0 0 0.64 -0.03 0.34 0.04 0.34 0 1.35 -0.19 0zm0.96 -0.88c0.15,0 0.28,-0.03 0.4,-0.1 0.12,-0.07 0.22,-0.16 0.28,-0.29 0.07,-0.12 0.11,-0.26 0.11,-0.42 0,-0.17 -0.04,-0.31 -0.11,-0.43 -0.06,-0.13 -0.16,-0.22 -0.28,-0.29 -0.12,-0.07 -0.25,-0.1 -0.4,-0.1 -0.15,0 -0.28,0.03 -0.4,0.1 -0.11,0.07 -0.21,0.16 -0.28,0.29 -0.06,0.12 -0.1,0.26 -0.1,0.43 0,0.16 0.04,0.3 0.1,0.42 0.07,0.13 0.17,0.22 0.28,0.29 0.12,0.07 0.25,0.1 0.4,0.1z"/>
    <path id="_11_27" class="fil3" d="M59.87 23.27c-0.17,0 -0.32,-0.04 -0.46,-0.12 -0.14,-0.08 -0.25,-0.19 -0.33,-0.34 -0.08,-0.15 -0.12,-0.32 -0.12,-0.52 0,-0.21 0.04,-0.38 0.12,-0.53 0.08,-0.15 0.19,-0.26 0.33,-0.34 0.14,-0.08 0.29,-0.12 0.46,-0.12 0.18,0 0.35,0.04 0.49,0.12 0.15,0.09 0.26,0.2 0.35,0.35 0.08,0.15 0.12,0.32 0.12,0.52 0,0.19 -0.04,0.36 -0.12,0.51 -0.09,0.15 -0.2,0.26 -0.35,0.35 -0.14,0.08 -0.31,0.12 -0.49,0.12zm-0.97 0.71l0 -2.67 0.18 0 0 0.64 -0.03 0.34 0.03 0.34 0 1.35 -0.18 0zm0.96 -0.88c0.15,0 0.28,-0.03 0.4,-0.1 0.12,-0.07 0.21,-0.16 0.28,-0.29 0.07,-0.12 0.11,-0.26 0.11,-0.42 0,-0.17 -0.04,-0.31 -0.11,-0.43 -0.07,-0.13 -0.16,-0.22 -0.28,-0.29 -0.12,-0.07 -0.25,-0.1 -0.4,-0.1 -0.15,0 -0.28,0.03 -0.4,0.1 -0.12,0.07 -0.21,0.16 -0.28,0.29 -0.07,0.12 -0.1,0.26 -0.1,0.43 0,0.16 0.03,0.3 0.1,0.42 0.07,0.13 0.16,0.22 0.28,0.29 0.12,0.07 0.25,0.1 0.4,0.1z"/>
    <path id="_12_28" class="fil3" d="M63.11 23.27c-0.2,0 -0.38,-0.03 -0.55,-0.1 -0.17,-0.06 -0.31,-0.15 -0.4,-0.25l0.08 -0.14c0.09,0.09 0.21,0.17 0.37,0.23 0.15,0.06 0.32,0.1 0.49,0.1 0.18,0 0.32,-0.03 0.43,-0.07 0.11,-0.05 0.19,-0.11 0.24,-0.19 0.06,-0.07 0.08,-0.16 0.08,-0.25 0,-0.11 -0.03,-0.2 -0.09,-0.27 -0.06,-0.07 -0.13,-0.12 -0.23,-0.16 -0.1,-0.04 -0.2,-0.07 -0.32,-0.1 -0.11,-0.03 -0.23,-0.06 -0.34,-0.09 -0.12,-0.03 -0.23,-0.07 -0.32,-0.12 -0.1,-0.05 -0.18,-0.12 -0.23,-0.2 -0.06,-0.09 -0.09,-0.2 -0.09,-0.33 0,-0.13 0.03,-0.24 0.09,-0.35 0.07,-0.1 0.17,-0.18 0.31,-0.25 0.13,-0.06 0.31,-0.1 0.52,-0.1 0.14,0 0.29,0.03 0.43,0.07 0.14,0.04 0.26,0.1 0.35,0.17l-0.07 0.15c-0.1,-0.07 -0.22,-0.13 -0.35,-0.16 -0.12,-0.04 -0.24,-0.06 -0.36,-0.06 -0.17,0 -0.3,0.03 -0.41,0.07 -0.11,0.05 -0.19,0.11 -0.24,0.19 -0.06,0.08 -0.08,0.17 -0.08,0.26 0,0.11 0.03,0.2 0.09,0.27 0.05,0.07 0.13,0.12 0.23,0.16 0.09,0.04 0.2,0.07 0.32,0.1 0.11,0.03 0.23,0.06 0.34,0.09 0.12,0.03 0.22,0.07 0.32,0.12 0.1,0.05 0.17,0.11 0.23,0.2 0.06,0.08 0.09,0.19 0.09,0.33 0,0.12 -0.03,0.23 -0.1,0.34 -0.07,0.1 -0.17,0.19 -0.31,0.25 -0.13,0.06 -0.31,0.09 -0.52,0.09z"/>
    <path id="_13_29" class="fil3" d="M65.19 23.27c-0.17,0 -0.3,-0.05 -0.39,-0.14 -0.09,-0.1 -0.14,-0.22 -0.14,-0.39l0 -1.85 0.19 0 0 1.83c0,0.13 0.03,0.22 0.09,0.29 0.06,0.07 0.15,0.1 0.27,0.1 0.12,0 0.22,-0.04 0.3,-0.11l0.08 0.13c-0.05,0.05 -0.11,0.08 -0.18,0.11 -0.07,0.02 -0.14,0.03 -0.22,0.03zm-0.88 -1.8l0 -0.16 1.16 0 0 0.16 -1.16 0z"/>
    <path id="_14_30" class="fil3" d="M66.89 23.27c-0.16,0 -0.31,-0.03 -0.43,-0.09 -0.12,-0.06 -0.21,-0.15 -0.28,-0.28 -0.06,-0.12 -0.1,-0.27 -0.1,-0.45l0 -1.14 0.19 0 0 1.12c0,0.22 0.06,0.39 0.17,0.5 0.11,0.12 0.27,0.17 0.47,0.17 0.15,0 0.27,-0.03 0.38,-0.09 0.11,-0.06 0.19,-0.15 0.24,-0.26 0.06,-0.12 0.09,-0.25 0.09,-0.4l0 -1.04 0.19 0 0 1.94 -0.18 0 0 -0.53 0.02 0.06c-0.05,0.15 -0.15,0.27 -0.28,0.36 -0.13,0.09 -0.29,0.13 -0.48,0.13z"/>
    <path id="_15_31" class="fil3" d="M69.34 23.27c-0.18,0 -0.34,-0.04 -0.49,-0.12 -0.14,-0.09 -0.26,-0.2 -0.34,-0.35 -0.09,-0.15 -0.13,-0.32 -0.13,-0.51 0,-0.2 0.04,-0.37 0.13,-0.52 0.08,-0.15 0.2,-0.26 0.34,-0.35 0.15,-0.08 0.31,-0.12 0.49,-0.12 0.17,0 0.32,0.04 0.46,0.12 0.14,0.08 0.25,0.19 0.33,0.34 0.08,0.14 0.12,0.32 0.12,0.53 0,0.2 -0.04,0.37 -0.12,0.52 -0.08,0.15 -0.19,0.26 -0.32,0.34 -0.14,0.08 -0.3,0.12 -0.47,0.12zm0.01 -0.17c0.15,0 0.28,-0.03 0.4,-0.1 0.12,-0.07 0.21,-0.16 0.28,-0.29 0.07,-0.12 0.1,-0.26 0.1,-0.42 0,-0.17 -0.03,-0.31 -0.1,-0.43 -0.07,-0.13 -0.16,-0.22 -0.28,-0.29 -0.12,-0.07 -0.25,-0.1 -0.4,-0.1 -0.15,0 -0.28,0.03 -0.4,0.1 -0.12,0.07 -0.21,0.16 -0.28,0.29 -0.07,0.12 -0.1,0.26 -0.1,0.43 0,0.16 0.03,0.3 0.1,0.42 0.07,0.13 0.16,0.22 0.28,0.29 0.12,0.07 0.25,0.1 0.4,0.1zm0.79 0.15l0 -0.63 0.03 -0.34 -0.04 -0.34 0 -1.44 0.19 0 0 2.75 -0.18 0z"/>
    <path id="_16_32" class="fil3" d="M71.1 23.25l0 -1.94 0.18 0 0.01 1.94 -0.19 0zm0.09 -2.41c-0.04,0 -0.07,-0.01 -0.1,-0.04 -0.03,-0.03 -0.05,-0.07 -0.05,-0.11 0,-0.04 0.02,-0.07 0.05,-0.1 0.03,-0.03 0.06,-0.05 0.1,-0.05 0.05,0 0.09,0.02 0.11,0.04 0.03,0.03 0.05,0.07 0.05,0.11 0,0.04 -0.02,0.08 -0.05,0.11 -0.02,0.03 -0.06,0.04 -0.11,0.04z"/>
    <path id="_17_33" class="fil3" d="M72.83 23.27c-0.19,0 -0.35,-0.04 -0.5,-0.13 -0.14,-0.08 -0.26,-0.2 -0.34,-0.35 -0.09,-0.14 -0.13,-0.31 -0.13,-0.5 0,-0.2 0.04,-0.37 0.13,-0.52 0.08,-0.14 0.2,-0.26 0.34,-0.34 0.15,-0.09 0.31,-0.13 0.5,-0.13 0.19,0 0.35,0.04 0.5,0.13 0.14,0.08 0.26,0.2 0.34,0.34 0.08,0.15 0.13,0.32 0.13,0.52 0,0.19 -0.04,0.36 -0.13,0.5 -0.08,0.15 -0.2,0.27 -0.34,0.35 -0.15,0.09 -0.32,0.13 -0.5,0.13zm0 -0.17c0.15,0 0.28,-0.03 0.4,-0.1 0.12,-0.07 0.21,-0.16 0.28,-0.29 0.07,-0.12 0.1,-0.26 0.1,-0.42 0,-0.17 -0.03,-0.31 -0.1,-0.43 -0.07,-0.13 -0.16,-0.22 -0.28,-0.29 -0.12,-0.07 -0.25,-0.1 -0.4,-0.11 -0.15,0.01 -0.28,0.04 -0.4,0.11 -0.12,0.07 -0.21,0.16 -0.28,0.29 -0.07,0.12 -0.1,0.26 -0.1,0.43 0,0.16 0.03,0.3 0.1,0.42 0.07,0.13 0.16,0.22 0.28,0.29 0.11,0.07 0.25,0.1 0.4,0.1z"/>
    <polygon class="fil3" points="73.85,76.75 73.85,79.35 73.25,79.35 71.81,77.61 72.1,77.61 72.1,79.35 71.38,79.35 71.38,76.75 71.99,76.75 73.42,78.48 73.13,78.48 73.13,76.75 "/>
    <path id="_1_34" class="fil3" d="M69.55 76.7c0.2,0 0.39,0.03 0.57,0.09 0.18,0.07 0.33,0.17 0.46,0.29 0.13,0.12 0.23,0.26 0.3,0.43 0.07,0.16 0.11,0.34 0.11,0.54 0,0.19 -0.03,0.37 -0.11,0.53 -0.07,0.17 -0.17,0.31 -0.3,0.43 -0.13,0.12 -0.28,0.22 -0.46,0.29 -0.18,0.06 -0.37,0.1 -0.57,0.1 -0.21,0 -0.41,-0.04 -0.58,-0.1 -0.17,-0.07 -0.32,-0.17 -0.45,-0.29 -0.13,-0.12 -0.24,-0.26 -0.31,-0.42 -0.07,-0.17 -0.1,-0.35 -0.1,-0.54 0,-0.2 0.03,-0.38 0.1,-0.54 0.07,-0.17 0.18,-0.31 0.31,-0.43 0.13,-0.12 0.28,-0.22 0.45,-0.29 0.17,-0.06 0.37,-0.09 0.58,-0.09zm0 0.6c-0.1,0 -0.19,0.02 -0.28,0.05 -0.09,0.04 -0.16,0.09 -0.22,0.16 -0.07,0.06 -0.12,0.14 -0.15,0.23 -0.04,0.09 -0.06,0.19 -0.06,0.31 0,0.11 0.02,0.21 0.06,0.3 0.03,0.1 0.08,0.17 0.15,0.24 0.06,0.06 0.13,0.11 0.22,0.15 0.08,0.04 0.18,0.05 0.28,0.06 0.1,-0.01 0.19,-0.03 0.28,-0.06 0.08,-0.04 0.16,-0.09 0.22,-0.15 0.06,-0.07 0.11,-0.14 0.15,-0.24 0.03,-0.09 0.05,-0.19 0.05,-0.3 0,-0.12 -0.02,-0.22 -0.05,-0.31 -0.04,-0.09 -0.09,-0.17 -0.15,-0.24 -0.07,-0.06 -0.14,-0.11 -0.22,-0.15 -0.09,-0.03 -0.18,-0.05 -0.28,-0.05z"/>
    <path id="_2_35" class="fil3" d="M67.72 76.75l0 2.6 -1.19 0c-0.24,0 -0.45,-0.04 -0.62,-0.12 -0.17,-0.08 -0.31,-0.19 -0.4,-0.33 -0.09,-0.15 -0.14,-0.32 -0.14,-0.52 0,-0.19 0.05,-0.36 0.14,-0.5 0.09,-0.15 0.23,-0.26 0.4,-0.34 0.17,-0.08 0.38,-0.11 0.62,-0.11l0.78 0 -0.33 0.32 0 -1 0.74 0zm-0.74 0.92l0.33 0.34 -0.74 0c-0.15,0 -0.27,0.03 -0.34,0.1 -0.08,0.06 -0.12,0.16 -0.12,0.27 0,0.13 0.04,0.22 0.12,0.29 0.07,0.06 0.19,0.1 0.34,0.1l0.74 0 -0.33 0.33 0 -1.43z"/>
    <polygon id="_3_36" class="fil3" points="65.35,76.75 64.21,78.32 64.21,77.8 65.31,79.35 64.48,79.35 63.78,78.34 64.13,78.34 63.44,79.35 62.65,79.35 63.74,77.83 63.74,78.35 62.59,76.75 63.44,76.75 64.15,77.8 63.81,77.8 64.51,76.75 "/>
    <polygon id="_4_37" class="fil3" points="61.12,76.02 61.12,79.5 60.94,79.5 60.94,76.02 "/>
    <polygon id="_5_38" class="fil3" points="58.5,76.75 59.38,79.35 59.18,79.35 58.34,76.86 58.44,76.86 57.58,79.35 57.39,79.35 56.54,76.86 56.63,76.86 55.79,79.35 55.6,79.35 56.48,76.75 56.68,76.75 57.51,79.15 57.46,79.15 58.3,76.75 "/>
    <path id="_6_39" class="fil3" d="M54.47 76.73c0.2,0 0.37,0.04 0.52,0.13 0.15,0.08 0.27,0.2 0.35,0.35 0.09,0.14 0.13,0.31 0.13,0.5 0,0.2 -0.04,0.37 -0.12,0.52 -0.08,0.14 -0.19,0.26 -0.33,0.34 -0.14,0.09 -0.3,0.13 -0.48,0.13 -0.17,0 -0.33,-0.04 -0.47,-0.12 -0.14,-0.08 -0.25,-0.2 -0.33,-0.35 -0.08,-0.14 -0.12,-0.31 -0.12,-0.51 0,-0.01 0,-0.01 0,-0.02 0,-0.01 0,-0.02 0,-0.03l1.72 0 0 0.15 -1.62 0 0.08 -0.07c-0.01,0.15 0.03,0.28 0.09,0.4 0.07,0.12 0.16,0.22 0.27,0.28 0.11,0.07 0.24,0.11 0.38,0.11 0.15,0 0.28,-0.04 0.39,-0.11 0.11,-0.06 0.2,-0.16 0.26,-0.28 0.07,-0.12 0.1,-0.26 0.1,-0.41l0 -0.03c0,-0.16 -0.03,-0.3 -0.1,-0.42 -0.08,-0.13 -0.17,-0.22 -0.3,-0.29 -0.12,-0.07 -0.26,-0.1 -0.42,-0.1 -0.12,0 -0.24,0.02 -0.35,0.06 -0.11,0.05 -0.2,0.12 -0.27,0.21l-0.11 -0.12c0.09,-0.11 0.19,-0.19 0.32,-0.24 0.13,-0.05 0.26,-0.08 0.41,-0.08z"/>
    <path id="_7_40" class="fil3" d="M52.07 76.73c0.17,0 0.32,0.04 0.46,0.12 0.14,0.08 0.25,0.19 0.33,0.34 0.08,0.15 0.12,0.32 0.12,0.52 0,0.21 -0.04,0.39 -0.12,0.53 -0.08,0.15 -0.19,0.26 -0.33,0.34 -0.14,0.08 -0.29,0.12 -0.46,0.12 -0.18,0 -0.35,-0.04 -0.49,-0.12 -0.15,-0.09 -0.26,-0.2 -0.35,-0.35 -0.08,-0.15 -0.12,-0.32 -0.12,-0.52 0,-0.19 0.04,-0.36 0.12,-0.51 0.09,-0.15 0.2,-0.26 0.35,-0.35 0.14,-0.08 0.31,-0.12 0.49,-0.12zm0.97 0.02l0 2.75 -0.18 0 0 -1.44 0.03 -0.34 -0.03 -0.34 0 -0.63 0.18 0zm-0.96 0.15c-0.15,0 -0.28,0.03 -0.4,0.1 -0.12,0.07 -0.21,0.16 -0.28,0.29 -0.07,0.12 -0.11,0.26 -0.11,0.42 0,0.17 0.04,0.31 0.11,0.43 0.07,0.13 0.16,0.22 0.28,0.29 0.12,0.07 0.25,0.1 0.4,0.1 0.15,0 0.28,-0.03 0.4,-0.1 0.12,-0.07 0.21,-0.16 0.28,-0.29 0.07,-0.12 0.1,-0.26 0.1,-0.43 0,-0.16 -0.03,-0.3 -0.1,-0.42 -0.07,-0.13 -0.16,-0.22 -0.28,-0.29 -0.12,-0.07 -0.25,-0.1 -0.4,-0.1z"/>
    <path id="_8_41" class="fil3" d="M47.69 76.71l1.42 1.49c0.09,0.09 0.15,0.17 0.2,0.24 0.05,0.07 0.09,0.14 0.11,0.2 0.01,0.06 0.02,0.12 0.02,0.19 0,0.11 -0.02,0.2 -0.07,0.28 -0.05,0.08 -0.12,0.14 -0.22,0.19 -0.09,0.04 -0.2,0.06 -0.32,0.06 -0.12,0 -0.22,-0.02 -0.31,-0.06 -0.08,-0.04 -0.15,-0.09 -0.19,-0.17 -0.05,-0.07 -0.08,-0.16 -0.08,-0.26 0,-0.09 0.03,-0.18 0.07,-0.26 0.04,-0.08 0.12,-0.15 0.22,-0.23 0.1,-0.08 0.24,-0.17 0.41,-0.27 0.17,-0.09 0.3,-0.18 0.39,-0.25 0.09,-0.08 0.16,-0.16 0.2,-0.23 0.04,-0.07 0.06,-0.15 0.06,-0.24 0,-0.1 -0.03,-0.19 -0.09,-0.27 -0.06,-0.07 -0.13,-0.13 -0.24,-0.17 -0.1,-0.05 -0.21,-0.07 -0.35,-0.07 -0.18,0 -0.33,0.04 -0.47,0.11 -0.14,0.08 -0.26,0.19 -0.35,0.34 -0.1,0.14 -0.16,0.33 -0.21,0.56l-0.15 -0.05c0.05,-0.25 0.13,-0.45 0.24,-0.62 0.1,-0.16 0.24,-0.29 0.4,-0.37 0.16,-0.08 0.35,-0.12 0.55,-0.12 0.16,0 0.31,0.02 0.44,0.08 0.13,0.05 0.23,0.13 0.3,0.23 0.07,0.09 0.11,0.21 0.11,0.34 0,0.1 -0.03,0.2 -0.07,0.29 -0.05,0.09 -0.13,0.18 -0.23,0.27 -0.11,0.09 -0.26,0.19 -0.44,0.29 -0.16,0.09 -0.28,0.17 -0.37,0.24 -0.09,0.07 -0.16,0.13 -0.2,0.19 -0.03,0.06 -0.05,0.13 -0.05,0.2 0,0.11 0.03,0.2 0.1,0.26 0.07,0.06 0.18,0.1 0.31,0.1 0.14,0 0.24,-0.04 0.32,-0.11 0.08,-0.07 0.12,-0.16 0.12,-0.28 0,-0.05 -0.01,-0.11 -0.03,-0.16 -0.01,-0.05 -0.05,-0.1 -0.09,-0.16 -0.05,-0.06 -0.11,-0.14 -0.19,-0.23l-1.38 -1.45 0.11 -0.12z"/>
    <path id="_9_42" class="fil3" d="M46.56 76.75l-1.19 2.6 -0.19 0 -1.2 -2.6 0.2 0 1.13 2.48 -0.08 0 1.13 -2.48 0.2 0zm-0.44 0.73l-0.06 0.16 -1.56 0 -0.06 -0.16 1.68 0z"/>
    <path id="_10_43" class="fil3" d="M42.59 76.73c0.17,0 0.33,0.04 0.47,0.12 0.13,0.08 0.24,0.19 0.32,0.34 0.08,0.15 0.12,0.32 0.12,0.52 0,0.21 -0.04,0.38 -0.12,0.53 -0.08,0.15 -0.19,0.26 -0.32,0.34 -0.14,0.08 -0.3,0.12 -0.47,0.12 -0.18,0 -0.34,-0.04 -0.49,-0.12 -0.14,-0.09 -0.26,-0.2 -0.34,-0.35 -0.08,-0.15 -0.13,-0.32 -0.13,-0.52 0,-0.19 0.05,-0.36 0.13,-0.51 0.08,-0.15 0.2,-0.26 0.34,-0.35 0.15,-0.08 0.31,-0.12 0.49,-0.12zm0.98 -0.71l0 2.67 -0.18 0 0 -0.64 0.03 -0.34 -0.04 -0.34 0 -1.35 0.19 0zm-0.97 0.88c-0.14,0 -0.28,0.03 -0.4,0.1 -0.12,0.07 -0.21,0.16 -0.28,0.29 -0.07,0.12 -0.1,0.26 -0.1,0.42 0,0.17 0.03,0.31 0.1,0.43 0.07,0.13 0.16,0.22 0.28,0.29 0.12,0.07 0.26,0.1 0.4,0.1 0.15,0 0.29,-0.03 0.4,-0.1 0.12,-0.07 0.21,-0.16 0.28,-0.29 0.07,-0.12 0.1,-0.26 0.1,-0.43 0,-0.16 -0.03,-0.3 -0.1,-0.42 -0.07,-0.13 -0.16,-0.22 -0.28,-0.29 -0.11,-0.07 -0.25,-0.1 -0.4,-0.1z"/>
    <path id="_11_44" class="fil3" d="M40.08 76.73c0.18,0 0.33,0.04 0.47,0.12 0.13,0.08 0.24,0.19 0.32,0.34 0.09,0.15 0.13,0.32 0.13,0.52 0,0.21 -0.04,0.38 -0.13,0.53 -0.08,0.15 -0.19,0.26 -0.32,0.34 -0.14,0.08 -0.29,0.12 -0.47,0.12 -0.18,0 -0.34,-0.04 -0.49,-0.12 -0.14,-0.09 -0.26,-0.2 -0.34,-0.35 -0.08,-0.15 -0.12,-0.32 -0.12,-0.52 0,-0.19 0.04,-0.36 0.12,-0.51 0.08,-0.15 0.2,-0.26 0.34,-0.35 0.15,-0.08 0.31,-0.12 0.49,-0.12zm0.98 -0.71l0 2.67 -0.18 0 0 -0.64 0.03 -0.34 -0.04 -0.34 0 -1.35 0.19 0zm-0.96 0.88c-0.15,0 -0.29,0.03 -0.41,0.1 -0.11,0.07 -0.21,0.16 -0.28,0.29 -0.06,0.12 -0.1,0.26 -0.1,0.42 0,0.17 0.04,0.31 0.1,0.43 0.07,0.13 0.17,0.22 0.28,0.29 0.12,0.07 0.26,0.1 0.41,0.1 0.14,0 0.28,-0.03 0.4,-0.1 0.11,-0.07 0.21,-0.16 0.27,-0.29 0.07,-0.12 0.11,-0.26 0.11,-0.43 0,-0.16 -0.04,-0.3 -0.11,-0.42 -0.06,-0.13 -0.16,-0.22 -0.27,-0.29 -0.12,-0.07 -0.26,-0.1 -0.4,-0.1z"/>
    <path id="_12_45" class="fil3" d="M36.85 76.73c0.19,0 0.38,0.03 0.55,0.1 0.17,0.06 0.3,0.15 0.4,0.25l-0.09 0.14c-0.09,-0.09 -0.21,-0.17 -0.36,-0.23 -0.16,-0.06 -0.32,-0.1 -0.5,-0.1 -0.17,0 -0.31,0.03 -0.42,0.07 -0.11,0.05 -0.19,0.11 -0.25,0.19 -0.05,0.07 -0.08,0.16 -0.08,0.25 0,0.11 0.03,0.2 0.09,0.27 0.06,0.07 0.14,0.12 0.24,0.16 0.09,0.04 0.2,0.07 0.31,0.1 0.12,0.03 0.23,0.06 0.35,0.09 0.12,0.03 0.22,0.07 0.32,0.12 0.1,0.05 0.17,0.12 0.23,0.2 0.06,0.09 0.09,0.2 0.09,0.33 0,0.13 -0.03,0.24 -0.1,0.35 -0.06,0.1 -0.16,0.18 -0.3,0.25 -0.14,0.06 -0.31,0.1 -0.52,0.1 -0.15,0 -0.29,-0.03 -0.43,-0.07 -0.14,-0.04 -0.26,-0.1 -0.36,-0.17l0.07 -0.15c0.11,0.07 0.23,0.13 0.35,0.16 0.13,0.04 0.25,0.06 0.37,0.06 0.16,0 0.3,-0.03 0.41,-0.07 0.11,-0.05 0.19,-0.11 0.24,-0.19 0.05,-0.08 0.08,-0.17 0.08,-0.26 0,-0.11 -0.03,-0.2 -0.09,-0.27 -0.06,-0.07 -0.14,-0.12 -0.23,-0.16 -0.1,-0.04 -0.2,-0.07 -0.32,-0.1 -0.12,-0.03 -0.23,-0.06 -0.35,-0.09 -0.11,-0.03 -0.22,-0.07 -0.31,-0.12 -0.1,-0.05 -0.18,-0.11 -0.24,-0.2 -0.06,-0.08 -0.09,-0.19 -0.09,-0.33 0,-0.12 0.04,-0.23 0.1,-0.34 0.07,-0.1 0.17,-0.19 0.31,-0.25 0.14,-0.06 0.31,-0.09 0.53,-0.09z"/>
    <path id="_13_46" class="fil3" d="M34.76 76.73c0.18,0 0.31,0.05 0.4,0.14 0.09,0.1 0.13,0.22 0.13,0.39l0 1.85 -0.18 0 0 -1.83c0,-0.13 -0.03,-0.22 -0.1,-0.29 -0.06,-0.07 -0.15,-0.1 -0.26,-0.1 -0.12,0 -0.22,0.04 -0.31,0.11l-0.07 -0.13c0.05,-0.05 0.11,-0.08 0.18,-0.11 0.07,-0.02 0.14,-0.03 0.21,-0.03zm0.89 1.8l0 0.16 -1.16 0 0 -0.16 1.16 0z"/>
    <path id="_14_47" class="fil3" d="M33.06 76.73c0.17,0 0.31,0.03 0.43,0.09 0.12,0.06 0.22,0.15 0.28,0.28 0.07,0.12 0.1,0.27 0.1,0.45l0 1.14 -0.18 0 0 -1.12c0,-0.22 -0.06,-0.39 -0.17,-0.5 -0.11,-0.12 -0.27,-0.17 -0.47,-0.17 -0.15,0 -0.28,0.03 -0.38,0.09 -0.11,0.06 -0.19,0.15 -0.25,0.26 -0.05,0.12 -0.08,0.25 -0.08,0.4l0 1.04 -0.19 0 0 -1.94 0.18 0 0 0.53 -0.03 -0.06c0.06,-0.15 0.16,-0.27 0.29,-0.36 0.13,-0.09 0.29,-0.13 0.47,-0.13z"/>
    <path id="_15_48" class="fil3" d="M30.62 76.73c0.18,0 0.34,0.04 0.49,0.12 0.14,0.09 0.25,0.2 0.34,0.35 0.08,0.15 0.13,0.32 0.13,0.51 0,0.2 -0.05,0.37 -0.13,0.52 -0.09,0.15 -0.2,0.26 -0.34,0.35 -0.15,0.08 -0.31,0.12 -0.49,0.12 -0.17,0 -0.33,-0.04 -0.47,-0.12 -0.13,-0.08 -0.24,-0.19 -0.32,-0.34 -0.08,-0.14 -0.12,-0.32 -0.12,-0.53 0,-0.2 0.04,-0.37 0.12,-0.52 0.07,-0.15 0.18,-0.26 0.32,-0.34 0.14,-0.08 0.29,-0.12 0.47,-0.12zm-0.02 0.17c-0.14,0 -0.28,0.03 -0.39,0.1 -0.12,0.07 -0.21,0.16 -0.28,0.29 -0.07,0.12 -0.1,0.26 -0.1,0.42 0,0.17 0.03,0.31 0.1,0.43 0.07,0.13 0.16,0.22 0.28,0.29 0.11,0.07 0.25,0.1 0.39,0.1 0.15,0 0.29,-0.03 0.41,-0.1 0.11,-0.07 0.21,-0.16 0.27,-0.29 0.07,-0.12 0.11,-0.26 0.11,-0.43 0,-0.16 -0.04,-0.3 -0.11,-0.42 -0.06,-0.13 -0.16,-0.22 -0.27,-0.29 -0.12,-0.07 -0.26,-0.1 -0.41,-0.1zm-0.78 -0.15l0 0.63 -0.03 0.34 0.04 0.34 0 1.44 -0.19 0 0 -2.75 0.18 0z"/>
    <path id="_16_49" class="fil3" d="M28.85 76.75l0 1.94 -0.18 0 0 -1.94 0.18 0zm-0.09 2.41c0.04,0 0.08,0.01 0.11,0.04 0.03,0.03 0.04,0.07 0.04,0.11 0,0.04 -0.01,0.07 -0.04,0.1 -0.03,0.03 -0.07,0.05 -0.11,0.05 -0.04,0 -0.08,-0.02 -0.11,-0.04 -0.03,-0.03 -0.04,-0.07 -0.04,-0.11 0,-0.04 0.01,-0.08 0.04,-0.11 0.03,-0.03 0.07,-0.04 0.11,-0.04z"/>
    <path id="_17_50" class="fil3" d="M27.13 76.73c0.18,0 0.35,0.04 0.49,0.13 0.15,0.08 0.26,0.2 0.35,0.35 0.08,0.14 0.12,0.31 0.12,0.5 0.01,0.2 -0.04,0.37 -0.12,0.52 -0.09,0.14 -0.2,0.26 -0.35,0.34 -0.14,0.09 -0.31,0.13 -0.49,0.13 -0.19,0 -0.35,-0.04 -0.5,-0.13 -0.15,-0.08 -0.26,-0.2 -0.34,-0.34 -0.09,-0.15 -0.13,-0.32 -0.13,-0.52 0,-0.19 0.04,-0.36 0.12,-0.5 0.09,-0.15 0.2,-0.27 0.35,-0.35 0.15,-0.09 0.31,-0.13 0.5,-0.13zm0 0.17c-0.15,0 -0.29,0.03 -0.4,0.1 -0.12,0.07 -0.22,0.16 -0.28,0.29 -0.07,0.12 -0.1,0.26 -0.11,0.42 0.01,0.17 0.04,0.31 0.11,0.43 0.06,0.13 0.16,0.22 0.28,0.29 0.11,0.07 0.25,0.1 0.4,0.11 0.15,-0.01 0.28,-0.04 0.4,-0.11 0.11,-0.07 0.21,-0.16 0.28,-0.29 0.06,-0.12 0.1,-0.26 0.1,-0.43 0,-0.16 -0.04,-0.3 -0.1,-0.42 -0.07,-0.13 -0.16,-0.22 -0.28,-0.29 -0.12,-0.07 -0.25,-0.1 -0.4,-0.1z"/>
   </g>
  </g>
 </g>
</svg>
