<!-- Generated by IcoMoon.io -->
<svg version="1.1" xmlns="http://www.w3.org/2000/svg" width="32" height="32" viewBox="0 0 32 32">
<path fill="#fd0069" d="M27 7h-5v-1c0-1.657-1.343-3-3-3v0h-6c-1.657 0-3 1.343-3 3v0 1h-5c-1.105 0-2 0.895-2 2v0 16c0 1.105 0.895 2 2 2v0h22c1.105 0 2-0.895 2-2v0-16c0-1.105-0.895-2-2-2v0zM12 6c0-0.552 0.448-1 1-1v0h6c0.552 0 1 0.448 1 1v0 1h-8zM27 9v5.201c-3.176 1.762-6.965 2.799-10.996 2.799-0.001 0-0.003 0-0.004 0h0c-0.001 0-0.003 0-0.004 0-4.031 0-7.82-1.037-11.114-2.857l0.118 0.060v-5.203zM27 25h-22v-8.545c3.21 1.605 6.993 2.545 10.995 2.545 0.002 0 0.003 0 0.005 0h-0c0 0 0 0 0.001 0 4.004 0 7.789-0.94 11.145-2.612l-0.145 0.066v8.546zM13 14c0-0.552 0.448-1 1-1v0h4c0.552 0 1 0.448 1 1s-0.448 1-1 1v0h-4c-0.552 0-1-0.448-1-1v0z"></path>
</svg>
