<!-- Generated by IcoMoon.io -->
<svg version="1.1" xmlns="http://www.w3.org/2000/svg" width="32" height="32" viewBox="0 0 32 32">
<path fill="#fd0069" d="M17 15v12c0 0.552-0.448 1-1 1s-1-0.448-1-1v0-12c0-0.552 0.448-1 1-1s1 0.448 1 1v0zM25 24c-0.552 0-1 0.448-1 1v0 2c0 0.552 0.448 1 1 1s1-0.448 1-1v0-2c0-0.552-0.448-1-1-1v0zM28 20h-2v-15c0-0.552-0.448-1-1-1s-1 0.448-1 1v0 15h-2c-0.552 0-1 0.448-1 1s0.448 1 1 1v0h6c0.552 0 1-0.448 1-1s-0.448-1-1-1v0zM7 20c-0.552 0-1 0.448-1 1v0 6c0 0.552 0.448 1 1 1s1-0.448 1-1v0-6c0-0.552-0.448-1-1-1v0zM10 16h-2v-11c0-0.552-0.448-1-1-1s-1 0.448-1 1v0 11h-2c-0.552 0-1 0.448-1 1s0.448 1 1 1v0h6c0.552 0 1-0.448 1-1s-0.448-1-1-1v0zM19 10h-2v-5c0-0.552-0.448-1-1-1s-1 0.448-1 1v0 5h-2c-0.552 0-1 0.448-1 1s0.448 1 1 1v0h6c0.552 0 1-0.448 1-1s-0.448-1-1-1v0z"></path>
</svg>
