<!-- Generated by IcoMoon.io -->
<svg version="1.1" xmlns="http://www.w3.org/2000/svg" width="32" height="32" viewBox="0 0 32 32">
<path fill="#fd0069" d="M16 3v0c-7.18 0-13 5.82-13 13s5.82 13 13 13c7.18 0 13-5.82 13-13v0c-0.009-7.176-5.824-12.991-12.999-13h-0.001zM27 16c0 0.003 0 0.006 0 0.009 0 1.065-0.152 2.095-0.436 3.068l0.019-0.077h-4.814c0.146-0.902 0.23-1.941 0.23-3s-0.084-2.098-0.245-3.112l0.015 0.112h4.814c0.264 0.896 0.416 1.926 0.416 2.991 0 0.003 0 0.007 0 0.010v-0.001zM12.75 21h6.5c-0.681 2.19-1.798 4.074-3.257 5.633l0.007-0.008c-1.452-1.551-2.568-3.435-3.222-5.523l-0.028-0.102zM12.262 19c-0.164-0.902-0.258-1.94-0.258-3s0.094-2.098 0.273-3.106l-0.016 0.106h7.485c0.164 0.902 0.258 1.94 0.258 3s-0.094 2.098-0.273 3.106l0.016-0.106zM5 16c0-0.003 0-0.006 0-0.009 0-1.065 0.152-2.095 0.436-3.068l-0.019 0.077h4.814c-0.146 0.902-0.23 1.941-0.23 3s0.084 2.098 0.245 3.112l-0.015-0.112h-4.814c-0.264-0.896-0.416-1.926-0.416-2.991 0-0.003 0-0.007 0-0.010v0.001zM19.25 11h-6.5c0.681-2.19 1.798-4.074 3.257-5.633l-0.007 0.008c1.452 1.551 2.568 3.435 3.222 5.523l0.028 0.102zM25.791 11h-4.453c-0.605-2.179-1.562-4.081-2.818-5.743l0.031 0.043c3.183 0.783 5.771 2.865 7.216 5.639l0.029 0.061zM13.449 5.3c-1.226 1.619-2.183 3.521-2.759 5.581l-0.028 0.119h-4.457c1.474-2.835 4.062-4.917 7.169-5.684l0.076-0.016zM6.204 21h4.457c0.605 2.179 1.562 4.081 2.818 5.743l-0.031-0.043c-3.183-0.783-5.771-2.865-7.216-5.639l-0.029-0.061zM18.551 26.7c1.226-1.619 2.183-3.521 2.759-5.581l0.028-0.119h4.457c-1.474 2.835-4.062 4.917-7.169 5.684l-0.076 0.016z"></path>
</svg>
