<?xml version="1.0" encoding="UTF-8"?>
<!DOCTYPE svg PUBLIC "-//W3C//DTD SVG 1.1//EN" "http://www.w3.org/Graphics/SVG/1.1/DTD/svg11.dtd">
<!-- Creator: CorelDRAW -->
<svg xmlns="http://www.w3.org/2000/svg" xml:space="preserve" width="50px" height="50px" version="1.1" style="shape-rendering:geometricPrecision; text-rendering:geometricPrecision; image-rendering:optimizeQuality; fill-rule:evenodd; clip-rule:evenodd"
viewBox="0 0 50 50"
 xmlns:xlink="http://www.w3.org/1999/xlink"
 xmlns:xodm="http://www.corel.com/coreldraw/odm/2003">
 <defs>
  <style type="text/css">
   <![CDATA[
    .fil0 {fill:#ED145B}
   ]]>
  </style>
 </defs>
 <g id="Camada_x0020_1">
  <metadata id="CorelCorpID_0Corel-Layer"/>
  <path class="fil0" d="M2.64 18.74l6.27 6.26 -6.27 6.26 0 16.1 16.1 0 6.26 -6.26 6.26 6.26 16.1 0 0 -16.1 -6.26 -6.25 6.26 -6.27 0 -16.1 -16.1 0 -6.25 6.26 -6.27 -6.26 -16.1 0 0 16.1zm2.53 6.26l-5.17 -5.17 0 -19.83 19.83 0 5.17 5.17 5.17 -5.17 19.83 0 0 19.83 -5.17 5.17 5.17 5.17 0 19.83 -19.83 0 -5.17 -5.17 -5.17 5.17 -19.83 0 0 -19.83 5.17 -5.17z"/>
 </g>
</svg>
