<!-- Generated by IcoMoon.io -->
<svg version="1.1" xmlns="http://www.w3.org/2000/svg" width="32" height="32" viewBox="0 0 32 32">
<path fill="#fd0069" d="M14.051 12.816c-0.033-0.094-0.051-0.203-0.051-0.316 0-0.439 0.283-0.812 0.677-0.947l0.007-0.002 1.5-0.5c0.094-0.033 0.203-0.051 0.316-0.051 0.552 0 1 0.448 1 1 0 0 0 0 0 0v0 5c0 0.552-0.448 1-1 1s-1-0.448-1-1v0-3.613l-0.184 0.061c-0.094 0.033-0.203 0.051-0.316 0.051-0.439 0-0.812-0.283-0.947-0.677l-0.002-0.007zM31 26c0 0.552-0.448 1-1 1v0h-28c-0.552 0-1-0.448-1-1s0.448-1 1-1v0h1v-12c0-1.105 0.895-2 2-2v0h5v-4c0-1.105 0.895-2 2-2v0h8c1.105 0 2 0.895 2 2v0 9h5c1.105 0 2 0.895 2 2v0 7h1c0.552 0 1 0.448 1 1v0zM22 18v7h5v-7zM12 25h8v-18h-8zM5 25h5v-12h-5z"></path>
</svg>
