<!-- Generated by IcoMoon.io -->
<svg version="1.1" xmlns="http://www.w3.org/2000/svg" width="32" height="32" viewBox="0 0 32 32">
<path fill="#fd0069" d="M23.302 15.456c-0.404-0.307-0.86-0.587-1.343-0.819l-0.048-0.021c-0.5-3.736-3-4.914-4.137-5.259-2.473-0.75-5.314 0.149-6.606 2.088-0.105 0.156-0.168 0.348-0.168 0.555 0 0.553 0.448 1.001 1.001 1.001 0.346 0 0.65-0.175 0.83-0.442l0.002-0.004c0.796-1.195 2.75-1.77 4.361-1.284 1.244 0.375 2.102 1.287 2.519 2.625-0.57-0.114-1.225-0.179-1.895-0.179-0.006 0-0.012 0-0.017 0h0.001c-1.74 0-3.369 0.449-4.584 1.262-1.43 0.966-2.217 2.395-2.217 4.020 0 2.572 1.982 4.44 4.714 4.44 1.688-0.012 3.209-0.719 4.292-1.849l0.002-0.002c0.805-0.837 1.75-2.295 1.951-4.637 0.047 0.032 0.093 0.066 0.137 0.1 1.264 0.955 1.904 2.284 1.904 3.949 0 2.42-2.543 6-8 6-3.341 0-5.685-1.081-7.168-3.305-1.216-1.82-1.832-4.412-1.832-7.695s0.616-5.875 1.832-7.695c1.482-2.224 3.826-3.305 7.168-3.305 4.116 0 6.75 1.656 8.066 5.065 0.146 0.384 0.51 0.651 0.937 0.651 0.552 0 1-0.448 1-1 0-0.133-0.026-0.26-0.073-0.377l0.002 0.007c-1.598-4.151-5.032-6.346-9.933-6.346-4 0-6.976 1.411-8.832 4.195-1.439 2.159-2.168 5.12-2.168 8.805s0.729 6.646 2.168 8.805c1.856 2.784 4.832 4.195 8.832 4.195 3.759 0 6.113-1.435 7.425-2.637 1.613-1.477 2.575-3.488 2.575-5.363 0-2.293-0.933-4.21-2.697-5.544zM18.566 20.206c-0.72 0.754-1.73 1.227-2.851 1.238h-0.002c-1.351 0-2.714-0.75-2.714-2.44 0-1.579 1.5-3.276 4.801-3.276 0.006-0 0.014-0 0.022-0 0.775 0 1.525 0.111 2.234 0.317l-0.056-0.014c0 1.76-0.5 3.203-1.434 4.172z"></path>
</svg>
