<!-- Generated by IcoMoon.io -->
<svg version="1.1" xmlns="http://www.w3.org/2000/svg" width="32" height="32" viewBox="0 0 32 32">
<path fill="#fd0069" d="M28 9c-3.312-0.004-5.996-2.688-6-6v-0c0-0.552-0.448-1-1-1v0h-5c-0.552 0-1 0.448-1 1v0 16.5c-0.001 1.38-1.12 2.499-2.5 2.499s-2.5-1.119-2.5-2.5c0-0.991 0.577-1.848 1.414-2.252l0.015-0.006c0.341-0.164 0.571-0.507 0.571-0.903 0-0 0-0 0-0v0-5.336c0-0 0-0 0-0 0-0.552-0.448-1-1-1-0.062 0-0.122 0.006-0.181 0.016l0.006-0.001c-4.461 0.795-7.825 4.872-7.825 9.485 0 5.247 4.253 9.5 9.5 9.5s9.5-4.253 9.5-9.5v0-4.964c1.732 0.922 3.788 1.464 5.97 1.464 0.011 0 0.021 0 0.032-0h-0.002c0.552 0 1-0.448 1-1v0-5c0-0.552-0.448-1-1-1v0zM27 13.955c-2.052-0.187-3.903-0.916-5.447-2.040l0.031 0.022c-0.162-0.118-0.365-0.188-0.584-0.188-0.552 0-1 0.448-1 1 0 0.001 0 0.001 0 0.002v-0 6.75c0 4.142-3.358 7.5-7.5 7.5s-7.5-3.358-7.5-7.5v0c0-3.238 2.080-6.141 5-7.2v3.459c-1.213 0.819-2 2.188-2 3.742 0 2.485 2.015 4.5 4.5 4.5s4.5-2.015 4.5-4.5c0-0 0-0 0-0v0-15.5h3.063c0.476 3.624 3.314 6.462 6.897 6.933l0.041 0.004z"></path>
</svg>
