<!-- Generated by IcoMoon.io -->
<svg version="1.1" xmlns="http://www.w3.org/2000/svg" width="32" height="32" viewBox="0 0 32 32">
<path fill="#fd0069" d="M28.865 26.5c-1.904-3.291-4.838-5.651-8.261-6.77 2.651-1.598 4.396-4.462 4.396-7.733 0-4.971-4.029-9-9-9s-9 4.029-9 9c0 3.271 1.745 6.135 4.356 7.711l0.040 0.023c-3.424 1.117-6.357 3.477-8.261 6.77-0.093 0.149-0.148 0.329-0.148 0.523 0 0.552 0.448 1 1 1 0.377 0 0.706-0.209 0.876-0.518l0.003-0.005c2.355-4.070 6.517-6.5 11.134-6.5s8.779 2.43 11.134 6.5c0.173 0.314 0.501 0.523 0.879 0.523 0.552 0 1-0.448 1-1 0-0.193-0.055-0.374-0.15-0.527l0.002 0.004zM9 12c0-3.866 3.134-7 7-7s7 3.134 7 7c0 3.866-3.134 7-7 7v0c-3.864-0.004-6.996-3.136-7-7v-0z"></path>
</svg>
