<!-- Generated by IcoMoon.io -->
<svg version="1.1" xmlns="http://www.w3.org/2000/svg" width="32" height="32" viewBox="0 0 32 32">
<path fill="#fd0069" d="M26.844 26.464l-7.825-12.297 7.721-8.494c0.156-0.176 0.252-0.409 0.252-0.664 0-0.552-0.448-1-1-1-0.289 0-0.549 0.122-0.731 0.318l-0.001 0.001-7.355 8.090-5.061-7.954c-0.18-0.28-0.491-0.464-0.844-0.464h-6c-0 0-0 0-0 0-0.552 0-1 0.448-1 1 0 0.2 0.058 0.385 0.159 0.541l-0.002-0.004 7.825 12.296-7.721 8.5c-0.166 0.178-0.268 0.418-0.268 0.681 0 0.552 0.448 1 1 1 0.297 0 0.564-0.13 0.747-0.335l0.001-0.001 7.355-8.090 5.061 7.954c0.181 0.277 0.489 0.457 0.84 0.457 0.001 0 0.003 0 0.004 0h6c0.552-0 1-0.448 1-1 0-0.199-0.058-0.384-0.158-0.54l0.002 0.004zM20.549 26l-12.727-20h3.625l12.733 20z"></path>
</svg>
