<?xml version="1.0" encoding="UTF-8"?>
<!DOCTYPE svg PUBLIC "-//W3C//DTD SVG 1.1//EN" "http://www.w3.org/Graphics/SVG/1.1/DTD/svg11.dtd">
<!-- Creator: CorelDRAW -->
<svg xmlns="http://www.w3.org/2000/svg" xml:space="preserve" width="100px" height="30px" version="1.1" style="shape-rendering:geometricPrecision; text-rendering:geometricPrecision; image-rendering:optimizeQuality; fill-rule:evenodd; clip-rule:evenodd"
viewBox="0 0 100 30.33"
 xmlns:xlink="http://www.w3.org/1999/xlink"
 xmlns:xodm="http://www.corel.com/coreldraw/odm/2003">
 <defs>
  <style type="text/css">
   <![CDATA[
    .fil0 {fill:#ED145B}
    .fil1 {fill:#FDFFF9;fill-rule:nonzero}
   ]]>
  </style>
 </defs>
 <g id="Camada_x0020_1">
  <metadata id="CorelCorpID_0Corel-Layer"/>
  <g id="_3120134686864">
   <g>
    <polygon class="fil0" points="0,0.83 0,22.57 8.72,22.57 8.72,22.57 8.72,18.27 10.87,20.42 13.02,22.57 21.74,22.57 21.74,0.83 13.02,0.83 13.02,0.84 13.02,5.14 10.87,2.99 8.72,0.83 "/>
    <g>
     <rect class="fil0" x="26.09" y="0.83" width="21.74" height="21.74"/>
     <polygon class="fil0" points="52.17,0.83 52.17,22.57 69.57,22.57 69.57,22.57 69.57,18.27 69.57,18.23 73.87,18.23 73.89,18.25 73.91,18.27 73.91,0.83 "/>
    </g>
    <polygon class="fil0" points="78.26,8.66 81.31,11.7 81.3,11.71 78.26,14.75 78.26,22.57 86.09,22.57 89.13,19.53 89.13,19.53 92.18,22.57 100,22.57 100,14.75 96.96,11.71 96.96,11.7 100,8.66 100,0.83 92.18,0.83 89.13,3.88 89.13,3.88 86.09,0.83 78.26,0.83 "/>
   </g>
   <polygon class="fil1" points="13.03,30.06 13.02,26.08 13.95,26.08 16.15,28.73 15.71,28.73 15.71,26.08 16.81,26.08 16.81,30.06 15.89,30.06 13.69,27.41 14.13,27.41 14.13,30.06 "/>
   <path id="_1" class="fil1" d="M19.61 30.13c-0.31,0 -0.6,-0.05 -0.87,-0.15 -0.27,-0.1 -0.51,-0.24 -0.71,-0.43 -0.19,-0.19 -0.35,-0.41 -0.46,-0.66 -0.1,-0.25 -0.16,-0.53 -0.16,-0.82 0,-0.3 0.05,-0.58 0.16,-0.82 0.12,-0.25 0.27,-0.47 0.47,-0.66 0.2,-0.19 0.43,-0.33 0.7,-0.44 0.27,-0.1 0.56,-0.15 0.87,-0.15 0.33,0 0.63,0.05 0.89,0.15 0.27,0.11 0.5,0.25 0.7,0.44 0.2,0.18 0.35,0.4 0.46,0.65 0.11,0.25 0.17,0.53 0.16,0.83 0.01,0.3 -0.05,0.57 -0.16,0.83 -0.11,0.25 -0.26,0.47 -0.46,0.65 -0.2,0.18 -0.43,0.33 -0.7,0.43 -0.26,0.11 -0.56,0.16 -0.89,0.15zm0 -0.91c0.16,-0.01 0.3,-0.04 0.43,-0.09 0.14,-0.06 0.25,-0.13 0.35,-0.23 0.09,-0.1 0.17,-0.22 0.23,-0.36 0.05,-0.14 0.08,-0.3 0.08,-0.47 0,-0.18 -0.03,-0.33 -0.09,-0.47 -0.05,-0.15 -0.13,-0.26 -0.22,-0.36 -0.1,-0.1 -0.21,-0.18 -0.34,-0.23 -0.13,-0.06 -0.28,-0.09 -0.44,-0.09 -0.14,0.01 -0.28,0.04 -0.42,0.09 -0.13,0.05 -0.24,0.13 -0.34,0.23 -0.1,0.1 -0.17,0.21 -0.23,0.36 -0.05,0.14 -0.08,0.29 -0.08,0.47 0,0.17 0.03,0.33 0.08,0.47 0.06,0.14 0.13,0.26 0.23,0.36 0.1,0.1 0.21,0.17 0.34,0.23 0.13,0.06 0.27,0.08 0.42,0.09z"/>
   <path id="_2" class="fil1" d="M22.43 30.06l0 -3.98 1.82 0c0.36,0 0.68,0.05 0.94,0.17 0.27,0.12 0.47,0.29 0.61,0.51 0.15,0.22 0.22,0.49 0.22,0.79 0,0.3 -0.07,0.56 -0.22,0.78 -0.14,0.22 -0.34,0.39 -0.61,0.51 -0.26,0.12 -0.58,0.18 -0.94,0.18l-1.2 0 0.5 -0.49 0 1.53 -1.12 0zm1.12 -1.41l-0.5 -0.52 1.13 0c0.24,0 0.41,-0.05 0.53,-0.15 0.11,-0.11 0.17,-0.25 0.17,-0.43 0,-0.19 -0.06,-0.33 -0.17,-0.43 -0.12,-0.11 -0.29,-0.16 -0.53,-0.16l-1.13 0 0.5 -0.51 0 2.2z"/>
   <polygon id="_3" class="fil1" points="26.05,30.06 27.8,27.64 27.79,28.44 26.12,26.08 27.39,26.08 28.46,27.62 27.91,27.62 28.97,26.08 30.19,26.08 28.51,28.4 28.51,27.6 30.28,30.06 28.98,30.06 27.89,28.44 28.41,28.44 27.34,30.06 "/>
   <polygon id="_4" class="fil1" points="32.53,31.16 32.53,25.84 32.8,25.84 32.8,31.16 "/>
   <polygon id="_5" class="fil1" points="36.54,30.06 35.19,26.08 35.5,26.08 36.78,29.88 36.63,29.88 37.96,26.08 38.23,26.08 39.55,29.88 39.4,29.88 40.7,26.08 40.98,26.08 39.63,30.06 39.33,30.06 38.05,26.38 38.13,26.38 36.85,30.06 "/>
   <path id="_6" class="fil1" d="M42.71 30.08c-0.3,0 -0.57,-0.06 -0.8,-0.19 -0.23,-0.13 -0.41,-0.31 -0.54,-0.54 -0.13,-0.22 -0.19,-0.48 -0.19,-0.78 0,-0.29 0.06,-0.55 0.18,-0.78 0.13,-0.22 0.3,-0.4 0.51,-0.53 0.22,-0.13 0.46,-0.19 0.73,-0.19 0.27,0 0.51,0.06 0.73,0.18 0.21,0.13 0.38,0.3 0.5,0.53 0.13,0.23 0.19,0.49 0.19,0.78 0,0.01 0,0.03 0,0.04 -0.01,0.01 -0.01,0.03 -0.01,0.04l-2.62 0 0 -0.22 2.47 0 -0.12 0.11c0.01,-0.23 -0.04,-0.44 -0.14,-0.62 -0.1,-0.19 -0.24,-0.33 -0.41,-0.44 -0.17,-0.1 -0.37,-0.15 -0.59,-0.15 -0.22,0 -0.42,0.05 -0.59,0.15 -0.17,0.11 -0.31,0.25 -0.41,0.44 -0.09,0.18 -0.14,0.39 -0.14,0.62l0 0.06c0,0.24 0.05,0.45 0.16,0.64 0.11,0.19 0.26,0.34 0.45,0.44 0.19,0.1 0.4,0.16 0.64,0.16 0.19,0 0.37,-0.04 0.54,-0.1 0.16,-0.07 0.3,-0.18 0.42,-0.32l0.16 0.19c-0.13,0.16 -0.29,0.28 -0.49,0.36 -0.19,0.08 -0.4,0.12 -0.63,0.12z"/>
   <path id="_7" class="fil1" d="M46.39 30.08c-0.26,0 -0.5,-0.06 -0.71,-0.18 -0.21,-0.12 -0.37,-0.3 -0.5,-0.52 -0.12,-0.23 -0.18,-0.5 -0.18,-0.81 0,-0.31 0.06,-0.58 0.18,-0.8 0.13,-0.23 0.29,-0.4 0.5,-0.52 0.21,-0.12 0.45,-0.18 0.71,-0.18 0.28,0 0.53,0.06 0.76,0.19 0.22,0.12 0.39,0.3 0.52,0.53 0.13,0.22 0.19,0.48 0.19,0.78 0,0.3 -0.06,0.56 -0.19,0.79 -0.13,0.23 -0.3,0.41 -0.52,0.53 -0.23,0.13 -0.48,0.19 -0.76,0.19zm-1.49 -0.02l0 -4.22 0.29 0 0 2.21 -0.06 0.52 0.04 0.52 0 0.97 -0.27 0zm1.48 -0.23c0.22,0 0.43,-0.06 0.61,-0.16 0.18,-0.1 0.33,-0.25 0.43,-0.44 0.1,-0.19 0.16,-0.41 0.16,-0.66 0,-0.25 -0.06,-0.47 -0.16,-0.65 -0.1,-0.19 -0.25,-0.34 -0.43,-0.44 -0.18,-0.11 -0.39,-0.16 -0.61,-0.16 -0.23,0 -0.44,0.05 -0.62,0.16 -0.18,0.1 -0.32,0.25 -0.42,0.44 -0.11,0.18 -0.16,0.4 -0.16,0.65 0,0.25 0.05,0.47 0.16,0.66 0.1,0.19 0.24,0.34 0.42,0.44 0.18,0.1 0.39,0.16 0.62,0.16z"/>
   <path id="_8" class="fil1" d="M53.1 30.12l-2.18 -2.29c-0.13,-0.14 -0.23,-0.27 -0.31,-0.37 -0.07,-0.11 -0.13,-0.21 -0.16,-0.3 -0.02,-0.09 -0.04,-0.19 -0.04,-0.29 0,-0.17 0.04,-0.31 0.12,-0.43 0.08,-0.12 0.19,-0.22 0.33,-0.29 0.14,-0.06 0.31,-0.1 0.5,-0.1 0.18,0 0.33,0.03 0.46,0.09 0.13,0.06 0.23,0.15 0.3,0.26 0.08,0.11 0.11,0.25 0.11,0.41 0,0.14 -0.03,0.27 -0.1,0.39 -0.06,0.12 -0.17,0.24 -0.33,0.36 -0.15,0.12 -0.37,0.25 -0.64,0.41 -0.25,0.14 -0.44,0.27 -0.59,0.39 -0.14,0.12 -0.25,0.23 -0.3,0.34 -0.06,0.11 -0.09,0.24 -0.09,0.37 0,0.16 0.04,0.29 0.13,0.41 0.09,0.12 0.21,0.21 0.36,0.27 0.15,0.07 0.33,0.1 0.54,0.1 0.27,0 0.51,-0.06 0.73,-0.17 0.21,-0.11 0.39,-0.28 0.53,-0.51 0.15,-0.23 0.25,-0.51 0.32,-0.86l0.23 0.08c-0.07,0.37 -0.19,0.69 -0.36,0.94 -0.17,0.25 -0.37,0.44 -0.62,0.57 -0.25,0.13 -0.53,0.19 -0.84,0.19 -0.25,0 -0.48,-0.04 -0.67,-0.13 -0.2,-0.08 -0.35,-0.2 -0.46,-0.35 -0.11,-0.15 -0.17,-0.32 -0.17,-0.52 0,-0.16 0.04,-0.31 0.11,-0.45 0.07,-0.14 0.19,-0.28 0.35,-0.41 0.17,-0.14 0.39,-0.29 0.67,-0.45 0.24,-0.14 0.43,-0.26 0.57,-0.36 0.14,-0.1 0.24,-0.2 0.3,-0.3 0.05,-0.09 0.08,-0.19 0.08,-0.3 0,-0.17 -0.05,-0.3 -0.16,-0.4 -0.11,-0.1 -0.26,-0.14 -0.46,-0.14 -0.22,0 -0.38,0.05 -0.5,0.16 -0.12,0.11 -0.18,0.25 -0.18,0.43 0,0.08 0.01,0.16 0.04,0.24 0.03,0.07 0.07,0.16 0.14,0.25 0.07,0.09 0.17,0.21 0.3,0.34l2.11 2.23 -0.17 0.19z"/>
   <path id="_9" class="fil1" d="M54.82 30.06l1.84 -3.98 0.29 0 1.83 3.98 -0.31 0 -1.73 -3.8 0.12 0 -1.72 3.8 -0.32 0zm0.68 -1.12l0.09 -0.25 2.39 0 0.09 0.25 -2.57 0z"/>
   <path id="_10" class="fil1" d="M60.9 30.08c-0.26,0 -0.49,-0.06 -0.7,-0.18 -0.22,-0.12 -0.38,-0.29 -0.51,-0.52 -0.12,-0.23 -0.18,-0.49 -0.18,-0.81 0,-0.31 0.06,-0.58 0.18,-0.8 0.13,-0.23 0.29,-0.4 0.51,-0.52 0.21,-0.12 0.44,-0.18 0.7,-0.18 0.29,0 0.53,0.06 0.76,0.19 0.22,0.12 0.39,0.3 0.52,0.53 0.13,0.23 0.19,0.49 0.19,0.78 0,0.3 -0.06,0.56 -0.19,0.79 -0.13,0.23 -0.3,0.41 -0.52,0.53 -0.23,0.13 -0.47,0.19 -0.76,0.19zm-1.49 1.08l0 -4.07 0.28 0 0 0.97 -0.05 0.52 0.06 0.52 0 2.06 -0.29 0zm1.48 -1.33c0.22,0 0.43,-0.06 0.61,-0.16 0.18,-0.1 0.33,-0.25 0.43,-0.44 0.1,-0.19 0.16,-0.41 0.16,-0.66 0,-0.25 -0.06,-0.47 -0.16,-0.65 -0.1,-0.19 -0.25,-0.34 -0.43,-0.44 -0.18,-0.11 -0.39,-0.16 -0.61,-0.16 -0.23,0 -0.43,0.05 -0.62,0.16 -0.18,0.1 -0.32,0.25 -0.42,0.44 -0.11,0.18 -0.16,0.4 -0.16,0.65 0,0.25 0.05,0.47 0.16,0.66 0.1,0.19 0.24,0.34 0.42,0.44 0.19,0.1 0.39,0.16 0.62,0.16z"/>
   <path id="_11" class="fil1" d="M64.74 30.08c-0.26,0 -0.49,-0.06 -0.7,-0.18 -0.22,-0.12 -0.38,-0.29 -0.5,-0.52 -0.13,-0.23 -0.19,-0.49 -0.19,-0.81 0,-0.31 0.06,-0.58 0.19,-0.8 0.12,-0.23 0.28,-0.4 0.5,-0.52 0.21,-0.12 0.44,-0.18 0.7,-0.18 0.29,0 0.54,0.06 0.76,0.19 0.22,0.12 0.4,0.3 0.52,0.53 0.13,0.23 0.19,0.49 0.19,0.78 0,0.3 -0.06,0.56 -0.19,0.79 -0.12,0.23 -0.3,0.41 -0.52,0.53 -0.22,0.13 -0.47,0.19 -0.76,0.19zm-1.49 1.08l0 -4.07 0.28 0 0 0.97 -0.05 0.52 0.06 0.52 0 2.06 -0.29 0zm1.48 -1.33c0.23,0 0.43,-0.06 0.61,-0.16 0.18,-0.1 0.33,-0.25 0.43,-0.44 0.11,-0.19 0.16,-0.41 0.16,-0.66 0,-0.25 -0.05,-0.47 -0.16,-0.65 -0.1,-0.19 -0.25,-0.34 -0.43,-0.44 -0.18,-0.11 -0.38,-0.16 -0.61,-0.16 -0.23,0 -0.43,0.05 -0.61,0.16 -0.18,0.1 -0.33,0.25 -0.43,0.44 -0.11,0.18 -0.16,0.4 -0.16,0.65 0,0.25 0.05,0.47 0.16,0.66 0.1,0.19 0.25,0.34 0.43,0.44 0.18,0.1 0.38,0.16 0.61,0.16z"/>
   <path id="_12" class="fil1" d="M69.7 30.09c-0.3,0 -0.58,-0.05 -0.84,-0.15 -0.27,-0.1 -0.47,-0.23 -0.61,-0.39l0.13 -0.22c0.13,0.14 0.32,0.26 0.56,0.36 0.23,0.09 0.49,0.14 0.75,0.14 0.27,0 0.48,-0.03 0.65,-0.1 0.17,-0.07 0.3,-0.17 0.38,-0.28 0.08,-0.12 0.12,-0.25 0.12,-0.4 0,-0.17 -0.04,-0.3 -0.14,-0.41 -0.09,-0.1 -0.21,-0.18 -0.35,-0.24 -0.15,-0.06 -0.31,-0.11 -0.49,-0.16 -0.17,-0.04 -0.35,-0.08 -0.53,-0.13 -0.18,-0.05 -0.34,-0.11 -0.49,-0.18 -0.14,-0.08 -0.26,-0.18 -0.35,-0.31 -0.09,-0.14 -0.14,-0.31 -0.14,-0.51 0,-0.19 0.05,-0.37 0.15,-0.53 0.1,-0.16 0.25,-0.29 0.46,-0.39 0.21,-0.09 0.48,-0.14 0.81,-0.14 0.22,0 0.43,0.03 0.65,0.09 0.21,0.07 0.39,0.16 0.55,0.27l-0.11 0.23c-0.17,-0.11 -0.35,-0.2 -0.54,-0.25 -0.19,-0.06 -0.38,-0.09 -0.55,-0.09 -0.26,0 -0.47,0.04 -0.64,0.11 -0.16,0.07 -0.29,0.17 -0.37,0.29 -0.08,0.12 -0.12,0.25 -0.12,0.4 0,0.17 0.05,0.31 0.14,0.41 0.09,0.1 0.21,0.18 0.35,0.24 0.15,0.07 0.31,0.12 0.49,0.16 0.18,0.04 0.36,0.08 0.53,0.13 0.18,0.05 0.34,0.11 0.49,0.19 0.15,0.07 0.26,0.18 0.36,0.3 0.09,0.13 0.13,0.3 0.13,0.51 0,0.18 -0.05,0.36 -0.15,0.52 -0.1,0.16 -0.26,0.29 -0.47,0.38 -0.21,0.1 -0.48,0.15 -0.81,0.15z"/>
   <path id="_13" class="fil1" d="M72.89 30.08c-0.26,0 -0.46,-0.07 -0.6,-0.21 -0.14,-0.15 -0.21,-0.34 -0.21,-0.59l0 -2.84 0.29 0 0 2.81c0,0.19 0.04,0.33 0.14,0.43 0.09,0.11 0.23,0.16 0.41,0.16 0.18,0 0.34,-0.06 0.46,-0.17l0.12 0.2c-0.08,0.07 -0.17,0.13 -0.28,0.16 -0.1,0.04 -0.22,0.05 -0.33,0.05zm-1.35 -2.75l0 -0.24 1.77 0 0 0.24 -1.77 0z"/>
   <path id="_14" class="fil1" d="M75.5 30.08c-0.26,0 -0.48,-0.04 -0.66,-0.14 -0.19,-0.09 -0.33,-0.23 -0.43,-0.42 -0.1,-0.19 -0.15,-0.42 -0.15,-0.69l0 -1.74 0.28 0 0 1.71c0,0.34 0.09,0.59 0.26,0.77 0.17,0.17 0.41,0.26 0.72,0.26 0.22,0 0.42,-0.05 0.58,-0.15 0.16,-0.09 0.29,-0.22 0.38,-0.4 0.08,-0.17 0.13,-0.37 0.13,-0.61l0 -1.58 0.28 0 0 2.97 -0.27 0 0 -0.83 0.04 0.1c-0.09,0.23 -0.23,0.42 -0.44,0.55 -0.2,0.14 -0.44,0.2 -0.72,0.2z"/>
   <path id="_15" class="fil1" d="M79.24 30.08c-0.27,0 -0.52,-0.06 -0.74,-0.19 -0.23,-0.12 -0.4,-0.3 -0.53,-0.53 -0.13,-0.23 -0.19,-0.49 -0.19,-0.79 0,-0.3 0.06,-0.56 0.19,-0.78 0.13,-0.23 0.3,-0.41 0.53,-0.53 0.22,-0.13 0.47,-0.19 0.74,-0.19 0.27,0 0.5,0.06 0.71,0.18 0.21,0.12 0.38,0.29 0.5,0.52 0.13,0.22 0.19,0.49 0.19,0.8 0,0.31 -0.06,0.58 -0.18,0.81 -0.12,0.22 -0.29,0.4 -0.5,0.52 -0.21,0.12 -0.45,0.18 -0.72,0.18zm0.02 -0.25c0.23,0 0.43,-0.06 0.61,-0.16 0.18,-0.1 0.33,-0.25 0.43,-0.44 0.1,-0.19 0.16,-0.41 0.16,-0.66 0,-0.25 -0.06,-0.47 -0.16,-0.65 -0.1,-0.19 -0.25,-0.34 -0.43,-0.44 -0.18,-0.11 -0.38,-0.16 -0.61,-0.16 -0.23,0 -0.43,0.05 -0.61,0.16 -0.18,0.1 -0.32,0.25 -0.43,0.44 -0.1,0.18 -0.15,0.4 -0.15,0.65 0,0.25 0.05,0.47 0.15,0.66 0.11,0.19 0.25,0.34 0.43,0.44 0.18,0.1 0.38,0.16 0.61,0.16zm1.2 0.23l0 -0.97 0.05 -0.52 -0.05 -0.52 0 -2.21 0.28 0 0 4.22 -0.28 0z"/>
   <path id="_16" class="fil1" d="M81.94 30.06l0 -2.97 0.28 0 0.01 2.97 -0.29 0zm0.14 -3.69c-0.06,0 -0.12,-0.03 -0.16,-0.07 -0.05,-0.05 -0.07,-0.1 -0.07,-0.16 0,-0.07 0.02,-0.12 0.07,-0.17 0.04,-0.04 0.1,-0.07 0.16,-0.07 0.07,0 0.13,0.03 0.17,0.07 0.05,0.04 0.07,0.1 0.07,0.16 0,0.07 -0.02,0.12 -0.07,0.17 -0.04,0.04 -0.1,0.07 -0.17,0.07z"/>
   <path id="_17" class="fil1" d="M84.59 30.08c-0.29,0 -0.54,-0.06 -0.76,-0.19 -0.22,-0.13 -0.4,-0.31 -0.53,-0.54 -0.13,-0.22 -0.19,-0.48 -0.19,-0.78 0,-0.29 0.06,-0.55 0.19,-0.78 0.13,-0.22 0.31,-0.4 0.53,-0.53 0.22,-0.13 0.47,-0.19 0.76,-0.19 0.28,0 0.54,0.06 0.76,0.19 0.23,0.13 0.4,0.31 0.53,0.53 0.13,0.23 0.19,0.49 0.19,0.78 0,0.3 -0.06,0.56 -0.19,0.78 -0.13,0.23 -0.3,0.41 -0.53,0.54 -0.23,0.13 -0.48,0.19 -0.76,0.19zm0 -0.25c0.23,0 0.43,-0.06 0.61,-0.16 0.19,-0.1 0.33,-0.25 0.43,-0.44 0.1,-0.19 0.16,-0.41 0.16,-0.66 0,-0.25 -0.06,-0.47 -0.16,-0.65 -0.1,-0.19 -0.24,-0.34 -0.43,-0.44 -0.18,-0.11 -0.38,-0.16 -0.61,-0.16 -0.23,0 -0.43,0.05 -0.61,0.16 -0.18,0.1 -0.33,0.25 -0.43,0.44 -0.1,0.18 -0.16,0.4 -0.16,0.65 0,0.25 0.06,0.47 0.16,0.66 0.1,0.19 0.25,0.34 0.42,0.44 0.18,0.11 0.39,0.16 0.62,0.16z"/>
  </g>
 </g>
</svg>
