<?xml version="1.0" encoding="UTF-8"?>
<!DOCTYPE svg PUBLIC "-//W3C//DTD SVG 1.1//EN" "http://www.w3.org/Graphics/SVG/1.1/DTD/svg11.dtd">
<!-- Creator: CorelDRAW -->
<svg xmlns="http://www.w3.org/2000/svg" xml:space="preserve" width="500px" height="156px" version="1.1" style="shape-rendering:geometricPrecision; text-rendering:geometricPrecision; image-rendering:optimizeQuality; fill-rule:evenodd; clip-rule:evenodd"
viewBox="0 0 500 156.31"
 xmlns:xlink="http://www.w3.org/1999/xlink"
 xmlns:xodm="http://www.corel.com/coreldraw/odm/2003">
 <defs>
  <style type="text/css">
   <![CDATA[
    .fil0 {fill:#7B2BBE}
    .fil1 {fill:#1F1F1F;fill-rule:nonzero}
   ]]>
  </style>
 </defs>
 <g id="Camada_x0020_1">
  <metadata id="CorelCorpID_0Corel-Layer"/>
  <g id="_1245390447408">
   <polygon class="fil0" points="0,51.75 19.81,71.56 19.79,71.58 0,91.37 0,142.28 50.91,142.28 70.72,122.47 70.74,122.49 90.53,142.28 141.44,142.28 141.44,91.37 121.65,71.58 121.63,71.56 141.44,51.75 141.44,0.84 90.53,0.84 70.74,20.63 70.72,20.65 50.91,0.84 0,0.84 "/>
   <polygon class="fil1" points="156.42,81.77 156.3,2.39 174.79,2.39 218.56,55.24 209.94,55.24 209.83,2.39 231.82,2.39 231.82,81.77 213.34,81.77 169.57,28.93 178.3,28.93 178.3,81.77 "/>
   <path class="fil1" d="M287.61 83.13c-6.19,0.08 -12,-0.89 -17.4,-2.89 -5.41,-2 -10.09,-4.88 -14.06,-8.62 -3.97,-3.74 -7.03,-8.13 -9.19,-13.15 -2.15,-5.03 -3.23,-10.49 -3.23,-16.39 -0.07,-5.97 1,-11.43 3.23,-16.38 2.23,-4.96 5.31,-9.3 9.24,-13.04 3.94,-3.75 8.6,-6.64 14.01,-8.68 5.4,-2.04 11.21,-3.06 17.4,-3.06 6.51,-0.08 12.4,0.93 17.69,3 5.3,2.08 9.93,4.97 13.89,8.68 3.97,3.7 7.05,8.05 9.25,13.04 2.19,4.99 3.25,10.47 3.17,16.44 0.08,5.97 -0.98,11.47 -3.17,16.5 -2.2,5.03 -5.28,9.37 -9.25,13.04 -3.96,3.67 -8.59,6.54 -13.89,8.62 -5.29,2.08 -11.18,3.04 -17.69,2.89zm0 -18.14c3.1,-0.15 5.96,-0.76 8.57,-1.82 2.6,-1.06 4.87,-2.59 6.8,-4.59 1.93,-2 3.46,-4.38 4.59,-7.14 1.14,-2.76 1.7,-5.88 1.7,-9.36 -0.07,-3.48 -0.66,-6.61 -1.75,-9.41 -1.1,-2.8 -2.61,-5.18 -4.54,-7.14 -1.93,-1.97 -4.18,-3.5 -6.75,-4.6 -2.57,-1.09 -5.44,-1.68 -8.62,-1.75 -2.94,0.15 -5.74,0.75 -8.39,1.81 -2.64,1.06 -4.93,2.57 -6.86,4.54 -1.92,1.96 -3.42,4.34 -4.48,7.14 -1.06,2.8 -1.62,5.93 -1.7,9.41 0.08,3.4 0.64,6.52 1.7,9.36 1.06,2.83 2.57,5.23 4.54,7.2 1.97,1.96 4.23,3.49 6.8,4.59 2.57,1.1 5.37,1.68 8.39,1.76z"/>
   <path class="fil1" d="M343.63 81.77l0 -79.38 36.29 0c7.25,0 13.51,1.18 18.76,3.52 5.26,2.34 9.32,5.73 12.19,10.15 2.88,4.42 4.31,9.66 4.31,15.7 0,5.98 -1.43,11.15 -4.31,15.54 -2.87,4.38 -6.93,7.77 -12.19,10.15 -5.25,2.38 -11.51,3.57 -18.76,3.57l-23.82 0 9.98 -9.75 0 30.5 -22.45 0zm22.45 -28.12l-9.98 -10.32 22.46 0c4.68,0 8.18,-1.02 10.48,-3.06 2.31,-2.04 3.46,-4.88 3.46,-8.51 0,-3.7 -1.15,-6.57 -3.46,-8.62 -2.3,-2.04 -5.8,-3.06 -10.48,-3.06l-22.46 0 9.98 -10.32 0 43.89z"/>
   <polygon class="fil1" points="415.86,81.77 450.56,33.58 450.45,49.57 417.11,2.39 442.4,2.39 463.71,33.12 452.94,33.24 473.92,2.39 498.18,2.39 464.85,48.66 464.85,32.78 500,81.77 474.15,81.77 452.49,49.45 462.81,49.45 441.49,81.77 "/>
   <path class="fil1" d="M156.31 141.82l0 -53.66 24.07 0c6.18,0 10.94,1.24 14.26,3.72 3.32,2.48 4.98,5.86 4.98,10.15 0,2.92 -0.65,5.37 -1.95,7.36 -1.31,2 -3.06,3.53 -5.26,4.6 -2.19,1.08 -4.57,1.61 -7.13,1.61l1.38 -2.3c3.07,0 5.78,0.54 8.13,1.61 2.35,1.08 4.22,2.65 5.6,4.72 1.38,2.07 2.07,4.64 2.07,7.7 0,4.6 -1.73,8.17 -5.18,10.7 -3.45,2.53 -8.57,3.79 -15.37,3.79l-25.6 0zm7.66 -6.21l17.63 0c4.25,0 7.49,-0.71 9.74,-2.14 2.25,-1.43 3.37,-3.68 3.37,-6.75 0,-3.12 -1.12,-5.39 -3.37,-6.82 -2.25,-1.43 -5.49,-2.15 -9.74,-2.15l-18.32 0 0 -6.21 16.41 0c3.88,0 6.9,-0.71 9.04,-2.15 2.15,-1.43 3.22,-3.57 3.22,-6.44 0,-2.86 -1.07,-5 -3.22,-6.44 -2.14,-1.43 -5.16,-2.14 -9.04,-2.14l-15.72 0 0 41.24z"/>
   <polygon id="_1" class="fil1" points="213.27,141.82 213.27,84.94 220.63,84.94 220.63,141.82 "/>
   <path id="_2" class="fil1" d="M252.06 142.28c-4.09,-0.05 -7.72,-0.95 -10.89,-2.72 -3.17,-1.76 -5.66,-4.2 -7.47,-7.32 -1.82,-3.12 -2.72,-6.7 -2.72,-10.73 -0.05,-4.04 0.85,-7.61 2.72,-10.7 1.86,-3.09 4.37,-5.53 7.51,-7.32 3.15,-1.79 6.74,-2.68 10.77,-2.68 4.09,0 7.73,0.89 10.93,2.68 3.19,1.79 5.7,4.23 7.51,7.32 1.82,3.09 2.72,6.66 2.72,10.7 0,4.03 -0.9,7.61 -2.72,10.73 -1.81,3.12 -4.33,5.56 -7.55,7.32 -3.22,1.77 -6.82,2.67 -10.81,2.72zm0 -6.44c2.61,0 4.95,-0.58 7.02,-1.76 2.06,-1.17 3.69,-2.85 4.86,-5.02 1.18,-2.17 1.79,-4.69 1.84,-7.55 -0.05,-2.92 -0.66,-5.43 -1.84,-7.55 -1.17,-2.13 -2.8,-3.77 -4.86,-4.95 -2.07,-1.18 -4.41,-1.79 -7.02,-1.84 -2.61,0.05 -4.93,0.66 -6.98,1.84 -2.04,1.18 -3.68,2.82 -4.9,4.95 -1.23,2.12 -1.84,4.63 -1.84,7.55 0,2.86 0.61,5.38 1.84,7.55 1.22,2.17 2.85,3.85 4.87,5.02 2.01,1.18 4.35,1.76 7.01,1.76z"/>
   <path id="_3" class="fil1" d="M301.13 157.16c-3.73,0 -7.35,-0.53 -10.85,-1.58 -3.5,-1.04 -6.35,-2.54 -8.55,-4.48l3.53 -5.67c1.89,1.63 4.21,2.92 6.97,3.87 2.76,0.94 5.65,1.42 8.67,1.42 4.8,0 8.33,-1.13 10.58,-3.38 2.25,-2.25 3.37,-5.67 3.37,-10.27l0 -8.59 0.77 -8.05 -0.39 -8.12 0 -11.12 6.98 0 0 35.11c0,7.16 -1.79,12.42 -5.37,15.8 -3.58,3.37 -8.81,5.06 -15.71,5.06zm-0.92 -17.02c-3.94,0 -7.45,-0.83 -10.54,-2.5 -3.1,-1.66 -5.55,-3.97 -7.36,-6.93 -1.82,-2.97 -2.73,-6.39 -2.73,-10.28 0,-3.93 0.91,-7.37 2.73,-10.31 1.81,-2.94 4.26,-5.22 7.36,-6.86 3.09,-1.63 6.6,-2.45 10.54,-2.45 3.47,0 6.64,0.7 9.5,2.11 2.87,1.4 5.15,3.56 6.86,6.47 1.72,2.92 2.57,6.6 2.57,11.04 0,4.4 -0.85,8.05 -2.57,10.97 -1.71,2.91 -3.99,5.1 -6.86,6.55 -2.86,1.46 -6.03,2.19 -9.5,2.19zm0.84 -6.44c2.71,0 5.11,-0.56 7.21,-1.69 2.09,-1.12 3.74,-2.68 4.94,-4.68 1.2,-1.99 1.8,-4.29 1.8,-6.9 0,-2.6 -0.6,-4.9 -1.8,-6.9 -1.2,-1.99 -2.85,-3.53 -4.94,-4.63 -2.1,-1.1 -4.5,-1.65 -7.21,-1.65 -2.71,0 -5.12,0.55 -7.25,1.65 -2.12,1.1 -3.78,2.64 -4.98,4.63 -1.2,2 -1.8,4.3 -1.8,6.9 0,2.61 0.6,4.91 1.8,6.9 1.2,2 2.86,3.56 4.98,4.68 2.13,1.13 4.54,1.69 7.25,1.69z"/>
   <g>
    <rect class="fil0" x="343.63" y="124.94" width="17.34" height="17.34"/>
    <rect class="fil0" x="343.63" y="90.26" width="17.34" height="17.34"/>
    <rect class="fil0" x="378.31" y="124.94" width="17.34" height="17.34"/>
    <rect class="fil0" x="378.31" y="90.26" width="17.34" height="17.34"/>
    <rect class="fil0" x="412.99" y="124.94" width="17.34" height="17.34"/>
    <rect class="fil0" x="412.99" y="90.26" width="17.34" height="17.34"/>
    <rect class="fil0" x="447.67" y="124.94" width="17.34" height="17.34"/>
    <rect class="fil0" x="482.35" y="124.94" width="17.34" height="17.34"/>
    <rect class="fil0" x="447.67" y="90.26" width="17.34" height="17.34"/>
    <rect class="fil0" x="482.35" y="90.26" width="17.34" height="17.34"/>
    <rect class="fil0" x="360.97" y="107.6" width="17.34" height="17.34"/>
    <rect class="fil0" x="395.65" y="107.6" width="17.34" height="17.34"/>
    <rect class="fil0" x="430.33" y="107.6" width="17.34" height="17.34"/>
    <rect class="fil0" x="465.01" y="107.6" width="17.34" height="17.34"/>
   </g>
  </g>
 </g>
</svg>
