<?xml version="1.0" encoding="UTF-8"?>
<!DOCTYPE svg PUBLIC "-//W3C//DTD SVG 1.1//EN" "http://www.w3.org/Graphics/SVG/1.1/DTD/svg11.dtd">
<!-- Creator: CorelDRAW -->
<svg xmlns="http://www.w3.org/2000/svg" xml:space="preserve" width="300px" height="49px" version="1.1" style="shape-rendering:geometricPrecision; text-rendering:geometricPrecision; image-rendering:optimizeQuality; fill-rule:evenodd; clip-rule:evenodd"
viewBox="0 0 300 49.39"
 xmlns:xlink="http://www.w3.org/1999/xlink"
 xmlns:xodm="http://www.corel.com/coreldraw/odm/2003">
 <defs>
  <style type="text/css">
   <![CDATA[
    .fil0 {fill:#ED145B}
    .fil1 {fill:#1F1F1F;fill-rule:nonzero}
    .fil2 {fill:#2C2C2C;fill-rule:nonzero}
   ]]>
  </style>
 </defs>
 <g id="Camada_x0020_1">
  <metadata id="CorelCorpID_0Corel-Layer"/>
  <g id="_2211069686592">
   <polygon class="fil0" points="0,17.78 6.92,24.69 6.91,24.7 0,31.61 0,49.39 17.78,49.39 24.7,42.47 24.7,42.48 31.61,49.39 49.39,49.39 49.39,31.61 42.48,24.7 42.48,24.69 49.39,17.78 49.39,0 31.61,0 24.7,6.91 24.7,6.92 17.78,0 0,0 "/>
   <path class="fil1" d="M61.89 48.79l0 -36.23 15.64 0c4.03,0 7.17,0.81 9.39,2.43 2.23,1.62 3.34,3.91 3.34,6.88 0,1.97 -0.46,3.63 -1.37,4.97 -0.92,1.35 -2.16,2.37 -3.73,3.06 -1.57,0.68 -3.29,1.03 -5.15,1.03l0.88 -1.24c2.31,0 4.31,0.35 5.98,1.06 1.67,0.71 2.98,1.76 3.91,3.16 0.93,1.39 1.4,3.13 1.4,5.2 0,3.07 -1.14,5.45 -3.4,7.14 -2.26,1.69 -5.66,2.54 -10.22,2.54l-16.67 0zm3.83 -3.16l12.79 0c3.17,0 5.61,-0.54 7.3,-1.63 1.69,-1.09 2.53,-2.82 2.53,-5.2 0,-2.35 -0.84,-4.06 -2.53,-5.15 -1.69,-1.09 -4.13,-1.63 -7.3,-1.63l-13.2 0 0 -3.16 11.96 0c2.9,0 5.15,-0.55 6.75,-1.66 1.61,-1.1 2.41,-2.74 2.41,-4.91 0,-2.21 -0.8,-3.86 -2.41,-4.95 -1.6,-1.08 -3.85,-1.63 -6.75,-1.63l-11.55 0 0 29.92z"/>
   <path id="_1" class="fil1" d="M100.2 48.79l-0.05 -27.18 3.67 0 0 27.18 -3.62 0zm1.81 -33.18c-0.76,0 -1.4,-0.26 -1.92,-0.78 -0.51,-0.51 -0.77,-1.14 -0.77,-1.86 0,-0.73 0.26,-1.34 0.77,-1.84 0.52,-0.5 1.16,-0.75 1.92,-0.75 0.76,0 1.4,0.24 1.91,0.72 0.52,0.49 0.78,1.09 0.78,1.82 0,0.76 -0.25,1.4 -0.75,1.91 -0.5,0.52 -1.15,0.78 -1.94,0.78z"/>
   <path id="_2" class="fil1" d="M125.15 49.05c-2.66,-0.04 -5.02,-0.64 -7.09,-1.81 -2.07,-1.18 -3.7,-2.81 -4.9,-4.9 -1.19,-2.08 -1.78,-4.47 -1.78,-7.17 -0.04,-2.72 0.56,-5.11 1.78,-7.16 1.23,-2.06 2.87,-3.68 4.92,-4.87 2.06,-1.19 4.41,-1.79 7.07,-1.79 2.69,0 5.07,0.6 7.14,1.79 2.07,1.19 3.7,2.82 4.89,4.89 1.19,2.07 1.79,4.45 1.79,7.14 0.03,2.7 -0.55,5.09 -1.74,7.17 -1.19,2.09 -2.83,3.72 -4.94,4.9 -2.1,1.17 -4.49,1.77 -7.14,1.81zm0 -3.26c1.96,0 3.71,-0.44 5.23,-1.32 1.51,-0.88 2.71,-2.13 3.59,-3.73 0.88,-1.61 1.34,-3.46 1.37,-5.57 -0.03,-2.13 -0.49,-4 -1.37,-5.59 -0.88,-1.58 -2.08,-2.82 -3.59,-3.7 -1.52,-0.88 -3.27,-1.32 -5.23,-1.32 -1.9,0 -3.61,0.44 -5.13,1.32 -1.52,0.88 -2.72,2.12 -3.62,3.7 -0.9,1.59 -1.36,3.46 -1.4,5.59 0.04,2.11 0.5,3.96 1.4,5.57 0.9,1.6 2.1,2.85 3.6,3.75 1.5,0.9 3.21,1.33 5.15,1.3z"/>
   <polygon id="_3" class="fil2" points="145.69,48.79 145.69,12.56 152.63,12.56 174.01,38.64 170.7,38.69 170.64,12.56 178.93,12.56 178.93,48.79 172.04,48.79 150.61,22.7 153.98,22.65 153.98,48.79 "/>
   <path id="_4" class="fil2" d="M205.02 49.36c-2.8,0 -5.41,-0.46 -7.85,-1.37 -2.43,-0.92 -4.53,-2.22 -6.31,-3.91 -1.78,-1.69 -3.14,-3.69 -4.09,-5.98 -0.95,-2.3 -1.44,-4.77 -1.48,-7.43 0,-2.69 0.5,-5.17 1.48,-7.43 0.98,-2.26 2.36,-4.24 4.14,-5.95 1.78,-1.71 3.87,-3.03 6.29,-3.96 2.41,-0.93 5.02,-1.38 7.82,-1.35 2.89,-0.03 5.54,0.42 7.94,1.35 2.4,0.93 4.49,2.24 6.26,3.94 1.78,1.69 3.16,3.66 4.14,5.92 0.99,2.26 1.46,4.76 1.43,7.48 0.03,2.69 -0.44,5.19 -1.43,7.48 -0.98,2.3 -2.36,4.28 -4.14,5.95 -1.77,1.68 -3.86,2.98 -6.26,3.91 -2.4,0.93 -5.05,1.38 -7.94,1.35zm0 -7.04c1.65,-0.04 3.17,-0.33 4.55,-0.88 1.38,-0.55 2.58,-1.35 3.6,-2.38 1.02,-1.04 1.81,-2.26 2.38,-3.68 0.57,-1.41 0.87,-2.98 0.91,-4.71 -0.04,-1.72 -0.34,-3.29 -0.91,-4.71 -0.57,-1.41 -1.36,-2.64 -2.38,-3.67 -1.02,-1.04 -2.22,-1.84 -3.6,-2.41 -1.38,-0.57 -2.9,-0.85 -4.55,-0.85 -1.59,0.03 -3.08,0.32 -4.46,0.88 -1.38,0.55 -2.58,1.34 -3.59,2.38 -1.02,1.03 -1.81,2.25 -2.38,3.64 -0.57,1.4 -0.88,2.98 -0.91,4.74 0.03,1.69 0.34,3.25 0.91,4.69 0.57,1.43 1.36,2.66 2.38,3.7 1.01,1.03 2.2,1.83 3.57,2.4 1.36,0.57 2.85,0.86 4.48,0.86z"/>
   <path id="_5" class="fil2" d="M231.21 48.79l0 -36.23 15.68 0c3.24,0 6.04,0.52 8.39,1.57 2.34,1.06 4.15,2.57 5.43,4.53 1.28,1.97 1.92,4.32 1.92,7.04 0,2.69 -0.64,5.02 -1.92,6.99 -1.28,1.97 -3.09,3.48 -5.43,4.53 -2.35,1.05 -5.15,1.58 -8.39,1.58l-11.02 0 3.72 -3.78 0 13.77 -8.38 0zm8.38 -12.84l-3.72 -3.98 10.55 0c2.59,0 4.52,-0.56 5.8,-1.66 1.28,-1.1 1.92,-2.64 1.92,-4.61 0,-2 -0.64,-3.55 -1.92,-4.66 -1.28,-1.1 -3.21,-1.65 -5.8,-1.65l-10.55 0 3.72 -3.99 0 20.55z"/>
   <polygon id="_6" class="fil2" points="263.35,48.79 278.93,27.31 278.93,33.41 264.02,12.56 273.55,12.56 283.85,27.1 279.86,27.15 290.01,12.56 299.12,12.56 284.31,33.05 284.31,27.05 300,48.79 290.32,48.79 279.66,33.41 283.49,33.41 272.98,48.79 "/>
  </g>
 </g>
</svg>
