<?xml version="1.0" encoding="UTF-8"?>
<!DOCTYPE svg PUBLIC "-//W3C//DTD SVG 1.1//EN" "http://www.w3.org/Graphics/SVG/1.1/DTD/svg11.dtd">
<!-- Creator: CorelDRAW -->
<svg xmlns="http://www.w3.org/2000/svg" xml:space="preserve" width="200px" height="36px" version="1.1" style="shape-rendering:geometricPrecision; text-rendering:geometricPrecision; image-rendering:optimizeQuality; fill-rule:evenodd; clip-rule:evenodd"
viewBox="0 0 200 36.21"
 xmlns:xlink="http://www.w3.org/1999/xlink"
 xmlns:xodm="http://www.corel.com/coreldraw/odm/2003">
 <defs>
  <style type="text/css">
   <![CDATA[
    .fil0 {fill:#ED145B}
    .fil1 {fill:#FDFFF9;fill-rule:nonzero}
   ]]>
  </style>
 </defs>
 <g id="Camada_x0020_1">
  <metadata id="CorelCorpID_0Corel-Layer"/>
  <g id="_2887693419840">
   <polygon class="fil0" points="0,13.93 5.07,19 5.06,19 0,24.07 0,37.1 13.03,37.1 18.1,32.03 18.11,32.04 23.17,37.1 36.21,37.1 36.21,24.07 31.14,19 31.14,19 36.21,13.93 36.21,0.89 23.17,0.89 18.11,5.96 18.1,5.97 13.03,0.89 0,0.89 "/>
   <g>
    <polygon class="fil1" points="45.06,14.54 45.04,2.37 47.88,2.37 54.59,10.47 53.27,10.47 53.25,2.37 56.63,2.37 56.63,14.54 53.79,14.54 47.08,6.44 48.42,6.44 48.42,14.54 "/>
    <path id="_1" class="fil1" d="M65.18 14.75c-0.95,0.02 -1.84,-0.13 -2.66,-0.44 -0.83,-0.31 -1.55,-0.75 -2.16,-1.32 -0.61,-0.58 -1.08,-1.25 -1.41,-2.02 -0.33,-0.77 -0.5,-1.61 -0.5,-2.51 -0.01,-0.92 0.16,-1.76 0.5,-2.52 0.34,-0.76 0.81,-1.42 1.42,-2 0.6,-0.57 1.32,-1.01 2.15,-1.33 0.82,-0.31 1.71,-0.47 2.66,-0.47 1,-0.01 1.91,0.15 2.72,0.46 0.81,0.32 1.52,0.77 2.13,1.33 0.61,0.57 1.08,1.24 1.42,2.01 0.33,0.76 0.49,1.6 0.48,2.52 0.01,0.91 -0.15,1.76 -0.48,2.53 -0.34,0.77 -0.81,1.44 -1.42,2 -0.61,0.56 -1.32,1 -2.13,1.32 -0.81,0.32 -1.72,0.47 -2.72,0.44zm0 -2.78c0.48,-0.02 0.92,-0.12 1.32,-0.28 0.4,-0.16 0.75,-0.4 1.04,-0.7 0.3,-0.31 0.53,-0.68 0.71,-1.1 0.17,-0.42 0.26,-0.9 0.26,-1.43 -0.01,-0.54 -0.1,-1.02 -0.27,-1.45 -0.17,-0.43 -0.4,-0.79 -0.7,-1.09 -0.29,-0.3 -0.64,-0.54 -1.03,-0.71 -0.4,-0.17 -0.84,-0.26 -1.33,-0.27 -0.45,0.03 -0.88,0.12 -1.28,0.28 -0.41,0.16 -0.76,0.4 -1.05,0.7 -0.3,0.3 -0.53,0.66 -0.69,1.09 -0.16,0.43 -0.25,0.91 -0.26,1.45 0.01,0.52 0.1,1 0.26,1.43 0.16,0.44 0.39,0.8 0.69,1.11 0.31,0.3 0.65,0.53 1.05,0.7 0.39,0.17 0.82,0.26 1.28,0.27z"/>
    <path id="_2" class="fil1" d="M73.78 14.54l0 -12.17 5.56 0c1.11,0 2.07,0.18 2.88,0.54 0.81,0.36 1.43,0.88 1.87,1.55 0.44,0.68 0.66,1.49 0.66,2.41 0,0.92 -0.22,1.71 -0.66,2.39 -0.44,0.67 -1.06,1.19 -1.87,1.55 -0.81,0.37 -1.77,0.55 -2.88,0.55l-3.65 0 1.53 -1.49 0 4.67 -3.44 0zm3.44 -4.31l-1.53 -1.58 3.44 0c0.72,0 1.26,-0.16 1.61,-0.47 0.36,-0.31 0.53,-0.75 0.53,-1.31 0,-0.56 -0.17,-1 -0.53,-1.32 -0.35,-0.31 -0.89,-0.47 -1.61,-0.47l-3.44 0 1.53 -1.58 0 6.73z"/>
    <polygon id="_3" class="fil1" points="84.86,14.54 90.18,7.15 90.16,9.6 85.05,2.37 88.92,2.37 92.2,7.08 90.54,7.1 93.76,2.37 97.48,2.37 92.37,9.47 92.37,7.03 97.76,14.54 93.8,14.54 90.47,9.59 92.06,9.59 88.79,14.54 "/>
    <polygon class="fil1" points="48.66,32.49 44.52,20.32 45.46,20.32 49.39,31.95 48.92,31.95 52.98,20.32 53.83,20.32 57.84,31.95 57.39,31.95 61.36,20.32 62.23,20.32 58.11,32.49 57.17,32.49 53.27,21.24 53.5,21.24 49.6,32.49 "/>
    <path id="_1_0" class="fil1" d="M67.5 32.56c-0.92,0 -1.73,-0.19 -2.43,-0.59 -0.7,-0.39 -1.25,-0.94 -1.65,-1.63 -0.4,-0.7 -0.6,-1.49 -0.6,-2.39 0,-0.9 0.19,-1.7 0.56,-2.39 0.38,-0.69 0.9,-1.23 1.56,-1.62 0.66,-0.4 1.4,-0.6 2.23,-0.6 0.82,0 1.56,0.2 2.22,0.58 0.65,0.38 1.16,0.92 1.54,1.61 0.38,0.69 0.57,1.48 0.57,2.39 0,0.03 -0.01,0.07 -0.01,0.11 -0.01,0.04 -0.01,0.09 -0.01,0.13l-8.02 0 0 -0.68 7.55 0 -0.35 0.34c0.01,-0.71 -0.13,-1.35 -0.44,-1.91 -0.31,-0.56 -0.72,-1 -1.24,-1.32 -0.53,-0.32 -1.13,-0.48 -1.81,-0.48 -0.67,0 -1.27,0.16 -1.8,0.48 -0.53,0.32 -0.95,0.76 -1.25,1.32 -0.3,0.56 -0.45,1.2 -0.45,1.92l0 0.16c0,0.74 0.17,1.4 0.5,1.97 0.33,0.58 0.78,1.02 1.36,1.34 0.58,0.32 1.24,0.48 1.99,0.48 0.57,0 1.12,-0.1 1.62,-0.31 0.51,-0.21 0.93,-0.53 1.28,-0.96l0.5 0.57c-0.39,0.49 -0.89,0.86 -1.48,1.11 -0.6,0.25 -1.25,0.37 -1.94,0.37z"/>
    <path id="_2_1" class="fil1" d="M78.75 32.56c-0.8,0 -1.52,-0.18 -2.17,-0.55 -0.64,-0.37 -1.15,-0.91 -1.53,-1.6 -0.37,-0.7 -0.56,-1.52 -0.56,-2.46 0,-0.96 0.19,-1.78 0.56,-2.47 0.38,-0.68 0.89,-1.21 1.53,-1.58 0.65,-0.37 1.37,-0.56 2.17,-0.56 0.86,0 1.63,0.2 2.3,0.59 0.68,0.39 1.22,0.93 1.6,1.62 0.39,0.68 0.59,1.49 0.59,2.4 0,0.91 -0.2,1.71 -0.59,2.4 -0.38,0.7 -0.92,1.24 -1.6,1.63 -0.67,0.39 -1.44,0.58 -2.3,0.58zm-4.56 -0.07l0 -12.9 0.87 0 0 6.76 -0.17 1.59 0.14 1.58 0 2.97 -0.84 0zm4.51 -0.71c0.69,0 1.32,-0.16 1.88,-0.48 0.55,-0.32 0.99,-0.77 1.31,-1.35 0.32,-0.58 0.48,-1.24 0.48,-2 0,-0.76 -0.16,-1.43 -0.48,-2 -0.32,-0.58 -0.76,-1.03 -1.31,-1.34 -0.56,-0.32 -1.19,-0.48 -1.88,-0.48 -0.7,0 -1.32,0.16 -1.87,0.48 -0.55,0.31 -0.99,0.76 -1.31,1.34 -0.32,0.57 -0.47,1.24 -0.47,2 0,0.76 0.15,1.42 0.47,2 0.32,0.58 0.76,1.03 1.31,1.35 0.55,0.32 1.17,0.48 1.87,0.48z"/>
    <path id="_3_2" class="fil1" d="M99.24 32.67l-6.65 -6.99c-0.4,-0.43 -0.72,-0.81 -0.95,-1.14 -0.23,-0.32 -0.39,-0.62 -0.48,-0.91 -0.09,-0.28 -0.13,-0.58 -0.13,-0.89 0,-0.5 0.12,-0.94 0.36,-1.31 0.23,-0.37 0.57,-0.66 1,-0.87 0.44,-0.21 0.95,-0.31 1.53,-0.31 0.54,0 1.01,0.09 1.41,0.28 0.4,0.18 0.71,0.45 0.94,0.79 0.22,0.34 0.32,0.75 0.32,1.24 0,0.43 -0.1,0.83 -0.3,1.19 -0.2,0.37 -0.54,0.73 -1.02,1.1 -0.47,0.36 -1.12,0.78 -1.94,1.24 -0.77,0.44 -1.37,0.84 -1.81,1.2 -0.44,0.36 -0.75,0.71 -0.93,1.06 -0.18,0.34 -0.27,0.71 -0.27,1.12 0,0.47 0.13,0.89 0.4,1.25 0.26,0.36 0.63,0.64 1.1,0.83 0.47,0.2 1.02,0.3 1.64,0.3 0.84,0 1.58,-0.17 2.23,-0.51 0.65,-0.35 1.2,-0.86 1.64,-1.56 0.44,-0.7 0.76,-1.57 0.95,-2.63l0.72 0.23c-0.22,1.15 -0.59,2.11 -1.1,2.88 -0.51,0.77 -1.14,1.35 -1.9,1.74 -0.75,0.39 -1.61,0.58 -2.57,0.58 -0.77,0 -1.45,-0.13 -2.04,-0.38 -0.6,-0.26 -1.07,-0.61 -1.41,-1.07 -0.34,-0.46 -0.52,-0.99 -0.52,-1.59 0,-0.5 0.11,-0.96 0.34,-1.39 0.21,-0.42 0.58,-0.84 1.08,-1.27 0.51,-0.42 1.18,-0.87 2.03,-1.34 0.74,-0.43 1.33,-0.8 1.75,-1.12 0.43,-0.31 0.73,-0.61 0.91,-0.9 0.17,-0.29 0.26,-0.6 0.26,-0.94 0,-0.5 -0.16,-0.9 -0.5,-1.2 -0.33,-0.3 -0.8,-0.45 -1.41,-0.45 -0.65,0 -1.16,0.16 -1.53,0.49 -0.36,0.33 -0.54,0.77 -0.54,1.32 0,0.25 0.04,0.49 0.12,0.73 0.08,0.23 0.23,0.49 0.44,0.77 0.22,0.28 0.52,0.64 0.9,1.05l6.45 6.8 -0.52 0.58z"/>
    <path id="_4" class="fil1" d="M104.51 32.49l5.6 -12.17 0.89 0 5.6 12.17 -0.96 0 -5.29 -11.62 0.39 0 -5.27 11.62 -0.96 0zm2.05 -3.42l0.3 -0.75 7.29 0 0.29 0.75 -7.88 0z"/>
    <path id="_5" class="fil1" d="M123.08 32.56c-0.79,0 -1.52,-0.18 -2.16,-0.55 -0.64,-0.37 -1.15,-0.91 -1.53,-1.6 -0.38,-0.68 -0.57,-1.5 -0.57,-2.46 0,-0.95 0.19,-1.77 0.57,-2.46 0.38,-0.69 0.89,-1.22 1.53,-1.59 0.64,-0.37 1.37,-0.56 2.16,-0.56 0.86,0 1.63,0.2 2.31,0.59 0.68,0.39 1.21,0.93 1.6,1.62 0.39,0.7 0.58,1.5 0.58,2.4 0,0.91 -0.19,1.71 -0.58,2.4 -0.39,0.7 -0.92,1.24 -1.6,1.63 -0.68,0.39 -1.45,0.58 -2.31,0.58zm-4.55 3.31l0 -12.46 0.83 0 0 2.98 -0.14 1.58 0.18 1.58 0 6.32 -0.87 0zm4.5 -4.09c0.7,0 1.32,-0.16 1.88,-0.48 0.56,-0.32 1,-0.77 1.31,-1.35 0.32,-0.58 0.48,-1.24 0.48,-2 0,-0.76 -0.16,-1.43 -0.48,-2 -0.31,-0.58 -0.75,-1.03 -1.31,-1.34 -0.56,-0.32 -1.18,-0.48 -1.88,-0.48 -0.69,0 -1.32,0.16 -1.87,0.48 -0.55,0.31 -0.98,0.76 -1.3,1.34 -0.32,0.57 -0.48,1.24 -0.48,2 0,0.76 0.16,1.42 0.48,2 0.32,0.58 0.75,1.03 1.3,1.35 0.55,0.32 1.18,0.48 1.87,0.48z"/>
    <path id="_6" class="fil1" d="M134.83 32.56c-0.8,0 -1.53,-0.18 -2.17,-0.55 -0.64,-0.37 -1.15,-0.91 -1.53,-1.6 -0.38,-0.68 -0.57,-1.5 -0.57,-2.46 0,-0.95 0.19,-1.77 0.57,-2.46 0.38,-0.69 0.89,-1.22 1.53,-1.59 0.64,-0.37 1.37,-0.56 2.17,-0.56 0.85,0 1.62,0.2 2.3,0.59 0.68,0.39 1.21,0.93 1.6,1.62 0.39,0.7 0.58,1.5 0.58,2.4 0,0.91 -0.19,1.71 -0.58,2.4 -0.39,0.7 -0.92,1.24 -1.6,1.63 -0.68,0.39 -1.45,0.58 -2.3,0.58zm-4.56 3.31l0 -12.46 0.83 0 0 2.98 -0.14 1.58 0.18 1.58 0 6.32 -0.87 0zm4.5 -4.09c0.7,0 1.32,-0.16 1.88,-0.48 0.56,-0.32 1,-0.77 1.31,-1.35 0.32,-0.58 0.48,-1.24 0.48,-2 0,-0.76 -0.16,-1.43 -0.48,-2 -0.31,-0.58 -0.75,-1.03 -1.31,-1.34 -0.56,-0.32 -1.18,-0.48 -1.88,-0.48 -0.69,0 -1.32,0.16 -1.87,0.48 -0.55,0.31 -0.98,0.76 -1.3,1.34 -0.32,0.57 -0.48,1.24 -0.48,2 0,0.76 0.16,1.42 0.48,2 0.32,0.58 0.75,1.03 1.3,1.35 0.55,0.32 1.18,0.48 1.87,0.48z"/>
    <path id="_7" class="fil1" d="M149.96 32.58c-0.91,0 -1.76,-0.15 -2.57,-0.46 -0.8,-0.31 -1.43,-0.7 -1.87,-1.19l0.4 -0.66c0.42,0.43 0.99,0.79 1.72,1.08 0.72,0.3 1.49,0.45 2.3,0.45 0.81,0 1.48,-0.11 1.99,-0.32 0.52,-0.22 0.9,-0.51 1.15,-0.86 0.25,-0.36 0.37,-0.76 0.37,-1.21 0,-0.52 -0.14,-0.93 -0.41,-1.25 -0.28,-0.31 -0.65,-0.56 -1.1,-0.75 -0.45,-0.18 -0.94,-0.34 -1.48,-0.47 -0.53,-0.12 -1.07,-0.26 -1.62,-0.4 -0.54,-0.15 -1.04,-0.34 -1.49,-0.57 -0.45,-0.23 -0.82,-0.55 -1.09,-0.95 -0.27,-0.4 -0.41,-0.92 -0.41,-1.55 0,-0.58 0.15,-1.12 0.46,-1.6 0.3,-0.49 0.77,-0.89 1.4,-1.19 0.64,-0.3 1.46,-0.45 2.46,-0.45 0.67,0 1.33,0.1 1.99,0.3 0.65,0.19 1.21,0.46 1.68,0.8l-0.33 0.71c-0.51,-0.35 -1.06,-0.61 -1.65,-0.77 -0.58,-0.17 -1.15,-0.26 -1.69,-0.26 -0.78,0 -1.42,0.11 -1.93,0.34 -0.51,0.21 -0.89,0.51 -1.13,0.87 -0.25,0.37 -0.37,0.78 -0.37,1.23 0,0.52 0.14,0.94 0.41,1.25 0.27,0.31 0.63,0.56 1.09,0.75 0.45,0.18 0.95,0.34 1.49,0.47 0.55,0.13 1.09,0.26 1.62,0.41 0.53,0.14 1.03,0.33 1.48,0.56 0.45,0.24 0.81,0.55 1.09,0.94 0.28,0.4 0.42,0.91 0.42,1.53 0,0.57 -0.16,1.1 -0.47,1.59 -0.31,0.5 -0.79,0.89 -1.43,1.19 -0.65,0.29 -1.47,0.44 -2.48,0.44z"/>
    <path id="_8" class="fil1" d="M159.71 32.56c-0.79,0 -1.41,-0.22 -1.83,-0.66 -0.42,-0.44 -0.64,-1.04 -0.64,-1.81l0 -8.66 0.88 0 0 8.58c0,0.58 0.14,1.02 0.43,1.34 0.29,0.31 0.71,0.47 1.25,0.47 0.57,0 1.04,-0.17 1.41,-0.51l0.37 0.61c-0.24,0.22 -0.52,0.38 -0.85,0.49 -0.33,0.1 -0.67,0.15 -1.02,0.15zm-4.13 -8.4l0 -0.75 5.42 0 0 0.75 -5.42 0z"/>
    <path id="_9" class="fil1" d="M167.68 32.56c-0.78,0 -1.45,-0.14 -2.02,-0.42 -0.56,-0.29 -1,-0.72 -1.31,-1.29 -0.31,-0.57 -0.46,-1.28 -0.46,-2.13l0 -5.31 0.87 0 0 5.24c0,1.02 0.26,1.8 0.78,2.33 0.52,0.53 1.26,0.8 2.21,0.8 0.68,0 1.28,-0.14 1.77,-0.43 0.5,-0.29 0.89,-0.7 1.15,-1.23 0.27,-0.53 0.4,-1.15 0.4,-1.87l0 -4.84 0.87 0 0 9.08 -0.83 0 0 -2.52 0.12 0.3c-0.27,0.7 -0.71,1.26 -1.33,1.68 -0.62,0.41 -1.36,0.61 -2.22,0.61z"/>
    <path id="_10" class="fil1" d="M179.13 32.56c-0.85,0 -1.61,-0.19 -2.29,-0.58 -0.68,-0.39 -1.22,-0.93 -1.61,-1.63 -0.4,-0.69 -0.59,-1.49 -0.59,-2.4 0,-0.91 0.19,-1.72 0.59,-2.4 0.39,-0.69 0.93,-1.23 1.61,-1.62 0.68,-0.39 1.44,-0.59 2.29,-0.59 0.79,0 1.52,0.19 2.16,0.56 0.64,0.37 1.15,0.9 1.53,1.58 0.38,0.69 0.57,1.51 0.57,2.47 0,0.94 -0.19,1.76 -0.56,2.46 -0.37,0.69 -0.88,1.23 -1.52,1.6 -0.65,0.37 -1.37,0.55 -2.18,0.55zm0.05 -0.78c0.69,0 1.32,-0.16 1.87,-0.48 0.55,-0.32 0.98,-0.77 1.3,-1.35 0.32,-0.58 0.48,-1.24 0.48,-2 0,-0.76 -0.16,-1.43 -0.48,-2 -0.32,-0.58 -0.75,-1.03 -1.3,-1.34 -0.55,-0.32 -1.18,-0.48 -1.87,-0.48 -0.7,0 -1.32,0.16 -1.87,0.48 -0.55,0.31 -0.99,0.76 -1.31,1.34 -0.32,0.57 -0.47,1.24 -0.47,2 0,0.76 0.15,1.42 0.47,2 0.32,0.58 0.76,1.03 1.31,1.35 0.55,0.32 1.17,0.48 1.87,0.48zm3.67 0.71l0 -2.97 0.15 -1.58 -0.17 -1.59 0 -6.76 0.87 0 0 12.9 -0.85 0z"/>
    <path id="_11" class="fil1" d="M187.37 32.49l0 -9.08 0.85 0 0.02 9.08 -0.87 0zm0.43 -11.28c-0.19,0 -0.36,-0.07 -0.5,-0.21 -0.14,-0.14 -0.21,-0.3 -0.21,-0.49 0,-0.2 0.07,-0.36 0.21,-0.5 0.14,-0.14 0.31,-0.21 0.5,-0.21 0.21,0 0.38,0.06 0.52,0.2 0.13,0.13 0.2,0.3 0.2,0.49 0,0.2 -0.07,0.37 -0.2,0.51 -0.14,0.14 -0.31,0.21 -0.52,0.21z"/>
    <path id="_12" class="fil1" d="M195.46 32.56c-0.87,0 -1.65,-0.19 -2.33,-0.59 -0.67,-0.39 -1.21,-0.94 -1.6,-1.63 -0.4,-0.7 -0.6,-1.49 -0.6,-2.39 -0.01,-0.9 0.19,-1.7 0.59,-2.39 0.4,-0.69 0.94,-1.23 1.61,-1.62 0.68,-0.4 1.46,-0.6 2.33,-0.6 0.87,0 1.64,0.2 2.33,0.6 0.68,0.39 1.22,0.93 1.61,1.62 0.38,0.69 0.58,1.49 0.58,2.39 0.01,0.9 -0.18,1.69 -0.58,2.39 -0.39,0.69 -0.93,1.24 -1.62,1.63 -0.69,0.4 -1.47,0.59 -2.32,0.59zm0 -0.78c0.69,0 1.32,-0.16 1.87,-0.48 0.56,-0.32 1,-0.77 1.31,-1.35 0.31,-0.58 0.47,-1.24 0.49,-2 -0.02,-0.76 -0.18,-1.43 -0.49,-2 -0.31,-0.58 -0.75,-1.03 -1.31,-1.34 -0.55,-0.32 -1.18,-0.49 -1.87,-0.5 -0.7,0.01 -1.32,0.18 -1.87,0.5 -0.55,0.31 -0.99,0.76 -1.31,1.34 -0.32,0.57 -0.48,1.24 -0.49,2 0.01,0.76 0.17,1.42 0.49,2 0.32,0.58 0.75,1.04 1.3,1.36 0.54,0.33 1.17,0.48 1.88,0.47z"/>
   </g>
  </g>
 </g>
</svg>
