<?xml version="1.0" encoding="UTF-8"?>
<!DOCTYPE svg PUBLIC "-//W3C//DTD SVG 1.1//EN" "http://www.w3.org/Graphics/SVG/1.1/DTD/svg11.dtd">
<!-- Creator: CorelDRAW -->
<svg xmlns="http://www.w3.org/2000/svg" xml:space="preserve" width="700px" height="212px" version="1.1" style="shape-rendering:geometricPrecision; text-rendering:geometricPrecision; image-rendering:optimizeQuality; fill-rule:evenodd; clip-rule:evenodd"
viewBox="0 0 700 212.31"
 xmlns:xlink="http://www.w3.org/1999/xlink"
 xmlns:xodm="http://www.corel.com/coreldraw/odm/2003">
 <defs>
  <style type="text/css">
   <![CDATA[
    .fil0 {fill:#ED145B}
    .fil1 {fill:#FDFFF9;fill-rule:nonzero}
   ]]>
  </style>
 </defs>
 <g id="Camada_x0020_1">
  <metadata id="CorelCorpID_0Corel-Layer"/>
  <g id="_2276835894016">
   <g>
    <polygon class="fil0" points="0,0.84 0,153.02 61.02,153.02 61.02,152.99 61.02,122.88 76.07,137.94 91.16,153.02 152.18,153.02 152.18,0.84 91.16,0.84 91.16,0.88 91.16,30.99 76.1,15.93 61.02,0.84 "/>
    <g>
     <rect class="fil0" x="182.6" y="0.84" width="152.18" height="152.18"/>
     <polygon class="fil0" points="365.21,0.84 365.21,153.02 486.96,153.02 486.96,153 486.96,122.87 486.96,122.59 517.1,122.59 517.23,122.72 517.39,122.88 517.39,0.84 "/>
    </g>
    <polygon class="fil0" points="547.82,55.62 569.13,76.93 569.11,76.95 547.82,98.25 547.82,153.02 602.6,153.02 623.91,131.71 623.93,131.73 645.22,153.02 700,153.02 700,98.25 678.71,76.95 678.69,76.93 700,55.62 700,0.84 645.22,0.84 623.93,22.14 623.91,22.16 602.6,0.84 547.82,0.84 "/>
   </g>
   <polygon class="fil1" points="91.2,205.42 91.16,177.53 97.65,177.53 113.03,196.1 110.01,196.1 109.97,177.53 117.7,177.53 117.7,205.42 111.2,205.42 95.82,186.85 98.89,186.85 98.89,205.42 "/>
   <path id="_1" class="fil1" d="M137.3 205.9c-2.18,0.03 -4.22,-0.31 -6.11,-1.02 -1.91,-0.7 -3.55,-1.71 -4.95,-3.03 -1.39,-1.31 -2.47,-2.85 -3.22,-4.62 -0.76,-1.76 -1.14,-3.68 -1.14,-5.76 -0.03,-2.09 0.35,-4.01 1.14,-5.75 0.78,-1.74 1.86,-3.27 3.24,-4.59 1.39,-1.31 3.02,-2.33 4.93,-3.04 1.89,-0.72 3.93,-1.08 6.11,-1.08 2.29,-0.03 4.36,0.32 6.22,1.06 1.86,0.73 3.48,1.74 4.88,3.04 1.39,1.31 2.48,2.83 3.25,4.59 0.77,1.75 1.14,3.68 1.11,5.77 0.03,2.1 -0.34,4.04 -1.11,5.8 -0.77,1.77 -1.86,3.3 -3.25,4.58 -1.4,1.29 -3.02,2.3 -4.88,3.03 -1.86,0.73 -3.93,1.07 -6.22,1.02zm0 -6.38c1.09,-0.05 2.09,-0.26 3.01,-0.63 0.92,-0.38 1.71,-0.91 2.39,-1.62 0.68,-0.7 1.22,-1.54 1.61,-2.51 0.4,-0.97 0.6,-2.06 0.6,-3.29 -0.02,-1.22 -0.23,-2.32 -0.62,-3.3 -0.38,-0.99 -0.91,-1.82 -1.59,-2.51 -0.68,-0.69 -1.47,-1.23 -2.37,-1.62 -0.9,-0.38 -1.91,-0.59 -3.03,-0.61 -1.03,0.05 -2.02,0.26 -2.95,0.63 -0.93,0.37 -1.73,0.91 -2.41,1.6 -0.68,0.69 -1.2,1.52 -1.57,2.51 -0.37,0.98 -0.57,2.08 -0.6,3.3 0.03,1.2 0.23,2.3 0.6,3.29 0.37,1 0.9,1.84 1.59,2.53 0.69,0.69 1.49,1.23 2.39,1.62 0.91,0.38 1.89,0.59 2.95,0.61z"/>
   <path id="_2" class="fil1" d="M156.99 205.42l0 -27.89 12.75 0c2.55,0 4.74,0.41 6.59,1.23 1.85,0.83 3.28,2.02 4.28,3.57 1.01,1.55 1.52,3.39 1.52,5.52 0,2.1 -0.51,3.92 -1.52,5.46 -1,1.54 -2.43,2.73 -4.28,3.56 -1.85,0.84 -4.04,1.26 -6.59,1.26l-8.37 0 3.5 -3.43 0 10.72 -7.88 0zm7.88 -9.88l-3.5 -3.63 7.89 0c1.64,0 2.87,-0.36 3.68,-1.07 0.81,-0.72 1.22,-1.72 1.22,-2.99 0,-1.3 -0.41,-2.31 -1.22,-3.03 -0.81,-0.72 -2.04,-1.08 -3.68,-1.08l-7.89 0 3.5 -3.62 0 15.42z"/>
   <polygon id="_3" class="fil1" points="182.37,205.42 194.56,188.49 194.52,194.1 182.81,177.53 191.69,177.53 199.18,188.33 195.4,188.37 202.77,177.53 211.3,177.53 199.58,193.79 199.58,188.21 211.93,205.42 202.85,205.42 195.24,194.06 198.86,194.06 191.37,205.42 "/>
   <polygon id="_4" class="fil1" points="227.75,213.15 227.75,175.85 229.62,175.85 229.62,213.15 "/>
   <polygon id="_5" class="fil1" points="255.8,205.42 246.32,177.53 248.47,177.53 257.47,204.19 256.4,204.19 265.68,177.53 267.64,177.53 276.84,204.19 275.81,204.19 284.89,177.53 286.88,177.53 277.44,205.42 275.29,205.42 266.36,179.64 266.88,179.64 257.95,205.42 "/>
   <path id="_6" class="fil1" d="M298.96 205.58c-2.1,0 -3.95,-0.45 -5.56,-1.35 -1.61,-0.91 -2.87,-2.16 -3.79,-3.75 -0.91,-1.59 -1.37,-3.41 -1.37,-5.46 0,-2.07 0.43,-3.9 1.29,-5.48 0.87,-1.58 2.05,-2.82 3.57,-3.72 1.51,-0.91 3.21,-1.36 5.1,-1.36 1.89,0 3.58,0.44 5.08,1.32 1.5,0.87 2.68,2.1 3.55,3.68 0.86,1.58 1.29,3.41 1.29,5.48 0,0.08 0,0.17 -0.02,0.26 -0.01,0.09 -0.02,0.19 -0.02,0.3l-18.37 0 0 -1.56 17.3 0 -0.8 0.76c0.03,-1.62 -0.31,-3.07 -1.02,-4.36 -0.7,-1.29 -1.65,-2.3 -2.85,-3.03 -1.19,-0.73 -2.57,-1.1 -4.14,-1.1 -1.54,0 -2.92,0.37 -4.12,1.1 -1.21,0.73 -2.16,1.74 -2.85,3.03 -0.69,1.29 -1.04,2.76 -1.04,4.4l0 0.36c0,1.7 0.38,3.21 1.14,4.52 0.75,1.32 1.8,2.34 3.12,3.07 1.33,0.73 2.85,1.1 4.55,1.1 1.33,0 2.57,-0.24 3.72,-0.72 1.16,-0.48 2.13,-1.21 2.93,-2.19l1.16 1.31c-0.91,1.12 -2.04,1.96 -3.41,2.53 -1.37,0.57 -2.85,0.86 -4.44,0.86z"/>
   <path id="_7" class="fil1" d="M324.74 205.58c-1.83,0 -3.49,-0.42 -4.96,-1.28 -1.48,-0.84 -2.65,-2.07 -3.51,-3.66 -0.86,-1.59 -1.29,-3.47 -1.29,-5.62 0,-2.2 0.43,-4.09 1.29,-5.66 0.86,-1.56 2.03,-2.77 3.51,-3.62 1.47,-0.85 3.13,-1.28 4.96,-1.28 1.97,0 3.72,0.45 5.28,1.34 1.55,0.89 2.77,2.12 3.66,3.7 0.89,1.58 1.34,3.42 1.34,5.52 0,2.07 -0.45,3.91 -1.34,5.5 -0.89,1.59 -2.11,2.84 -3.66,3.73 -1.56,0.89 -3.31,1.33 -5.28,1.33zm-10.44 -0.16l0 -29.57 1.99 0 0 15.5 -0.4 3.63 0.32 3.63 0 6.81 -1.91 0zm10.32 -1.63c1.59,0 3.03,-0.37 4.3,-1.1 1.28,-0.73 2.28,-1.76 3.01,-3.09 0.73,-1.32 1.1,-2.85 1.1,-4.58 0,-1.75 -0.37,-3.29 -1.1,-4.6 -0.73,-1.32 -1.73,-2.34 -3.01,-3.07 -1.27,-0.73 -2.71,-1.1 -4.3,-1.1 -1.59,0 -3.02,0.37 -4.28,1.1 -1.27,0.73 -2.26,1.75 -2.99,3.07 -0.73,1.31 -1.1,2.85 -1.1,4.6 0,1.73 0.37,3.26 1.1,4.58 0.73,1.33 1.72,2.36 2.99,3.09 1.26,0.73 2.69,1.1 4.28,1.1z"/>
   <path id="_8" class="fil1" d="M371.68 205.82l-15.22 -16.02c-0.93,-0.98 -1.66,-1.85 -2.19,-2.59 -0.54,-0.74 -0.9,-1.44 -1.1,-2.09 -0.2,-0.65 -0.3,-1.34 -0.3,-2.05 0,-1.15 0.27,-2.14 0.82,-2.99 0.54,-0.85 1.31,-1.52 2.31,-1.99 1,-0.48 2.16,-0.72 3.49,-0.72 1.24,0 2.33,0.21 3.24,0.64 0.92,0.42 1.63,1.03 2.14,1.81 0.5,0.78 0.75,1.73 0.75,2.85 0,0.98 -0.23,1.89 -0.69,2.73 -0.47,0.83 -1.25,1.67 -2.34,2.51 -1.08,0.84 -2.57,1.78 -4.46,2.85 -1.75,1.01 -3.13,1.92 -4.14,2.75 -1.01,0.82 -1.72,1.62 -2.14,2.41 -0.41,0.78 -0.61,1.64 -0.61,2.57 0,1.09 0.3,2.04 0.91,2.87 0.61,0.82 1.46,1.46 2.53,1.91 1.08,0.45 2.34,0.68 3.77,0.68 1.91,0 3.61,-0.4 5.1,-1.18 1.49,-0.78 2.74,-1.97 3.75,-3.57 1.01,-1.59 1.74,-3.6 2.19,-6.01l1.63 0.52c-0.5,2.63 -1.34,4.82 -2.51,6.59 -1.17,1.77 -2.62,3.1 -4.34,3.98 -1.73,0.9 -3.7,1.34 -5.9,1.34 -1.75,0 -3.31,-0.29 -4.68,-0.88 -1.37,-0.58 -2.45,-1.4 -3.23,-2.45 -0.78,-1.05 -1.18,-2.26 -1.18,-3.64 0,-1.15 0.26,-2.2 0.76,-3.17 0.51,-0.97 1.34,-1.94 2.49,-2.91 1.16,-0.97 2.71,-2 4.65,-3.09 1.69,-0.98 3.04,-1.83 4.02,-2.55 0.98,-0.72 1.67,-1.41 2.07,-2.07 0.4,-0.66 0.6,-1.38 0.6,-2.15 0,-1.14 -0.38,-2.06 -1.14,-2.75 -0.75,-0.69 -1.84,-1.04 -3.24,-1.04 -1.49,0 -2.65,0.38 -3.49,1.14 -0.84,0.76 -1.26,1.76 -1.26,3.01 0,0.58 0.1,1.14 0.28,1.67 0.19,0.53 0.53,1.12 1.02,1.77 0.49,0.65 1.17,1.46 2.05,2.41l14.78 15.58 -1.19 1.32z"/>
   <path id="_9" class="fil1" d="M383.75 205.42l12.83 -27.89 2.04 0 12.83 27.89 -2.19 0 -12.12 -26.62 0.88 0 -12.08 26.62 -2.19 0zm4.71 -7.85l0.67 -1.71 16.7 0 0.68 1.71 -18.05 0z"/>
   <path id="_10" class="fil1" d="M426.31 205.58c-1.83,0 -3.49,-0.42 -4.96,-1.28 -1.48,-0.84 -2.65,-2.06 -3.51,-3.64 -0.86,-1.58 -1.29,-3.46 -1.29,-5.64 0,-2.18 0.43,-4.06 1.29,-5.64 0.86,-1.58 2.03,-2.79 3.51,-3.64 1.47,-0.85 3.13,-1.28 4.96,-1.28 1.97,0 3.73,0.45 5.28,1.34 1.55,0.89 2.78,2.13 3.67,3.72 0.88,1.6 1.33,3.43 1.33,5.5 0,2.07 -0.45,3.91 -1.33,5.5 -0.89,1.59 -2.12,2.84 -3.67,3.73 -1.55,0.89 -3.31,1.33 -5.28,1.33zm-10.44 7.57l0 -28.53 1.91 0 0 6.81 -0.32 3.63 0.4 3.63 0 14.46 -1.99 0zm10.32 -9.36c1.59,0 3.03,-0.37 4.3,-1.1 1.28,-0.73 2.28,-1.76 3.01,-3.09 0.73,-1.32 1.1,-2.85 1.1,-4.58 0,-1.75 -0.37,-3.29 -1.1,-4.6 -0.73,-1.32 -1.73,-2.34 -3.01,-3.07 -1.27,-0.73 -2.71,-1.1 -4.3,-1.1 -1.59,0 -3.02,0.37 -4.28,1.1 -1.27,0.73 -2.26,1.75 -2.99,3.07 -0.73,1.31 -1.1,2.85 -1.1,4.6 0,1.73 0.37,3.26 1.1,4.58 0.73,1.33 1.72,2.36 2.99,3.09 1.26,0.73 2.69,1.1 4.28,1.1z"/>
   <path id="_11" class="fil1" d="M453.21 205.58c-1.84,0 -3.49,-0.42 -4.96,-1.28 -1.48,-0.84 -2.65,-2.06 -3.51,-3.64 -0.86,-1.58 -1.3,-3.46 -1.3,-5.64 0,-2.18 0.44,-4.06 1.3,-5.64 0.86,-1.58 2.03,-2.79 3.51,-3.64 1.47,-0.85 3.12,-1.28 4.96,-1.28 1.96,0 3.72,0.45 5.28,1.34 1.55,0.89 2.77,2.13 3.66,3.72 0.89,1.6 1.34,3.43 1.34,5.5 0,2.07 -0.45,3.91 -1.34,5.5 -0.89,1.59 -2.11,2.84 -3.66,3.73 -1.56,0.89 -3.32,1.33 -5.28,1.33zm-10.44 7.57l0 -28.53 1.91 0 0 6.81 -0.32 3.63 0.4 3.63 0 14.46 -1.99 0zm10.32 -9.36c1.59,0 3.03,-0.37 4.3,-1.1 1.28,-0.73 2.28,-1.76 3.01,-3.09 0.73,-1.32 1.1,-2.85 1.1,-4.58 0,-1.75 -0.37,-3.29 -1.1,-4.6 -0.73,-1.32 -1.73,-2.34 -3.01,-3.07 -1.27,-0.73 -2.71,-1.1 -4.3,-1.1 -1.6,0 -3.02,0.37 -4.29,1.1 -1.26,0.73 -2.25,1.75 -2.99,3.07 -0.73,1.31 -1.09,2.85 -1.09,4.6 0,1.73 0.36,3.26 1.09,4.58 0.74,1.33 1.73,2.36 2.99,3.09 1.27,0.73 2.69,1.1 4.29,1.1z"/>
   <path id="_12" class="fil1" d="M487.87 205.62c-2.07,0 -4.03,-0.35 -5.87,-1.06 -1.85,-0.7 -3.28,-1.61 -4.29,-2.72l0.92 -1.52c0.96,0.98 2.26,1.81 3.93,2.49 1.66,0.68 3.42,1.02 5.27,1.02 1.87,0 3.39,-0.25 4.57,-0.74 1.18,-0.49 2.06,-1.15 2.63,-1.97 0.57,-0.83 0.85,-1.74 0.85,-2.75 0,-1.2 -0.31,-2.15 -0.95,-2.87 -0.64,-0.72 -1.48,-1.29 -2.51,-1.71 -1.04,-0.43 -2.17,-0.79 -3.39,-1.08 -1.22,-0.29 -2.46,-0.6 -3.71,-0.94 -1.24,-0.33 -2.39,-0.76 -3.42,-1.29 -1.04,-0.53 -1.87,-1.26 -2.49,-2.17 -0.63,-0.92 -0.94,-2.11 -0.94,-3.57 0,-1.33 0.35,-2.55 1.04,-3.67 0.69,-1.11 1.76,-2.01 3.22,-2.71 1.47,-0.69 3.34,-1.03 5.62,-1.03 1.54,0 3.06,0.22 4.57,0.68 1.5,0.45 2.78,1.06 3.84,1.83l-0.76 1.63c-1.16,-0.79 -2.42,-1.39 -3.76,-1.77 -1.34,-0.39 -2.64,-0.58 -3.89,-0.58 -1.78,0 -3.25,0.25 -4.42,0.76 -1.17,0.5 -2.03,1.17 -2.59,2.01 -0.56,0.84 -0.84,1.77 -0.84,2.81 0,1.2 0.32,2.15 0.94,2.87 0.62,0.72 1.45,1.29 2.49,1.71 1.04,0.43 2.18,0.79 3.43,1.08 1.24,0.29 2.48,0.6 3.7,0.94 1.23,0.33 2.35,0.76 3.39,1.29 1.04,0.53 1.87,1.25 2.51,2.15 0.64,0.91 0.96,2.07 0.96,3.51 0,1.3 -0.36,2.52 -1.08,3.64 -0.72,1.13 -1.81,2.04 -3.29,2.71 -1.47,0.68 -3.36,1.02 -5.68,1.02z"/>
   <path id="_13" class="fil1" d="M510.23 205.58c-1.84,0 -3.24,-0.5 -4.21,-1.51 -0.97,-1.01 -1.45,-2.39 -1.45,-4.15l0 -19.84 1.99 0 0 19.64c0,1.33 0.33,2.35 1,3.07 0.66,0.72 1.62,1.08 2.87,1.08 1.3,0 2.37,-0.39 3.22,-1.16l0.84 1.4c-0.53,0.5 -1.17,0.87 -1.93,1.11 -0.76,0.24 -1.54,0.36 -2.33,0.36zm-9.49 -19.25l0 -1.71 12.44 0 0 1.71 -12.44 0z"/>
   <path id="_14" class="fil1" d="M528.48 205.58c-1.78,0 -3.32,-0.33 -4.62,-0.98 -1.31,-0.65 -2.31,-1.63 -3.01,-2.94 -0.71,-1.32 -1.06,-2.95 -1.06,-4.89l0 -12.15 1.99 0 0 11.99c0,2.34 0.6,4.12 1.8,5.34 1.19,1.23 2.88,1.84 5.06,1.84 1.57,0 2.92,-0.33 4.06,-1 1.14,-0.66 2.02,-1.6 2.63,-2.81 0.61,-1.21 0.92,-2.64 0.92,-4.28l0 -11.08 1.99 0 0 20.8 -1.91 0 0 -5.78 0.28 0.68c-0.61,1.62 -1.63,2.9 -3.05,3.85 -1.42,0.94 -3.12,1.41 -5.08,1.41z"/>
   <path id="_15" class="fil1" d="M554.7 205.58c-1.94,0 -3.69,-0.44 -5.24,-1.33 -1.56,-0.89 -2.78,-2.14 -3.69,-3.73 -0.9,-1.59 -1.35,-3.43 -1.35,-5.5 0,-2.1 0.45,-3.94 1.35,-5.52 0.91,-1.58 2.13,-2.81 3.69,-3.7 1.55,-0.89 3.3,-1.34 5.24,-1.34 1.83,0 3.49,0.43 4.96,1.28 1.47,0.85 2.64,2.06 3.51,3.62 0.86,1.57 1.29,3.46 1.29,5.66 0,2.15 -0.42,4.03 -1.27,5.62 -0.85,1.59 -2.02,2.82 -3.49,3.66 -1.47,0.86 -3.14,1.28 -5,1.28zm0.12 -1.79c1.59,0 3.02,-0.37 4.28,-1.1 1.26,-0.73 2.26,-1.76 2.99,-3.09 0.73,-1.32 1.1,-2.85 1.1,-4.58 0,-1.75 -0.37,-3.29 -1.1,-4.6 -0.73,-1.32 -1.73,-2.34 -2.99,-3.07 -1.26,-0.73 -2.69,-1.1 -4.28,-1.1 -1.6,0 -3.02,0.37 -4.29,1.1 -1.26,0.73 -2.25,1.75 -2.98,3.07 -0.73,1.31 -1.1,2.85 -1.1,4.6 0,1.73 0.37,3.26 1.1,4.58 0.73,1.33 1.72,2.36 2.98,3.09 1.27,0.73 2.69,1.1 4.29,1.1zm8.41 1.63l0 -6.81 0.35 -3.63 -0.39 -3.63 0 -15.5 1.99 0 0 29.57 -1.95 0z"/>
   <path id="_16" class="fil1" d="M573.59 205.42l0 -20.8 1.95 0 0.04 20.8 -1.99 0zm0.99 -25.86c-0.45,0 -0.83,-0.16 -1.15,-0.48 -0.32,-0.32 -0.48,-0.69 -0.48,-1.11 0,-0.46 0.16,-0.84 0.48,-1.16 0.32,-0.32 0.7,-0.48 1.15,-0.48 0.48,0 0.87,0.16 1.18,0.46 0.3,0.31 0.46,0.68 0.46,1.14 0,0.45 -0.16,0.83 -0.46,1.15 -0.31,0.32 -0.7,0.48 -1.18,0.48z"/>
   <path id="_17" class="fil1" d="M592.12 205.58c-2,0 -3.77,-0.45 -5.32,-1.35 -1.56,-0.91 -2.79,-2.16 -3.69,-3.75 -0.9,-1.59 -1.36,-3.41 -1.36,-5.46 -0.02,-2.07 0.42,-3.9 1.34,-5.48 0.92,-1.58 2.15,-2.82 3.71,-3.72 1.55,-0.91 3.32,-1.36 5.32,-1.36 1.99,0 3.77,0.45 5.34,1.36 1.56,0.9 2.79,2.14 3.68,3.72 0.89,1.58 1.34,3.41 1.34,5.48 0.02,2.05 -0.42,3.87 -1.32,5.46 -0.9,1.59 -2.14,2.84 -3.72,3.75 -1.58,0.9 -3.36,1.35 -5.32,1.35zm0 -1.79c1.59,0 3.02,-0.37 4.3,-1.1 1.27,-0.73 2.27,-1.76 2.99,-3.09 0.71,-1.32 1.09,-2.85 1.11,-4.58 -0.02,-1.75 -0.4,-3.29 -1.11,-4.6 -0.72,-1.32 -1.72,-2.34 -2.99,-3.07 -1.28,-0.73 -2.71,-1.11 -4.3,-1.14 -1.6,0.03 -3.03,0.41 -4.29,1.14 -1.26,0.73 -2.26,1.75 -2.99,3.07 -0.73,1.31 -1.11,2.85 -1.13,4.6 0.02,1.73 0.4,3.26 1.13,4.58 0.73,1.33 1.72,2.37 2.97,3.11 1.25,0.75 2.69,1.1 4.31,1.08z"/>
  </g>
 </g>
</svg>
