<?xml version="1.0" encoding="UTF-8"?>
<!DOCTYPE svg PUBLIC "-//W3C//DTD SVG 1.1//EN" "http://www.w3.org/Graphics/SVG/1.1/DTD/svg11.dtd">
<!-- Creator: CorelDRAW -->
<svg xmlns="http://www.w3.org/2000/svg" xml:space="preserve" width="300px" height="300px" version="1.1" style="shape-rendering:geometricPrecision; text-rendering:geometricPrecision; image-rendering:optimizeQuality; fill-rule:evenodd; clip-rule:evenodd"
viewBox="0 0 300 300"
 xmlns:xlink="http://www.w3.org/1999/xlink"
 xmlns:xodm="http://www.corel.com/coreldraw/odm/2003">
 <defs>
  <style type="text/css">
   <![CDATA[
    .fil0 {fill:#ED145B}
    .fil1 {fill:#FDFFF9}
    .fil2 {fill:#FDFFF9;fill-rule:nonzero}
   ]]>
  </style>
 </defs>
 <g id="Camada_x0020_1">
  <metadata id="CorelCorpID_0Corel-Layer"/>
  <g id="_2039384732512">
   <polygon class="fil0" points="28.72,116.03 62.69,150 62.66,150.03 28.72,183.97 28.72,271.28 116.03,271.28 150,237.31 150.03,237.34 183.97,271.28 271.28,271.28 271.28,183.97 237.34,150.03 237.31,150 271.28,116.03 271.28,28.72 183.97,28.72 150.03,62.66 150,62.69 116.03,28.72 28.72,28.72 "/>
   <g>
    <polygon class="fil1" points="156.24,83.99 156.24,143.94 216.19,143.94 216.19,83.99 "/>
    <polygon class="fil1" points="83.81,83.64 83.81,144.28 108.13,144.28 108.13,144.27 108.13,132.27 114.13,138.27 120.14,144.28 144.45,144.28 144.45,83.64 120.14,83.64 120.14,83.65 120.14,95.65 114.14,89.65 108.13,83.64 "/>
    <polygon class="fil1" points="83.47,155.72 83.47,216.36 131.98,216.36 131.98,216.35 131.98,204.35 131.98,204.23 143.99,204.23 144.05,204.29 144.11,204.35 144.11,155.72 "/>
    <polygon class="fil1" points="155.89,177.55 164.38,186.04 164.38,186.05 155.89,194.53 155.89,216.36 177.72,216.36 186.21,207.87 186.22,207.88 194.71,216.36 216.53,216.36 216.53,194.53 208.05,186.05 208.04,186.04 216.53,177.55 216.53,155.72 194.71,155.72 186.22,164.2 186.21,164.21 177.72,155.72 155.89,155.72 "/>
   </g>
   <g>
    <polygon class="fil2" points="14.02,271.26 0.79,271.28 0.79,268.2 9.6,260.91 9.6,262.34 0.79,262.36 0.79,258.69 14.02,258.69 14.02,261.77 5.22,269.07 5.22,267.62 14.02,267.62 "/>
    <path id="_1" class="fil2" d="M14.25 249.4c0.01,1.03 -0.15,1.99 -0.48,2.9 -0.34,0.9 -0.81,1.68 -1.44,2.34 -0.62,0.66 -1.35,1.17 -2.19,1.53 -0.84,0.36 -1.75,0.54 -2.73,0.54 -1,0.01 -1.91,-0.17 -2.73,-0.54 -0.83,-0.37 -1.55,-0.88 -2.18,-1.54 -0.62,-0.65 -1.1,-1.43 -1.44,-2.33 -0.34,-0.91 -0.51,-1.87 -0.51,-2.9 -0.01,-1.09 0.15,-2.07 0.5,-2.95 0.34,-0.89 0.83,-1.66 1.44,-2.32 0.62,-0.66 1.35,-1.17 2.18,-1.54 0.83,-0.37 1.74,-0.54 2.74,-0.53 0.99,-0.01 1.91,0.16 2.75,0.53 0.84,0.37 1.56,0.88 2.17,1.54 0.61,0.66 1.09,1.43 1.44,2.32 0.34,0.88 0.5,1.86 0.48,2.95zm-3.02 0c-0.03,-0.52 -0.13,-1 -0.3,-1.43 -0.18,-0.44 -0.44,-0.82 -0.77,-1.14 -0.33,-0.32 -0.73,-0.57 -1.19,-0.76 -0.46,-0.19 -0.98,-0.29 -1.56,-0.29 -0.58,0.02 -1.1,0.12 -1.57,0.3 -0.47,0.18 -0.86,0.43 -1.19,0.75 -0.33,0.32 -0.58,0.7 -0.77,1.13 -0.18,0.43 -0.28,0.91 -0.29,1.44 0.03,0.49 0.13,0.95 0.3,1.39 0.18,0.44 0.43,0.83 0.76,1.15 0.33,0.32 0.72,0.57 1.19,0.74 0.47,0.18 0.99,0.28 1.57,0.29 0.57,-0.01 1.09,-0.11 1.56,-0.29 0.47,-0.17 0.87,-0.42 1.2,-0.75 0.33,-0.33 0.58,-0.71 0.76,-1.14 0.19,-0.43 0.28,-0.89 0.3,-1.39z"/>
    <path id="_2" class="fil2" d="M14.02 240.06l-13.23 0 0 -6.05c0,-1.21 0.2,-2.25 0.59,-3.13 0.39,-0.88 0.95,-1.55 1.69,-2.03 0.74,-0.48 1.61,-0.72 2.62,-0.72 1,0 1.86,0.24 2.59,0.72 0.73,0.48 1.29,1.15 1.69,2.03 0.4,0.88 0.6,1.92 0.6,3.13l0 3.97 -1.63 -1.67 5.08 0 0 3.75zm-4.68 -3.75l-1.72 1.67 0 -3.74c0,-0.79 -0.17,-1.37 -0.51,-1.75 -0.34,-0.39 -0.82,-0.58 -1.42,-0.58 -0.62,0 -1.1,0.19 -1.44,0.58 -0.34,0.38 -0.51,0.96 -0.51,1.75l0 3.74 -1.72 -1.67 7.32 0z"/>
    <polygon id="_3" class="fil2" points="14.02,228.02 5.99,222.23 8.66,222.25 0.79,227.81 0.79,223.59 5.92,220.04 5.94,221.84 0.79,218.34 0.79,214.29 8.51,219.85 5.86,219.85 14.02,213.99 14.02,218.3 8.64,221.91 8.64,220.19 14.02,223.75 "/>
    <polygon id="_4" class="fil2" points="17.69,206.49 0,206.49 0,205.6 17.69,205.6 "/>
    <polygon id="_5" class="fil2" points="14.02,193.18 0.79,197.68 0.79,196.66 13.44,192.39 13.44,192.9 0.79,188.5 0.79,187.57 13.44,183.21 13.44,183.7 0.79,179.39 0.79,178.44 14.02,182.92 14.02,183.94 1.8,188.18 1.8,187.93 14.02,192.16 "/>
    <path id="_6" class="fil2" d="M14.1 172.72c0,0.99 -0.21,1.87 -0.64,2.63 -0.43,0.76 -1.02,1.36 -1.78,1.8 -0.75,0.43 -1.62,0.65 -2.59,0.65 -0.98,0 -1.85,-0.21 -2.6,-0.61 -0.75,-0.41 -1.34,-0.98 -1.76,-1.7 -0.43,-0.72 -0.65,-1.52 -0.65,-2.42 0,-0.89 0.21,-1.69 0.63,-2.41 0.41,-0.71 0.99,-1.27 1.74,-1.68 0.75,-0.41 1.62,-0.61 2.6,-0.61 0.04,0 0.08,0 0.13,0.01 0.04,0 0.09,0.01 0.14,0.01l0 8.71 -0.74 0 0 -8.2 0.36 0.37c-0.77,-0.01 -1.46,0.15 -2.07,0.49 -0.61,0.33 -1.09,0.78 -1.44,1.35 -0.34,0.57 -0.52,1.22 -0.52,1.96 0,0.74 0.18,1.39 0.52,1.96 0.35,0.57 0.83,1.02 1.44,1.35 0.61,0.33 1.31,0.49 2.09,0.49l0.17 0c0.81,0 1.52,-0.18 2.14,-0.53 0.63,-0.36 1.11,-0.86 1.46,-1.49 0.34,-0.63 0.52,-1.35 0.52,-2.15 0,-0.63 -0.11,-1.22 -0.34,-1.77 -0.23,-0.55 -0.57,-1.01 -1.04,-1.39l0.62 -0.55c0.53,0.43 0.93,0.97 1.2,1.62 0.27,0.65 0.41,1.35 0.41,2.11z"/>
    <path id="_7" class="fil2" d="M14.1 160.49c0,0.87 -0.2,1.65 -0.61,2.35 -0.4,0.7 -0.98,1.25 -1.73,1.66 -0.76,0.41 -1.65,0.62 -2.67,0.62 -1.04,0 -1.94,-0.21 -2.68,-0.62 -0.75,-0.41 -1.32,-0.96 -1.72,-1.66 -0.41,-0.7 -0.61,-1.48 -0.61,-2.35 0,-0.94 0.21,-1.77 0.64,-2.51 0.42,-0.74 1,-1.31 1.75,-1.74 0.75,-0.42 1.63,-0.63 2.62,-0.63 0.98,0 1.85,0.21 2.61,0.63 0.76,0.43 1.34,1 1.77,1.74 0.42,0.74 0.63,1.57 0.63,2.51zm-0.08 4.95l-14.02 0 0 -0.95 7.35 0 1.72 0.19 1.72 -0.15 3.23 0 0 0.91zm-0.77 -4.9c0,-0.75 -0.18,-1.43 -0.52,-2.04 -0.35,-0.6 -0.84,-1.08 -1.46,-1.43 -0.64,-0.34 -1.36,-0.52 -2.18,-0.52 -0.83,0 -1.56,0.18 -2.18,0.52 -0.63,0.35 -1.11,0.83 -1.46,1.43 -0.34,0.61 -0.52,1.29 -0.52,2.04 0,0.76 0.18,1.44 0.52,2.03 0.35,0.6 0.83,1.08 1.46,1.42 0.62,0.35 1.35,0.52 2.18,0.52 0.82,0 1.54,-0.17 2.18,-0.52 0.62,-0.34 1.11,-0.82 1.46,-1.42 0.34,-0.59 0.52,-1.27 0.52,-2.03z"/>
    <path id="_8" class="fil2" d="M14.21 138.22l-7.59 7.22c-0.47,0.44 -0.88,0.79 -1.23,1.04 -0.36,0.25 -0.69,0.43 -1,0.52 -0.3,0.09 -0.63,0.14 -0.97,0.14 -0.54,0 -1.01,-0.13 -1.42,-0.39 -0.4,-0.25 -0.71,-0.62 -0.94,-1.09 -0.23,-0.48 -0.34,-1.03 -0.34,-1.66 0,-0.59 0.1,-1.1 0.3,-1.54 0.2,-0.43 0.49,-0.77 0.86,-1.01 0.37,-0.24 0.82,-0.36 1.35,-0.36 0.47,0 0.9,0.11 1.3,0.33 0.39,0.22 0.79,0.59 1.19,1.11 0.39,0.52 0.84,1.22 1.35,2.12 0.48,0.83 0.91,1.48 1.3,1.96 0.39,0.48 0.78,0.82 1.15,1.01 0.37,0.2 0.77,0.3 1.22,0.3 0.51,0 0.97,-0.15 1.36,-0.44 0.39,-0.29 0.69,-0.69 0.9,-1.2 0.22,-0.51 0.32,-1.1 0.32,-1.79 0,-0.9 -0.18,-1.71 -0.55,-2.41 -0.37,-0.71 -0.94,-1.3 -1.69,-1.78 -0.76,-0.48 -1.71,-0.83 -2.86,-1.04l0.25 -0.78c1.24,0.24 2.29,0.64 3.13,1.19 0.83,0.56 1.46,1.25 1.88,2.07 0.43,0.81 0.64,1.75 0.64,2.79 0,0.83 -0.14,1.57 -0.42,2.22 -0.28,0.65 -0.66,1.16 -1.16,1.54 -0.5,0.37 -1.07,0.55 -1.73,0.55 -0.54,0 -1.04,-0.12 -1.5,-0.36 -0.46,-0.24 -0.92,-0.63 -1.38,-1.18 -0.46,-0.55 -0.95,-1.28 -1.47,-2.2 -0.46,-0.81 -0.87,-1.44 -1.21,-1.91 -0.34,-0.47 -0.66,-0.79 -0.98,-0.98 -0.31,-0.19 -0.65,-0.29 -1.02,-0.29 -0.54,0 -0.98,0.18 -1.3,0.54 -0.33,0.36 -0.49,0.88 -0.49,1.54 0,0.71 0.17,1.26 0.53,1.66 0.36,0.39 0.84,0.59 1.43,0.59 0.28,0 0.54,-0.04 0.79,-0.13 0.26,-0.09 0.54,-0.25 0.85,-0.48 0.3,-0.23 0.69,-0.56 1.14,-0.98l7.39 -7.01 0.62 0.57z"/>
    <path id="_9" class="fil2" d="M14.02 132.49l-13.23 -6.08 0 -0.97 13.23 -6.08 0 1.04 -12.62 5.74 0 -0.41 12.62 5.72 0 1.04zm-3.72 -2.23l-0.81 -0.32 0 -7.92 0.81 -0.32 0 8.56z"/>
    <path id="_10" class="fil2" d="M14.1 112.31c0,0.87 -0.2,1.65 -0.61,2.35 -0.4,0.7 -0.97,1.25 -1.72,1.66 -0.75,0.41 -1.65,0.62 -2.68,0.62 -1.03,0 -1.92,-0.21 -2.67,-0.62 -0.75,-0.41 -1.33,-0.96 -1.73,-1.66 -0.41,-0.7 -0.61,-1.48 -0.61,-2.35 0,-0.94 0.21,-1.77 0.64,-2.51 0.42,-0.74 1.01,-1.31 1.76,-1.74 0.76,-0.42 1.63,-0.63 2.61,-0.63 0.98,0 1.85,0.21 2.61,0.63 0.76,0.43 1.34,1 1.77,1.74 0.42,0.74 0.63,1.57 0.63,2.51zm3.59 4.95l-13.53 0 0 -0.91 3.23 0 1.72 0.15 1.72 -0.19 6.86 0 0 0.95zm-4.44 -4.9c0,-0.75 -0.18,-1.43 -0.52,-2.04 -0.35,-0.6 -0.84,-1.08 -1.46,-1.43 -0.64,-0.34 -1.36,-0.52 -2.18,-0.52 -0.83,0 -1.56,0.18 -2.18,0.52 -0.63,0.35 -1.11,0.83 -1.46,1.43 -0.34,0.61 -0.52,1.29 -0.52,2.04 0,0.76 0.18,1.44 0.52,2.03 0.35,0.6 0.83,1.08 1.46,1.42 0.62,0.35 1.35,0.52 2.18,0.52 0.82,0 1.54,-0.17 2.18,-0.52 0.62,-0.34 1.11,-0.82 1.46,-1.42 0.34,-0.59 0.52,-1.27 0.52,-2.03z"/>
    <path id="_11" class="fil2" d="M14.1 99.55c0,0.87 -0.2,1.65 -0.61,2.35 -0.4,0.7 -0.97,1.25 -1.72,1.66 -0.75,0.41 -1.65,0.62 -2.68,0.62 -1.03,0 -1.92,-0.21 -2.67,-0.62 -0.75,-0.41 -1.33,-0.96 -1.73,-1.66 -0.41,-0.7 -0.61,-1.48 -0.61,-2.35 0,-0.94 0.21,-1.77 0.64,-2.51 0.42,-0.74 1.01,-1.31 1.76,-1.74 0.76,-0.42 1.63,-0.63 2.61,-0.63 0.98,0 1.85,0.21 2.61,0.63 0.76,0.43 1.34,1 1.77,1.74 0.42,0.74 0.63,1.57 0.63,2.51zm3.59 4.95l-13.53 0 0 -0.91 3.23 0 1.72 0.15 1.72 -0.18 6.86 0 0 0.94zm-4.44 -4.9c0,-0.75 -0.18,-1.43 -0.52,-2.04 -0.35,-0.6 -0.84,-1.08 -1.46,-1.43 -0.64,-0.34 -1.36,-0.52 -2.18,-0.52 -0.83,0 -1.56,0.18 -2.18,0.52 -0.63,0.35 -1.11,0.83 -1.46,1.43 -0.34,0.61 -0.52,1.29 -0.52,2.04 0,0.76 0.18,1.44 0.52,2.04 0.35,0.59 0.83,1.07 1.46,1.41 0.62,0.35 1.35,0.52 2.18,0.52 0.82,0 1.54,-0.17 2.18,-0.52 0.62,-0.34 1.11,-0.82 1.46,-1.41 0.34,-0.6 0.52,-1.28 0.52,-2.04z"/>
    <path id="_12" class="fil2" d="M14.12 83.1c0,0.98 -0.17,1.91 -0.5,2.79 -0.34,0.88 -0.77,1.55 -1.3,2.03l-0.71 -0.43c0.46,-0.46 0.86,-1.08 1.18,-1.87 0.32,-0.78 0.48,-1.62 0.48,-2.5 0,-0.88 -0.12,-1.6 -0.35,-2.16 -0.23,-0.56 -0.55,-0.98 -0.94,-1.25 -0.39,-0.27 -0.82,-0.41 -1.3,-0.41 -0.57,0 -1.02,0.15 -1.36,0.46 -0.34,0.3 -0.61,0.7 -0.81,1.19 -0.21,0.49 -0.38,1.02 -0.52,1.6 -0.13,0.58 -0.28,1.17 -0.44,1.76 -0.16,0.59 -0.36,1.14 -0.61,1.63 -0.25,0.49 -0.6,0.88 -1.03,1.18 -0.44,0.29 -1,0.44 -1.7,0.44 -0.63,0 -1.21,-0.16 -1.73,-0.49 -0.53,-0.33 -0.96,-0.84 -1.29,-1.53 -0.33,-0.69 -0.49,-1.58 -0.49,-2.66 0,-0.74 0.11,-1.46 0.32,-2.17 0.21,-0.71 0.5,-1.32 0.87,-1.82l0.77 0.36c-0.37,0.55 -0.65,1.15 -0.84,1.78 -0.18,0.64 -0.27,1.25 -0.27,1.85 0,0.84 0.12,1.54 0.36,2.09 0.24,0.56 0.56,0.97 0.95,1.23 0.4,0.27 0.84,0.4 1.34,0.4 0.56,0 1.02,-0.15 1.36,-0.44 0.34,-0.3 0.61,-0.7 0.81,-1.19 0.2,-0.49 0.37,-1.03 0.51,-1.62 0.14,-0.59 0.29,-1.18 0.44,-1.76 0.16,-0.58 0.37,-1.11 0.62,-1.61 0.25,-0.49 0.59,-0.89 1.02,-1.19 0.43,-0.3 0.98,-0.45 1.66,-0.45 0.62,0 1.2,0.17 1.73,0.51 0.54,0.34 0.96,0.86 1.29,1.56 0.32,0.7 0.48,1.6 0.48,2.69z"/>
    <path id="_13" class="fil2" d="M14.1 72.5c0,0.87 -0.24,1.53 -0.72,1.99 -0.48,0.46 -1.13,0.69 -1.96,0.69l-9.42 0 0 -0.94 9.32 0c0.63,0 1.12,-0.16 1.46,-0.48 0.34,-0.31 0.51,-0.76 0.51,-1.36 0,-0.61 -0.19,-1.12 -0.55,-1.53l0.66 -0.39c0.24,0.25 0.42,0.55 0.53,0.91 0.11,0.36 0.17,0.73 0.17,1.11zm-9.13 4.5l-0.81 0 0 -5.9 0.81 0 0 5.9z"/>
    <path id="_14" class="fil2" d="M14.1 63.84c0,0.85 -0.16,1.58 -0.46,2.19 -0.31,0.62 -0.78,1.1 -1.4,1.43 -0.62,0.33 -1.4,0.5 -2.32,0.5l-5.76 0 0 -0.94 5.69 0c1.11,0 1.95,-0.29 2.53,-0.85 0.58,-0.57 0.87,-1.37 0.87,-2.4 0,-0.75 -0.16,-1.39 -0.47,-1.93 -0.32,-0.54 -0.76,-0.96 -1.34,-1.25 -0.57,-0.29 -1.25,-0.43 -2.03,-0.43l-5.25 0 0 -0.95 9.86 0 0 0.91 -2.74 0 0.33 -0.13c0.76,0.29 1.37,0.77 1.82,1.44 0.45,0.68 0.67,1.48 0.67,2.41z"/>
    <path id="_15" class="fil2" d="M14.1 51.4c0,0.92 -0.21,1.75 -0.63,2.49 -0.43,0.74 -1.01,1.32 -1.77,1.75 -0.76,0.43 -1.63,0.64 -2.61,0.64 -0.99,0 -1.87,-0.21 -2.62,-0.64 -0.75,-0.43 -1.33,-1.01 -1.75,-1.75 -0.43,-0.74 -0.64,-1.57 -0.64,-2.49 0,-0.86 0.2,-1.65 0.61,-2.35 0.4,-0.7 0.97,-1.25 1.72,-1.66 0.74,-0.41 1.64,-0.62 2.68,-0.62 1.02,0 1.91,0.21 2.67,0.61 0.75,0.4 1.33,0.95 1.73,1.65 0.41,0.7 0.61,1.49 0.61,2.37zm-0.85 -0.05c0,-0.76 -0.18,-1.44 -0.52,-2.03 -0.35,-0.6 -0.84,-1.08 -1.46,-1.42 -0.64,-0.35 -1.36,-0.52 -2.18,-0.52 -0.83,0 -1.56,0.17 -2.18,0.52 -0.63,0.34 -1.11,0.82 -1.46,1.42 -0.34,0.59 -0.52,1.27 -0.52,2.03 0,0.75 0.18,1.43 0.52,2.03 0.35,0.6 0.83,1.07 1.46,1.42 0.62,0.34 1.35,0.52 2.18,0.52 0.82,0 1.54,-0.18 2.18,-0.52 0.62,-0.35 1.11,-0.82 1.46,-1.42 0.34,-0.6 0.52,-1.28 0.52,-2.03zm0.77 -3.99l-3.23 0 -1.72 -0.17 -1.72 0.19 -7.35 0 0 -0.95 14.02 0 0 0.93z"/>
    <path id="_16" class="fil2" d="M14.02 42.45l-9.86 0 0 -0.93 9.86 -0.02 0 0.95zm-12.26 -0.48c0,0.22 -0.08,0.4 -0.23,0.55 -0.15,0.15 -0.33,0.23 -0.53,0.23 -0.21,0 -0.4,-0.08 -0.55,-0.23 -0.15,-0.15 -0.22,-0.33 -0.22,-0.55 0,-0.22 0.07,-0.41 0.21,-0.55 0.15,-0.15 0.33,-0.22 0.54,-0.22 0.22,0 0.4,0.07 0.55,0.22 0.15,0.14 0.23,0.33 0.23,0.55z"/>
    <path id="_17" class="fil2" d="M14.1 33.66c0,0.94 -0.21,1.78 -0.64,2.52 -0.43,0.74 -1.02,1.32 -1.78,1.75 -0.75,0.43 -1.62,0.64 -2.59,0.64 -0.98,0.01 -1.85,-0.2 -2.6,-0.63 -0.75,-0.44 -1.34,-1.02 -1.76,-1.76 -0.43,-0.74 -0.65,-1.58 -0.65,-2.52 0,-0.95 0.22,-1.79 0.65,-2.54 0.42,-0.74 1.01,-1.32 1.76,-1.75 0.75,-0.42 1.62,-0.63 2.6,-0.63 0.97,-0.01 1.84,0.2 2.59,0.62 0.76,0.43 1.35,1.02 1.78,1.77 0.43,0.75 0.64,1.59 0.64,2.53zm-0.85 0c0,-0.76 -0.18,-1.44 -0.52,-2.05 -0.35,-0.6 -0.84,-1.07 -1.46,-1.41 -0.64,-0.34 -1.36,-0.52 -2.18,-0.53 -0.83,0.01 -1.56,0.19 -2.18,0.53 -0.63,0.34 -1.11,0.81 -1.46,1.41 -0.34,0.61 -0.52,1.29 -0.54,2.05 0.02,0.75 0.2,1.43 0.54,2.03 0.35,0.6 0.83,1.07 1.46,1.42 0.62,0.34 1.35,0.52 2.18,0.53 0.82,-0.01 1.54,-0.19 2.18,-0.53 0.62,-0.35 1.12,-0.82 1.47,-1.41 0.35,-0.59 0.52,-1.28 0.51,-2.04z"/>
    <polygon class="fil2" points="285.98,28.74 299.21,28.72 299.21,31.8 290.4,39.09 290.4,37.66 299.21,37.64 299.21,41.31 285.98,41.31 285.98,38.23 294.78,30.93 294.78,32.38 285.98,32.38 "/>
    <path id="_1_0" class="fil2" d="M285.75 50.6c-0.01,-1.03 0.15,-1.99 0.48,-2.9 0.33,-0.9 0.81,-1.68 1.44,-2.34 0.62,-0.66 1.35,-1.17 2.19,-1.53 0.84,-0.36 1.75,-0.54 2.73,-0.54 1,-0.01 1.91,0.17 2.73,0.54 0.83,0.37 1.55,0.88 2.18,1.54 0.62,0.65 1.1,1.43 1.44,2.33 0.34,0.91 0.51,1.87 0.51,2.9 0.01,1.09 -0.15,2.07 -0.5,2.95 -0.34,0.89 -0.83,1.66 -1.44,2.32 -0.62,0.66 -1.35,1.17 -2.18,1.54 -0.83,0.37 -1.74,0.54 -2.74,0.53 -0.99,0.01 -1.91,-0.16 -2.75,-0.53 -0.84,-0.37 -1.56,-0.88 -2.17,-1.54 -0.61,-0.66 -1.09,-1.43 -1.44,-2.32 -0.35,-0.88 -0.51,-1.86 -0.48,-2.95zm3.02 0c0.03,0.52 0.13,1 0.3,1.43 0.18,0.44 0.44,0.82 0.77,1.14 0.33,0.32 0.73,0.57 1.19,0.76 0.46,0.19 0.98,0.29 1.56,0.29 0.58,-0.02 1.1,-0.12 1.57,-0.3 0.47,-0.18 0.86,-0.43 1.19,-0.75 0.33,-0.32 0.58,-0.7 0.77,-1.13 0.18,-0.43 0.28,-0.91 0.29,-1.44 -0.03,-0.49 -0.13,-0.95 -0.3,-1.39 -0.18,-0.44 -0.43,-0.83 -0.76,-1.15 -0.33,-0.32 -0.72,-0.57 -1.19,-0.74 -0.47,-0.18 -0.99,-0.28 -1.57,-0.29 -0.57,0.01 -1.09,0.11 -1.56,0.29 -0.47,0.17 -0.87,0.42 -1.2,0.75 -0.33,0.33 -0.58,0.71 -0.76,1.14 -0.19,0.43 -0.28,0.89 -0.3,1.39z"/>
    <path id="_2_1" class="fil2" d="M285.98 59.94l13.23 0 0 6.05c0,1.21 -0.2,2.25 -0.59,3.13 -0.39,0.88 -0.95,1.55 -1.69,2.03 -0.74,0.48 -1.61,0.72 -2.62,0.72 -1,0 -1.86,-0.24 -2.59,-0.72 -0.73,-0.48 -1.29,-1.15 -1.69,-2.03 -0.4,-0.88 -0.6,-1.92 -0.6,-3.13l0 -3.97 1.63 1.67 -5.08 0 0 -3.75zm4.68 3.75l1.72 -1.67 0 3.74c0,0.79 0.17,1.37 0.51,1.75 0.34,0.39 0.82,0.58 1.42,0.58 0.62,0 1.1,-0.19 1.44,-0.58 0.34,-0.38 0.51,-0.96 0.51,-1.75l0 -3.74 1.72 1.67 -7.32 0z"/>
    <polygon id="_3_2" class="fil2" points="285.98,71.98 294.01,77.77 291.34,77.75 299.21,72.19 299.21,76.41 294.08,79.96 294.06,78.16 299.21,81.66 299.21,85.71 291.49,80.15 294.14,80.15 285.98,86.01 285.98,81.7 291.36,78.09 291.36,79.81 285.98,76.25 "/>
    <polygon id="_4_3" class="fil2" points="282.31,93.51 300,93.51 300,94.4 282.31,94.4 "/>
    <polygon id="_5_4" class="fil2" points="285.98,106.82 299.21,102.32 299.21,103.34 286.56,107.61 286.56,107.1 299.21,111.5 299.21,112.43 286.56,116.79 286.56,116.3 299.21,120.61 299.21,121.56 285.98,117.08 285.98,116.06 298.2,111.82 298.2,112.07 285.98,107.84 "/>
    <path id="_6_5" class="fil2" d="M285.9 127.28c0,-0.99 0.21,-1.87 0.64,-2.63 0.43,-0.76 1.02,-1.36 1.78,-1.8 0.75,-0.43 1.62,-0.65 2.59,-0.65 0.98,0 1.85,0.21 2.6,0.61 0.75,0.41 1.34,0.98 1.76,1.7 0.43,0.72 0.65,1.52 0.65,2.42 0,0.89 -0.21,1.69 -0.63,2.41 -0.41,0.71 -0.99,1.27 -1.74,1.68 -0.75,0.41 -1.62,0.61 -2.6,0.61 -0.04,0 -0.08,0 -0.13,-0.01 -0.04,0 -0.09,-0.01 -0.14,-0.01l0 -8.71 0.74 0 0 8.2 -0.36 -0.37c0.77,0.01 1.46,-0.15 2.07,-0.49 0.61,-0.33 1.09,-0.78 1.44,-1.35 0.34,-0.57 0.52,-1.22 0.52,-1.96 0,-0.74 -0.18,-1.39 -0.52,-1.96 -0.35,-0.57 -0.83,-1.02 -1.44,-1.35 -0.61,-0.33 -1.31,-0.49 -2.09,-0.49l-0.17 0c-0.81,0 -1.52,0.18 -2.14,0.53 -0.63,0.36 -1.11,0.86 -1.46,1.49 -0.35,0.63 -0.52,1.35 -0.52,2.15 0,0.63 0.11,1.22 0.34,1.77 0.23,0.55 0.57,1.01 1.04,1.39l-0.62 0.55c-0.53,-0.43 -0.93,-0.97 -1.2,-1.62 -0.27,-0.65 -0.41,-1.35 -0.41,-2.11z"/>
    <path id="_7_6" class="fil2" d="M285.9 139.51c0,-0.87 0.2,-1.65 0.6,-2.35 0.41,-0.7 0.99,-1.25 1.74,-1.66 0.76,-0.41 1.65,-0.62 2.67,-0.62 1.04,0 1.94,0.21 2.68,0.62 0.75,0.41 1.32,0.96 1.72,1.66 0.41,0.7 0.61,1.48 0.61,2.35 0,0.94 -0.21,1.77 -0.64,2.51 -0.42,0.74 -1,1.31 -1.75,1.74 -0.75,0.42 -1.63,0.63 -2.62,0.63 -0.98,0 -1.85,-0.21 -2.61,-0.63 -0.76,-0.43 -1.35,-1 -1.77,-1.74 -0.42,-0.74 -0.63,-1.57 -0.63,-2.51zm0.08 -4.95l14.02 0 0 0.95 -7.35 0 -1.72 -0.19 -1.72 0.15 -3.23 0 0 -0.91zm0.77 4.9c0,0.75 0.17,1.43 0.52,2.04 0.35,0.6 0.84,1.08 1.46,1.43 0.64,0.34 1.36,0.52 2.18,0.52 0.83,0 1.56,-0.18 2.18,-0.52 0.63,-0.35 1.11,-0.83 1.46,-1.43 0.34,-0.61 0.52,-1.29 0.52,-2.04 0,-0.76 -0.18,-1.44 -0.52,-2.03 -0.35,-0.6 -0.83,-1.08 -1.46,-1.42 -0.62,-0.35 -1.35,-0.52 -2.18,-0.52 -0.82,0 -1.54,0.17 -2.18,0.52 -0.62,0.34 -1.11,0.82 -1.46,1.42 -0.35,0.59 -0.52,1.27 -0.52,2.03z"/>
    <path id="_8_7" class="fil2" d="M285.79 161.78l7.59 -7.22c0.47,-0.44 0.88,-0.79 1.23,-1.04 0.36,-0.25 0.69,-0.43 1,-0.52 0.3,-0.09 0.63,-0.14 0.97,-0.14 0.54,0 1.01,0.13 1.42,0.39 0.4,0.25 0.71,0.62 0.94,1.09 0.23,0.48 0.34,1.03 0.34,1.66 0,0.59 -0.1,1.1 -0.3,1.54 -0.2,0.43 -0.49,0.77 -0.86,1.01 -0.37,0.24 -0.82,0.36 -1.35,0.36 -0.47,0 -0.9,-0.11 -1.3,-0.33 -0.39,-0.22 -0.79,-0.59 -1.19,-1.11 -0.39,-0.52 -0.84,-1.22 -1.35,-2.12 -0.48,-0.83 -0.91,-1.48 -1.3,-1.96 -0.39,-0.48 -0.78,-0.82 -1.15,-1.01 -0.37,-0.2 -0.77,-0.3 -1.22,-0.3 -0.51,0 -0.97,0.15 -1.36,0.44 -0.39,0.29 -0.69,0.69 -0.9,1.2 -0.22,0.51 -0.33,1.1 -0.33,1.79 0,0.9 0.19,1.71 0.56,2.41 0.37,0.71 0.94,1.3 1.69,1.78 0.76,0.48 1.71,0.83 2.86,1.04l-0.25 0.78c-1.24,-0.24 -2.29,-0.64 -3.13,-1.19 -0.83,-0.56 -1.46,-1.25 -1.89,-2.07 -0.42,-0.81 -0.63,-1.75 -0.63,-2.79 0,-0.83 0.14,-1.57 0.42,-2.22 0.27,-0.65 0.66,-1.16 1.16,-1.54 0.5,-0.37 1.07,-0.55 1.73,-0.55 0.54,0 1.04,0.12 1.5,0.36 0.46,0.24 0.92,0.63 1.38,1.18 0.46,0.55 0.95,1.28 1.47,2.2 0.46,0.81 0.87,1.44 1.21,1.91 0.34,0.47 0.66,0.79 0.98,0.98 0.31,0.19 0.65,0.29 1.02,0.29 0.54,0 0.98,-0.18 1.3,-0.54 0.33,-0.36 0.49,-0.88 0.49,-1.54 0,-0.71 -0.17,-1.26 -0.53,-1.66 -0.36,-0.39 -0.84,-0.59 -1.43,-0.59 -0.28,0 -0.54,0.04 -0.79,0.13 -0.26,0.09 -0.54,0.25 -0.85,0.48 -0.3,0.23 -0.69,0.56 -1.14,0.98l-7.39 7.01 -0.62 -0.57z"/>
    <path id="_9_8" class="fil2" d="M285.98 167.51l13.23 6.08 0 0.97 -13.23 6.08 0 -1.04 12.62 -5.74 0 0.41 -12.62 -5.72 0 -1.04zm3.72 2.23l0.81 0.32 0 7.92 -0.81 0.32 0 -8.56z"/>
    <path id="_10_9" class="fil2" d="M285.9 187.69c0,-0.87 0.2,-1.65 0.6,-2.35 0.41,-0.7 0.98,-1.25 1.73,-1.66 0.75,-0.41 1.65,-0.62 2.68,-0.62 1.03,0 1.92,0.21 2.67,0.62 0.75,0.41 1.33,0.96 1.73,1.66 0.41,0.7 0.61,1.48 0.61,2.35 0,0.94 -0.21,1.77 -0.64,2.51 -0.42,0.74 -1.01,1.31 -1.76,1.74 -0.76,0.42 -1.63,0.63 -2.61,0.63 -0.98,0 -1.85,-0.21 -2.61,-0.63 -0.76,-0.43 -1.35,-1 -1.77,-1.74 -0.42,-0.74 -0.63,-1.57 -0.63,-2.51zm-3.59 -4.95l13.53 0 0 0.91 -3.23 0 -1.72 -0.15 -1.72 0.19 -6.86 0 0 -0.95zm4.44 4.9c0,0.75 0.17,1.43 0.52,2.04 0.35,0.6 0.84,1.08 1.46,1.43 0.64,0.34 1.36,0.52 2.18,0.52 0.83,0 1.56,-0.18 2.18,-0.52 0.63,-0.35 1.11,-0.83 1.46,-1.43 0.34,-0.61 0.52,-1.29 0.52,-2.04 0,-0.76 -0.18,-1.44 -0.52,-2.03 -0.35,-0.6 -0.83,-1.08 -1.46,-1.42 -0.62,-0.35 -1.35,-0.52 -2.18,-0.52 -0.82,0 -1.54,0.17 -2.18,0.52 -0.62,0.34 -1.11,0.82 -1.46,1.42 -0.35,0.59 -0.52,1.27 -0.52,2.03z"/>
    <path id="_11_10" class="fil2" d="M285.9 200.45c0,-0.87 0.2,-1.65 0.6,-2.35 0.41,-0.7 0.98,-1.25 1.73,-1.66 0.75,-0.41 1.65,-0.62 2.68,-0.62 1.03,0 1.92,0.21 2.67,0.62 0.75,0.41 1.33,0.96 1.73,1.66 0.41,0.7 0.61,1.48 0.61,2.35 0,0.94 -0.21,1.77 -0.64,2.51 -0.42,0.73 -1.01,1.31 -1.76,1.74 -0.76,0.42 -1.63,0.63 -2.61,0.63 -0.98,0 -1.85,-0.21 -2.61,-0.63 -0.76,-0.43 -1.35,-1.01 -1.77,-1.74 -0.42,-0.74 -0.63,-1.57 -0.63,-2.51zm-3.59 -4.95l13.53 0 0 0.91 -3.23 0 -1.72 -0.15 -1.72 0.18 -6.86 0 0 -0.94zm4.44 4.9c0,0.75 0.17,1.43 0.52,2.04 0.35,0.6 0.84,1.08 1.46,1.42 0.64,0.35 1.36,0.52 2.18,0.52 0.83,0 1.56,-0.17 2.18,-0.52 0.63,-0.34 1.11,-0.82 1.46,-1.42 0.34,-0.61 0.52,-1.29 0.52,-2.04 0,-0.76 -0.18,-1.44 -0.52,-2.04 -0.35,-0.59 -0.83,-1.07 -1.46,-1.41 -0.62,-0.35 -1.35,-0.52 -2.18,-0.52 -0.82,0 -1.54,0.17 -2.18,0.52 -0.62,0.34 -1.11,0.82 -1.46,1.41 -0.35,0.6 -0.52,1.28 -0.52,2.04z"/>
    <path id="_12_11" class="fil2" d="M285.88 216.9c0,-0.99 0.17,-1.92 0.5,-2.79 0.34,-0.88 0.77,-1.55 1.3,-2.03l0.71 0.43c-0.46,0.46 -0.86,1.08 -1.18,1.86 -0.32,0.79 -0.48,1.63 -0.48,2.51 0,0.88 0.12,1.6 0.35,2.16 0.23,0.56 0.55,0.98 0.94,1.25 0.39,0.27 0.82,0.41 1.3,0.41 0.57,0 1.02,-0.16 1.36,-0.46 0.34,-0.3 0.61,-0.7 0.81,-1.19 0.21,-0.49 0.38,-1.03 0.52,-1.6 0.13,-0.58 0.28,-1.17 0.44,-1.76 0.16,-0.6 0.36,-1.14 0.61,-1.63 0.25,-0.49 0.6,-0.88 1.03,-1.18 0.44,-0.3 1,-0.44 1.7,-0.44 0.63,0 1.21,0.16 1.73,0.49 0.53,0.33 0.96,0.84 1.29,1.53 0.33,0.69 0.49,1.58 0.49,2.66 0,0.73 -0.11,1.46 -0.32,2.17 -0.21,0.71 -0.5,1.32 -0.87,1.82l-0.77 -0.36c0.37,-0.55 0.65,-1.15 0.84,-1.78 0.18,-0.64 0.27,-1.25 0.27,-1.85 0,-0.84 -0.12,-1.54 -0.36,-2.09 -0.24,-0.56 -0.56,-0.97 -0.95,-1.23 -0.4,-0.27 -0.84,-0.4 -1.34,-0.4 -0.56,0 -1.02,0.15 -1.36,0.44 -0.34,0.3 -0.61,0.69 -0.81,1.19 -0.2,0.49 -0.37,1.03 -0.51,1.62 -0.14,0.59 -0.29,1.18 -0.44,1.76 -0.16,0.58 -0.37,1.11 -0.62,1.61 -0.25,0.49 -0.59,0.88 -1.02,1.19 -0.43,0.3 -0.98,0.45 -1.66,0.45 -0.62,0 -1.2,-0.17 -1.73,-0.51 -0.54,-0.34 -0.97,-0.86 -1.29,-1.56 -0.32,-0.7 -0.48,-1.6 -0.48,-2.69z"/>
    <path id="_13_12" class="fil2" d="M285.9 227.5c0,-0.87 0.24,-1.53 0.72,-1.99 0.48,-0.46 1.13,-0.69 1.96,-0.69l9.42 0 0 0.94 -9.32 0c-0.63,0 -1.12,0.16 -1.46,0.47 -0.34,0.32 -0.51,0.77 -0.51,1.37 0,0.61 0.19,1.12 0.55,1.53l-0.66 0.39c-0.24,-0.25 -0.42,-0.55 -0.53,-0.91 -0.11,-0.36 -0.17,-0.73 -0.17,-1.11zm9.13 -4.5l0.81 0 0 5.9 -0.81 0 0 -5.9z"/>
    <path id="_14_13" class="fil2" d="M285.9 236.16c0,-0.85 0.15,-1.58 0.46,-2.19 0.31,-0.62 0.78,-1.1 1.4,-1.43 0.62,-0.34 1.4,-0.5 2.32,-0.5l5.76 0 0 0.94 -5.69 0c-1.11,0 -1.95,0.28 -2.53,0.85 -0.58,0.57 -0.87,1.37 -0.87,2.4 0,0.75 0.16,1.39 0.47,1.93 0.32,0.54 0.76,0.96 1.34,1.25 0.57,0.29 1.25,0.43 2.03,0.43l5.25 0 0 0.95 -9.86 0 0 -0.91 2.74 0 -0.33 0.13c-0.76,-0.29 -1.37,-0.77 -1.82,-1.44 -0.45,-0.68 -0.67,-1.48 -0.67,-2.41z"/>
    <path id="_15_14" class="fil2" d="M285.9 248.59c0,-0.92 0.21,-1.74 0.63,-2.48 0.42,-0.74 1.01,-1.32 1.77,-1.75 0.76,-0.43 1.63,-0.64 2.61,-0.64 0.99,0 1.87,0.21 2.62,0.64 0.75,0.43 1.33,1.01 1.75,1.75 0.43,0.74 0.64,1.56 0.64,2.48 0,0.87 -0.2,1.66 -0.61,2.36 -0.4,0.7 -0.97,1.25 -1.72,1.66 -0.74,0.41 -1.64,0.62 -2.68,0.62 -1.02,0 -1.91,-0.21 -2.67,-0.61 -0.75,-0.4 -1.33,-0.95 -1.74,-1.65 -0.4,-0.7 -0.6,-1.49 -0.6,-2.38zm0.85 0.06c0,0.76 0.17,1.43 0.52,2.03 0.35,0.6 0.84,1.07 1.46,1.42 0.64,0.35 1.36,0.52 2.18,0.52 0.83,0 1.56,-0.17 2.18,-0.52 0.63,-0.35 1.11,-0.82 1.46,-1.42 0.34,-0.6 0.52,-1.27 0.52,-2.03 0,-0.75 -0.18,-1.43 -0.52,-2.03 -0.35,-0.6 -0.83,-1.07 -1.46,-1.42 -0.62,-0.34 -1.35,-0.52 -2.18,-0.52 -0.82,0 -1.54,0.18 -2.18,0.52 -0.62,0.35 -1.11,0.82 -1.46,1.42 -0.35,0.6 -0.52,1.28 -0.52,2.03zm-0.77 3.99l3.23 0 1.72 0.17 1.72 -0.19 7.35 0 0 0.95 -14.02 0 0 -0.93z"/>
    <path id="_16_15" class="fil2" d="M285.98 257.55l9.86 0 0 0.93 -9.86 0.02 0 -0.95zm12.26 0.48c0,-0.22 0.08,-0.4 0.23,-0.55 0.15,-0.15 0.33,-0.23 0.53,-0.23 0.21,0 0.4,0.08 0.55,0.23 0.15,0.15 0.22,0.33 0.22,0.55 0,0.22 -0.07,0.41 -0.21,0.55 -0.15,0.15 -0.33,0.22 -0.54,0.22 -0.22,0 -0.4,-0.07 -0.55,-0.22 -0.15,-0.14 -0.23,-0.33 -0.23,-0.55z"/>
    <path id="_17_16" class="fil2" d="M285.9 266.34c0,-0.94 0.21,-1.78 0.64,-2.52 0.43,-0.74 1.02,-1.32 1.78,-1.75 0.75,-0.43 1.62,-0.64 2.59,-0.64 0.98,-0.01 1.85,0.2 2.6,0.63 0.75,0.44 1.34,1.02 1.76,1.76 0.43,0.74 0.65,1.58 0.65,2.52 0,0.95 -0.22,1.79 -0.65,2.54 -0.42,0.74 -1.01,1.32 -1.76,1.74 -0.75,0.43 -1.62,0.64 -2.6,0.64 -0.97,0.01 -1.84,-0.2 -2.59,-0.63 -0.76,-0.42 -1.35,-1.01 -1.78,-1.76 -0.43,-0.75 -0.64,-1.6 -0.64,-2.53zm0.85 0c0,0.76 0.17,1.44 0.52,2.04 0.35,0.61 0.84,1.08 1.46,1.42 0.64,0.34 1.36,0.52 2.18,0.53 0.83,-0.01 1.56,-0.19 2.18,-0.53 0.63,-0.34 1.11,-0.81 1.46,-1.42 0.34,-0.6 0.52,-1.28 0.54,-2.04 -0.02,-0.75 -0.2,-1.43 -0.54,-2.03 -0.35,-0.6 -0.83,-1.07 -1.46,-1.42 -0.62,-0.34 -1.35,-0.52 -2.18,-0.54 -0.82,0.02 -1.54,0.2 -2.18,0.54 -0.62,0.35 -1.12,0.82 -1.47,1.41 -0.35,0.59 -0.52,1.27 -0.51,2.04z"/>
    <polygon class="fil2" points="28.51,14.02 28.49,0.79 31.58,0.79 38.87,9.6 37.44,9.6 37.42,0.79 41.08,0.79 41.08,14.02 38,14.02 30.71,5.22 32.16,5.22 32.16,14.02 "/>
    <path id="_1_17" class="fil2" d="M50.38 14.25c-1.03,0.01 -2,-0.15 -2.9,-0.48 -0.9,-0.34 -1.68,-0.81 -2.34,-1.44 -0.67,-0.62 -1.18,-1.35 -1.53,-2.19 -0.36,-0.84 -0.54,-1.75 -0.54,-2.73 -0.02,-1 0.16,-1.91 0.54,-2.73 0.37,-0.83 0.88,-1.55 1.54,-2.18 0.65,-0.62 1.43,-1.1 2.33,-1.44 0.9,-0.34 1.87,-0.51 2.9,-0.51 1.09,-0.02 2.07,0.15 2.95,0.5 0.88,0.34 1.65,0.83 2.32,1.44 0.66,0.62 1.17,1.35 1.54,2.18 0.36,0.83 0.54,1.74 0.53,2.74 0.01,0.99 -0.17,1.91 -0.53,2.75 -0.37,0.84 -0.88,1.56 -1.54,2.17 -0.67,0.61 -1.44,1.09 -2.32,1.44 -0.88,0.34 -1.86,0.5 -2.95,0.48zm0 -3.02c0.52,-0.03 0.99,-0.13 1.43,-0.31 0.43,-0.17 0.81,-0.43 1.13,-0.76 0.32,-0.34 0.58,-0.73 0.77,-1.19 0.19,-0.46 0.28,-0.98 0.28,-1.56 -0.01,-0.58 -0.11,-1.11 -0.29,-1.57 -0.18,-0.47 -0.44,-0.86 -0.76,-1.19 -0.32,-0.33 -0.69,-0.58 -1.12,-0.77 -0.43,-0.18 -0.91,-0.28 -1.44,-0.29 -0.49,0.03 -0.96,0.13 -1.4,0.3 -0.44,0.18 -0.82,0.43 -1.14,0.76 -0.32,0.33 -0.57,0.72 -0.75,1.19 -0.17,0.46 -0.27,0.99 -0.28,1.57 0.01,0.56 0.11,1.08 0.28,1.56 0.18,0.47 0.43,0.87 0.76,1.2 0.33,0.33 0.7,0.58 1.13,0.76 0.43,0.19 0.9,0.28 1.4,0.3z"/>
    <path id="_2_18" class="fil2" d="M59.72 14.02l0 -13.23 6.05 0c1.21,0 2.25,0.2 3.13,0.59 0.87,0.39 1.55,0.95 2.03,1.69 0.48,0.74 0.72,1.61 0.72,2.62 0,0.99 -0.24,1.86 -0.72,2.59 -0.48,0.73 -1.16,1.29 -2.03,1.69 -0.88,0.4 -1.92,0.59 -3.13,0.59l-3.97 0 1.66 -1.62 0 5.08 -3.74 0zm3.74 -4.68l-1.66 -1.72 3.74 0c0.78,0 1.37,-0.17 1.75,-0.51 0.38,-0.34 0.58,-0.82 0.58,-1.42 0,-0.62 -0.2,-1.1 -0.58,-1.44 -0.38,-0.34 -0.97,-0.51 -1.75,-0.51l-3.74 0 1.66 -1.72 0 7.32z"/>
    <polygon id="_3_19" class="fil2" points="71.76,14.02 77.54,5.99 77.52,8.66 71.97,0.79 76.18,0.79 79.74,5.92 77.94,5.93 81.44,0.79 85.48,0.79 79.92,8.5 79.92,5.86 85.78,14.02 81.48,14.02 77.86,8.64 79.58,8.64 76.03,14.02 "/>
    <polygon id="_4_20" class="fil2" points="93.28,17.69 93.28,0 94.17,0 94.17,17.69 "/>
    <polygon id="_5_21" class="fil2" points="106.59,14.02 102.09,0.79 103.11,0.79 107.39,13.44 106.88,13.44 111.28,0.79 112.21,0.79 116.57,13.44 116.08,13.44 120.39,0.79 121.33,0.79 116.85,14.02 115.83,14.02 111.6,1.79 111.85,1.79 107.61,14.02 "/>
    <path id="_6_22" class="fil2" d="M127.06 14.1c-0.99,0 -1.87,-0.21 -2.63,-0.64 -0.77,-0.43 -1.37,-1.02 -1.8,-1.78 -0.44,-0.76 -0.65,-1.62 -0.65,-2.59 0,-0.98 0.2,-1.85 0.61,-2.6 0.41,-0.75 0.97,-1.34 1.69,-1.77 0.72,-0.42 1.53,-0.64 2.42,-0.64 0.9,0 1.7,0.21 2.41,0.63 0.71,0.41 1.28,0.99 1.69,1.74 0.4,0.75 0.61,1.62 0.61,2.6 0,0.04 0,0.08 -0.01,0.12 -0.01,0.05 -0.01,0.1 -0.01,0.15l-8.71 0 0 -0.74 8.2 0 -0.38 0.36c0.01,-0.77 -0.15,-1.46 -0.48,-2.07 -0.33,-0.61 -0.79,-1.09 -1.35,-1.44 -0.57,-0.34 -1.22,-0.52 -1.97,-0.52 -0.73,0 -1.38,0.18 -1.95,0.52 -0.58,0.35 -1.03,0.83 -1.36,1.44 -0.32,0.61 -0.49,1.31 -0.49,2.09l0 0.17c0,0.8 0.18,1.52 0.54,2.14 0.36,0.63 0.86,1.11 1.49,1.46 0.63,0.34 1.34,0.52 2.15,0.52 0.63,0 1.22,-0.11 1.77,-0.34 0.55,-0.23 1.01,-0.58 1.39,-1.04l0.55 0.62c-0.43,0.53 -0.97,0.93 -1.62,1.2 -0.65,0.27 -1.35,0.41 -2.11,0.41z"/>
    <path id="_7_23" class="fil2" d="M139.29 14.1c-0.87,0 -1.65,-0.2 -2.35,-0.61 -0.7,-0.4 -1.26,-0.98 -1.67,-1.73 -0.4,-0.76 -0.61,-1.65 -0.61,-2.67 0,-1.05 0.21,-1.94 0.61,-2.68 0.41,-0.75 0.97,-1.32 1.67,-1.72 0.7,-0.41 1.48,-0.61 2.35,-0.61 0.93,0 1.77,0.21 2.51,0.63 0.73,0.43 1.31,1.01 1.73,1.76 0.43,0.75 0.64,1.62 0.64,2.62 0,0.98 -0.21,1.85 -0.64,2.61 -0.42,0.75 -1,1.34 -1.73,1.77 -0.74,0.42 -1.58,0.63 -2.51,0.63zm-4.95 -0.08l0 -14.02 0.94 0 0 7.35 -0.19 1.72 0.16 1.72 0 3.23 -0.91 0zm4.89 -0.77c0.76,0 1.44,-0.18 2.05,-0.52 0.6,-0.35 1.08,-0.84 1.42,-1.47 0.35,-0.63 0.52,-1.35 0.52,-2.17 0,-0.83 -0.17,-1.56 -0.52,-2.18 -0.34,-0.63 -0.82,-1.11 -1.42,-1.46 -0.61,-0.35 -1.29,-0.52 -2.05,-0.52 -0.75,0 -1.43,0.17 -2.03,0.52 -0.6,0.35 -1.07,0.83 -1.41,1.46 -0.35,0.62 -0.53,1.35 -0.53,2.18 0,0.82 0.18,1.54 0.53,2.17 0.34,0.63 0.81,1.12 1.41,1.47 0.6,0.34 1.28,0.52 2.03,0.52z"/>
    <path id="_8_24" class="fil2" d="M161.56 14.21l-7.22 -7.6c-0.44,-0.46 -0.79,-0.87 -1.04,-1.22 -0.26,-0.36 -0.43,-0.69 -0.52,-1 -0.1,-0.31 -0.14,-0.63 -0.14,-0.97 0,-0.54 0.12,-1.02 0.38,-1.42 0.26,-0.4 0.63,-0.72 1.1,-0.94 0.47,-0.23 1.02,-0.34 1.65,-0.34 0.6,0 1.11,0.1 1.54,0.3 0.44,0.2 0.78,0.49 1.01,0.86 0.24,0.37 0.36,0.82 0.36,1.35 0,0.47 -0.11,0.9 -0.33,1.29 -0.22,0.4 -0.59,0.8 -1.1,1.2 -0.52,0.39 -1.23,0.84 -2.12,1.35 -0.83,0.48 -1.49,0.91 -1.96,1.3 -0.48,0.39 -0.82,0.77 -1.02,1.15 -0.19,0.37 -0.29,0.77 -0.29,1.21 0,0.52 0.15,0.97 0.43,1.37 0.3,0.39 0.69,0.69 1.21,0.9 0.51,0.22 1.1,0.32 1.78,0.32 0.91,0 1.72,-0.18 2.42,-0.55 0.71,-0.38 1.3,-0.94 1.78,-1.69 0.48,-0.76 0.82,-1.71 1.04,-2.86l0.77 0.25c-0.24,1.24 -0.63,2.29 -1.19,3.12 -0.55,0.84 -1.24,1.47 -2.06,1.89 -0.82,0.43 -1.75,0.64 -2.8,0.64 -0.83,0 -1.57,-0.14 -2.22,-0.42 -0.65,-0.28 -1.16,-0.66 -1.53,-1.16 -0.37,-0.5 -0.56,-1.07 -0.56,-1.73 0,-0.54 0.12,-1.04 0.36,-1.5 0.24,-0.46 0.64,-0.92 1.18,-1.38 0.55,-0.46 1.29,-0.95 2.21,-1.47 0.8,-0.46 1.44,-0.87 1.91,-1.21 0.46,-0.34 0.79,-0.66 0.98,-0.98 0.19,-0.31 0.28,-0.65 0.28,-1.02 0,-0.54 -0.18,-0.98 -0.54,-1.3 -0.36,-0.33 -0.87,-0.5 -1.54,-0.5 -0.7,0 -1.25,0.18 -1.65,0.54 -0.4,0.36 -0.6,0.84 -0.6,1.43 0,0.28 0.05,0.54 0.14,0.79 0.08,0.26 0.24,0.54 0.48,0.85 0.23,0.3 0.56,0.68 0.97,1.14l7.01 7.39 -0.56 0.62z"/>
    <path id="_9_25" class="fil2" d="M167.28 14.02l6.09 -13.23 0.96 0 6.09 13.23 -1.04 0 -5.74 -12.62 0.41 0 -5.73 12.62 -1.04 0zm2.23 -3.72l0.33 -0.81 7.92 0 0.32 0.81 -8.57 0z"/>
    <path id="_10_26" class="fil2" d="M187.47 14.1c-0.87,0 -1.65,-0.2 -2.35,-0.61 -0.7,-0.4 -1.26,-0.98 -1.67,-1.72 -0.4,-0.75 -0.61,-1.65 -0.61,-2.68 0,-1.03 0.21,-1.92 0.61,-2.67 0.41,-0.75 0.97,-1.33 1.67,-1.73 0.7,-0.41 1.48,-0.61 2.35,-0.61 0.93,0 1.77,0.21 2.51,0.63 0.73,0.43 1.31,1.02 1.73,1.77 0.43,0.76 0.64,1.63 0.64,2.61 0,0.98 -0.21,1.85 -0.64,2.61 -0.42,0.75 -1,1.34 -1.73,1.77 -0.74,0.42 -1.58,0.63 -2.51,0.63zm-4.95 3.59l0 -13.53 0.91 0 0 3.23 -0.16 1.72 0.19 1.72 0 6.86 -0.94 0zm4.89 -4.44c0.76,0 1.44,-0.18 2.05,-0.52 0.6,-0.35 1.08,-0.84 1.42,-1.47 0.35,-0.63 0.52,-1.35 0.52,-2.17 0,-0.83 -0.17,-1.56 -0.52,-2.18 -0.34,-0.63 -0.82,-1.11 -1.42,-1.46 -0.61,-0.35 -1.29,-0.52 -2.05,-0.52 -0.75,0 -1.43,0.17 -2.03,0.52 -0.6,0.35 -1.07,0.83 -1.41,1.46 -0.35,0.62 -0.53,1.35 -0.53,2.18 0,0.82 0.18,1.54 0.53,2.17 0.34,0.63 0.81,1.12 1.41,1.47 0.6,0.34 1.28,0.52 2.03,0.52z"/>
    <path id="_11_27" class="fil2" d="M200.23 14.1c-0.87,0 -1.65,-0.2 -2.35,-0.61 -0.7,-0.4 -1.26,-0.98 -1.67,-1.72 -0.41,-0.75 -0.61,-1.65 -0.61,-2.68 0,-1.03 0.2,-1.92 0.61,-2.67 0.41,-0.75 0.97,-1.33 1.67,-1.73 0.7,-0.41 1.48,-0.61 2.35,-0.61 0.93,0 1.77,0.21 2.5,0.63 0.74,0.43 1.32,1.02 1.74,1.77 0.42,0.76 0.64,1.63 0.64,2.61 0,0.98 -0.22,1.85 -0.64,2.61 -0.42,0.75 -1,1.34 -1.74,1.77 -0.73,0.42 -1.57,0.63 -2.5,0.63zm-4.95 3.59l0 -13.53 0.9 0 0 3.23 -0.15 1.72 0.19 1.72 0 6.86 -0.94 0zm4.89 -4.44c0.76,0 1.44,-0.18 2.04,-0.52 0.61,-0.35 1.08,-0.84 1.43,-1.47 0.35,-0.63 0.52,-1.35 0.52,-2.17 0,-0.83 -0.17,-1.56 -0.52,-2.18 -0.35,-0.63 -0.82,-1.11 -1.43,-1.46 -0.6,-0.35 -1.28,-0.52 -2.04,-0.52 -0.75,0 -1.43,0.17 -2.03,0.52 -0.6,0.35 -1.07,0.83 -1.42,1.46 -0.34,0.62 -0.52,1.35 -0.52,2.18 0,0.82 0.18,1.54 0.52,2.17 0.35,0.63 0.82,1.12 1.42,1.47 0.6,0.34 1.28,0.52 2.03,0.52z"/>
    <path id="_12_28" class="fil2" d="M216.67 14.12c-0.98,0 -1.91,-0.17 -2.78,-0.5 -0.88,-0.34 -1.56,-0.77 -2.04,-1.3l0.44 -0.72c0.45,0.47 1.07,0.86 1.86,1.19 0.79,0.32 1.62,0.48 2.5,0.48 0.89,0 1.61,-0.12 2.17,-0.35 0.56,-0.24 0.98,-0.55 1.25,-0.94 0.27,-0.39 0.4,-0.82 0.4,-1.3 0,-0.57 -0.15,-1.02 -0.45,-1.36 -0.3,-0.34 -0.7,-0.61 -1.19,-0.82 -0.49,-0.2 -1.03,-0.37 -1.61,-0.51 -0.58,-0.13 -1.16,-0.28 -1.76,-0.44 -0.59,-0.16 -1.13,-0.36 -1.62,-0.61 -0.49,-0.26 -0.89,-0.6 -1.18,-1.03 -0.3,-0.44 -0.45,-1 -0.45,-1.7 0,-0.63 0.17,-1.21 0.49,-1.74 0.33,-0.52 0.84,-0.95 1.54,-1.28 0.69,-0.33 1.58,-0.49 2.66,-0.49 0.73,0 1.45,0.11 2.16,0.32 0.72,0.21 1.32,0.5 1.83,0.87l-0.36 0.77c-0.56,-0.37 -1.15,-0.65 -1.79,-0.84 -0.63,-0.18 -1.25,-0.27 -1.84,-0.27 -0.84,0 -1.54,0.12 -2.1,0.36 -0.55,0.24 -0.96,0.55 -1.23,0.95 -0.26,0.4 -0.39,0.84 -0.39,1.33 0,0.57 0.15,1.03 0.44,1.37 0.3,0.34 0.69,0.61 1.18,0.81 0.49,0.2 1.04,0.37 1.63,0.51 0.59,0.14 1.18,0.29 1.76,0.44 0.58,0.16 1.11,0.37 1.6,0.62 0.49,0.25 0.89,0.59 1.19,1.02 0.31,0.43 0.46,0.98 0.46,1.66 0,0.62 -0.17,1.19 -0.51,1.73 -0.34,0.54 -0.86,0.96 -1.56,1.29 -0.7,0.32 -1.6,0.48 -2.7,0.48z"/>
    <path id="_13_29" class="fil2" d="M227.28 14.1c-0.87,0 -1.54,-0.24 -2,-0.72 -0.46,-0.48 -0.69,-1.13 -0.69,-1.96l0 -9.42 0.95 0 0 9.32c0,0.63 0.16,1.12 0.47,1.46 0.32,0.34 0.77,0.51 1.36,0.51 0.62,0 1.13,-0.19 1.53,-0.55l0.4 0.66c-0.25,0.24 -0.56,0.42 -0.92,0.53 -0.36,0.11 -0.72,0.17 -1.1,0.17zm-4.5 -9.13l0 -0.81 5.9 0 0 0.81 -5.9 0z"/>
    <path id="_14_30" class="fil2" d="M235.93 14.1c-0.84,0 -1.57,-0.16 -2.19,-0.46 -0.62,-0.31 -1.09,-0.78 -1.43,-1.4 -0.33,-0.63 -0.5,-1.4 -0.5,-2.32l0 -5.76 0.95 0 0 5.69c0,1.1 0.28,1.95 0.85,2.53 0.57,0.58 1.37,0.87 2.4,0.87 0.74,0 1.39,-0.16 1.93,-0.47 0.54,-0.32 0.96,-0.76 1.24,-1.34 0.3,-0.57 0.44,-1.25 0.44,-2.03l0 -5.25 0.95 0 0 9.86 -0.91 0 0 -2.74 0.13 0.32c-0.29,0.77 -0.77,1.38 -1.45,1.83 -0.67,0.45 -1.47,0.67 -2.41,0.67z"/>
    <path id="_15_31" class="fil2" d="M248.37 14.1c-0.92,0 -1.75,-0.21 -2.48,-0.63 -0.74,-0.43 -1.32,-1.02 -1.75,-1.77 -0.43,-0.76 -0.65,-1.63 -0.65,-2.61 0,-1 0.22,-1.87 0.65,-2.62 0.43,-0.75 1.01,-1.33 1.75,-1.76 0.73,-0.42 1.56,-0.63 2.48,-0.63 0.87,0 1.65,0.2 2.35,0.61 0.7,0.4 1.26,0.97 1.67,1.72 0.41,0.74 0.61,1.63 0.61,2.68 0,1.02 -0.2,1.91 -0.6,2.67 -0.41,0.75 -0.96,1.33 -1.66,1.73 -0.7,0.41 -1.49,0.61 -2.37,0.61zm0.06 -0.85c0.75,0 1.43,-0.18 2.03,-0.52 0.6,-0.35 1.07,-0.84 1.42,-1.47 0.34,-0.63 0.52,-1.35 0.52,-2.17 0,-0.83 -0.18,-1.56 -0.52,-2.18 -0.35,-0.63 -0.82,-1.11 -1.42,-1.46 -0.6,-0.35 -1.28,-0.52 -2.03,-0.52 -0.76,0 -1.44,0.17 -2.03,0.52 -0.6,0.35 -1.07,0.83 -1.42,1.46 -0.35,0.62 -0.52,1.35 -0.52,2.18 0,0.82 0.17,1.54 0.52,2.17 0.35,0.63 0.82,1.12 1.42,1.47 0.59,0.34 1.27,0.52 2.03,0.52zm3.99 0.77l0 -3.23 0.17 -1.72 -0.19 -1.72 0 -7.35 0.94 0 0 14.02 -0.92 0z"/>
    <path id="_16_32" class="fil2" d="M257.33 14.02l0 -9.86 0.93 0 0.01 9.86 -0.94 0zm0.47 -12.26c-0.21,0 -0.39,-0.08 -0.55,-0.23 -0.15,-0.15 -0.22,-0.33 -0.22,-0.53 0,-0.21 0.07,-0.4 0.22,-0.55 0.16,-0.15 0.34,-0.22 0.55,-0.22 0.23,0 0.42,0.07 0.56,0.21 0.15,0.15 0.22,0.33 0.22,0.54 0,0.22 -0.07,0.4 -0.22,0.55 -0.14,0.15 -0.33,0.23 -0.56,0.23z"/>
    <path id="_17_33" class="fil2" d="M266.12 14.1c-0.95,0 -1.79,-0.21 -2.52,-0.64 -0.74,-0.43 -1.32,-1.02 -1.75,-1.78 -0.43,-0.76 -0.64,-1.62 -0.64,-2.59 -0.02,-0.98 0.19,-1.85 0.63,-2.6 0.43,-0.75 1.02,-1.34 1.76,-1.77 0.73,-0.42 1.57,-0.64 2.52,-0.64 0.94,0 1.79,0.22 2.53,0.64 0.75,0.43 1.33,1.02 1.75,1.77 0.42,0.75 0.63,1.62 0.63,2.6 0.02,0.97 -0.19,1.83 -0.62,2.59 -0.43,0.76 -1.02,1.35 -1.77,1.78 -0.75,0.43 -1.59,0.64 -2.52,0.64zm0 -0.85c0.76,0 1.44,-0.18 2.04,-0.52 0.61,-0.35 1.08,-0.84 1.42,-1.47 0.34,-0.63 0.52,-1.35 0.53,-2.17 -0.01,-0.83 -0.19,-1.56 -0.53,-2.18 -0.34,-0.63 -0.81,-1.11 -1.42,-1.46 -0.6,-0.35 -1.28,-0.52 -2.04,-0.54 -0.76,0.02 -1.43,0.19 -2.03,0.54 -0.6,0.35 -1.07,0.83 -1.42,1.46 -0.35,0.62 -0.53,1.35 -0.54,2.18 0.01,0.82 0.19,1.54 0.54,2.17 0.35,0.63 0.82,1.13 1.41,1.48 0.59,0.35 1.27,0.52 2.04,0.51z"/>
    <polygon class="fil2" points="271.26,285.98 271.28,299.21 268.2,299.21 260.91,290.4 262.34,290.4 262.36,299.21 258.69,299.21 258.69,285.98 261.77,285.98 269.07,294.78 267.62,294.78 267.62,285.98 "/>
    <path id="_1_34" class="fil2" d="M249.4 285.75c1.03,-0.01 1.99,0.15 2.9,0.48 0.9,0.34 1.68,0.81 2.34,1.44 0.66,0.62 1.17,1.35 1.53,2.19 0.36,0.84 0.54,1.75 0.54,2.73 0.01,1 -0.17,1.91 -0.54,2.73 -0.37,0.83 -0.88,1.55 -1.54,2.18 -0.65,0.62 -1.43,1.1 -2.33,1.44 -0.91,0.34 -1.87,0.51 -2.9,0.51 -1.09,0.02 -2.07,-0.15 -2.95,-0.5 -0.89,-0.34 -1.66,-0.83 -2.32,-1.44 -0.66,-0.62 -1.17,-1.35 -1.54,-2.18 -0.37,-0.83 -0.54,-1.74 -0.53,-2.74 -0.01,-0.99 0.16,-1.91 0.53,-2.75 0.37,-0.84 0.88,-1.56 1.54,-2.17 0.66,-0.61 1.43,-1.09 2.32,-1.44 0.88,-0.34 1.86,-0.5 2.95,-0.48zm0 3.02c-0.52,0.03 -1,0.13 -1.43,0.31 -0.44,0.17 -0.82,0.43 -1.14,0.76 -0.32,0.34 -0.57,0.73 -0.76,1.19 -0.19,0.46 -0.29,0.98 -0.29,1.56 0.02,0.58 0.12,1.11 0.3,1.57 0.18,0.47 0.43,0.86 0.75,1.19 0.32,0.33 0.7,0.58 1.13,0.77 0.43,0.18 0.91,0.28 1.44,0.29 0.49,-0.03 0.95,-0.13 1.39,-0.3 0.44,-0.18 0.83,-0.43 1.15,-0.76 0.32,-0.33 0.57,-0.72 0.74,-1.19 0.18,-0.46 0.28,-0.99 0.29,-1.57 -0.01,-0.56 -0.11,-1.08 -0.29,-1.56 -0.17,-0.47 -0.42,-0.87 -0.75,-1.2 -0.33,-0.33 -0.71,-0.58 -1.14,-0.76 -0.43,-0.19 -0.89,-0.28 -1.39,-0.3z"/>
    <path id="_2_35" class="fil2" d="M240.06 285.98l0 13.23 -6.05 0c-1.21,0 -2.25,-0.2 -3.13,-0.59 -0.88,-0.39 -1.55,-0.95 -2.03,-1.69 -0.48,-0.74 -0.72,-1.61 -0.72,-2.62 0,-0.99 0.24,-1.86 0.72,-2.59 0.48,-0.73 1.15,-1.29 2.03,-1.69 0.88,-0.4 1.92,-0.59 3.13,-0.59l3.97 0 -1.67 1.62 0 -5.08 3.75 0zm-3.75 4.68l1.67 1.72 -3.74 0c-0.79,0 -1.37,0.17 -1.75,0.51 -0.39,0.34 -0.58,0.82 -0.58,1.42 0,0.62 0.19,1.1 0.58,1.44 0.38,0.34 0.96,0.51 1.75,0.51l3.74 0 -1.67 1.72 0 -7.32z"/>
    <polygon id="_3_36" class="fil2" points="228.02,285.98 222.23,294.01 222.25,291.34 227.81,299.21 223.59,299.21 220.04,294.08 221.84,294.07 218.34,299.21 214.29,299.21 219.85,291.5 219.85,294.14 213.99,285.98 218.3,285.98 221.91,291.36 220.19,291.36 223.75,285.98 "/>
    <polygon id="_4_37" class="fil2" points="206.49,282.31 206.49,300 205.6,300 205.6,282.31 "/>
    <polygon id="_5_38" class="fil2" points="193.18,285.98 197.68,299.21 196.66,299.21 192.39,286.56 192.9,286.56 188.5,299.21 187.57,299.21 183.21,286.56 183.7,286.56 179.39,299.21 178.44,299.21 182.92,285.98 183.94,285.98 188.18,298.21 187.93,298.21 192.16,285.98 "/>
    <path id="_6_39" class="fil2" d="M172.72 285.9c0.99,0 1.87,0.21 2.63,0.64 0.76,0.43 1.36,1.02 1.8,1.78 0.43,0.76 0.65,1.62 0.65,2.59 0,0.98 -0.21,1.85 -0.61,2.6 -0.41,0.75 -0.98,1.34 -1.7,1.77 -0.72,0.42 -1.52,0.64 -2.42,0.64 -0.89,0 -1.69,-0.21 -2.41,-0.63 -0.71,-0.41 -1.27,-0.99 -1.68,-1.74 -0.41,-0.75 -0.61,-1.62 -0.61,-2.6 0,-0.04 0,-0.08 0.01,-0.12 0,-0.05 0.01,-0.1 0.01,-0.15l8.71 0 0 0.74 -8.2 0 0.37 -0.36c-0.01,0.77 0.15,1.46 0.49,2.07 0.33,0.61 0.78,1.09 1.35,1.44 0.57,0.34 1.22,0.52 1.96,0.52 0.74,0 1.39,-0.18 1.96,-0.52 0.57,-0.35 1.02,-0.83 1.35,-1.44 0.33,-0.61 0.49,-1.31 0.49,-2.09l0 -0.17c0,-0.8 -0.18,-1.52 -0.53,-2.14 -0.36,-0.63 -0.86,-1.11 -1.49,-1.46 -0.63,-0.34 -1.35,-0.52 -2.15,-0.52 -0.63,0 -1.22,0.11 -1.77,0.34 -0.55,0.23 -1.01,0.58 -1.39,1.04l-0.55 -0.62c0.43,-0.53 0.97,-0.93 1.62,-1.2 0.65,-0.27 1.35,-0.41 2.11,-0.41z"/>
    <path id="_7_40" class="fil2" d="M160.49 285.9c0.87,0 1.65,0.2 2.35,0.61 0.7,0.4 1.25,0.98 1.66,1.73 0.41,0.76 0.62,1.65 0.62,2.67 0,1.05 -0.21,1.94 -0.62,2.68 -0.41,0.75 -0.96,1.32 -1.66,1.72 -0.7,0.41 -1.48,0.61 -2.35,0.61 -0.94,0 -1.77,-0.21 -2.51,-0.63 -0.74,-0.43 -1.31,-1.01 -1.74,-1.76 -0.42,-0.75 -0.63,-1.62 -0.63,-2.62 0,-0.98 0.21,-1.85 0.63,-2.61 0.43,-0.75 1,-1.34 1.74,-1.77 0.74,-0.42 1.57,-0.63 2.51,-0.63zm4.95 0.08l0 14.02 -0.95 0 0 -7.35 0.19 -1.72 -0.15 -1.72 0 -3.23 0.91 0zm-4.9 0.77c-0.75,0 -1.43,0.18 -2.04,0.52 -0.6,0.35 -1.08,0.84 -1.43,1.47 -0.34,0.63 -0.52,1.35 -0.52,2.17 0,0.83 0.18,1.56 0.52,2.18 0.35,0.63 0.83,1.11 1.43,1.46 0.61,0.35 1.29,0.52 2.04,0.52 0.76,0 1.44,-0.17 2.03,-0.52 0.6,-0.35 1.08,-0.83 1.42,-1.46 0.35,-0.62 0.52,-1.35 0.52,-2.18 0,-0.82 -0.17,-1.54 -0.52,-2.17 -0.34,-0.63 -0.82,-1.12 -1.42,-1.47 -0.59,-0.34 -1.27,-0.52 -2.03,-0.52z"/>
    <path id="_8_41" class="fil2" d="M138.22 285.79l7.22 7.6c0.44,0.46 0.79,0.87 1.04,1.22 0.25,0.36 0.43,0.69 0.52,1 0.09,0.31 0.14,0.63 0.14,0.97 0,0.54 -0.13,1.02 -0.39,1.42 -0.25,0.4 -0.62,0.72 -1.09,0.94 -0.48,0.23 -1.03,0.34 -1.66,0.34 -0.59,0 -1.1,-0.1 -1.54,-0.3 -0.43,-0.2 -0.77,-0.49 -1.01,-0.86 -0.24,-0.37 -0.36,-0.82 -0.36,-1.35 0,-0.47 0.11,-0.9 0.33,-1.29 0.22,-0.4 0.59,-0.8 1.11,-1.2 0.52,-0.39 1.22,-0.84 2.12,-1.35 0.83,-0.48 1.48,-0.91 1.96,-1.3 0.48,-0.39 0.82,-0.77 1.01,-1.15 0.2,-0.37 0.3,-0.77 0.3,-1.21 0,-0.52 -0.15,-0.97 -0.44,-1.37 -0.29,-0.39 -0.69,-0.69 -1.2,-0.9 -0.51,-0.22 -1.1,-0.32 -1.79,-0.32 -0.9,0 -1.71,0.18 -2.41,0.55 -0.71,0.38 -1.3,0.94 -1.78,1.69 -0.48,0.76 -0.83,1.71 -1.04,2.86l-0.78 -0.25c0.24,-1.24 0.64,-2.29 1.19,-3.12 0.56,-0.84 1.25,-1.47 2.07,-1.89 0.81,-0.43 1.75,-0.64 2.79,-0.64 0.83,0 1.57,0.14 2.22,0.42 0.65,0.28 1.16,0.66 1.54,1.16 0.37,0.5 0.55,1.07 0.55,1.73 0,0.54 -0.12,1.04 -0.36,1.5 -0.24,0.46 -0.63,0.92 -1.18,1.38 -0.55,0.46 -1.28,0.95 -2.2,1.47 -0.81,0.46 -1.44,0.87 -1.91,1.21 -0.47,0.34 -0.79,0.66 -0.98,0.98 -0.19,0.31 -0.29,0.65 -0.29,1.02 0,0.54 0.18,0.98 0.54,1.3 0.36,0.33 0.88,0.5 1.54,0.5 0.71,0 1.26,-0.18 1.66,-0.54 0.39,-0.36 0.59,-0.84 0.59,-1.43 0,-0.28 -0.04,-0.54 -0.13,-0.79 -0.09,-0.26 -0.25,-0.54 -0.48,-0.85 -0.23,-0.3 -0.56,-0.68 -0.98,-1.14l-7.01 -7.39 0.57 -0.62z"/>
    <path id="_9_42" class="fil2" d="M132.49 285.98l-6.08 13.23 -0.97 0 -6.08 -13.23 1.04 0 5.74 12.62 -0.41 0 5.72 -12.62 1.04 0zm-2.23 3.72l-0.32 0.81 -7.92 0 -0.32 -0.81 8.56 0z"/>
    <path id="_10_43" class="fil2" d="M112.31 285.9c0.87,0 1.65,0.2 2.35,0.61 0.7,0.4 1.25,0.98 1.66,1.72 0.41,0.75 0.62,1.65 0.62,2.68 0,1.03 -0.21,1.92 -0.62,2.67 -0.41,0.75 -0.96,1.33 -1.66,1.73 -0.7,0.41 -1.48,0.61 -2.35,0.61 -0.94,0 -1.77,-0.21 -2.51,-0.63 -0.74,-0.43 -1.31,-1.02 -1.74,-1.77 -0.42,-0.76 -0.63,-1.63 -0.63,-2.61 0,-0.98 0.21,-1.85 0.63,-2.61 0.43,-0.75 1,-1.34 1.74,-1.77 0.74,-0.42 1.57,-0.63 2.51,-0.63zm4.95 -3.59l0 13.53 -0.91 0 0 -3.23 0.15 -1.72 -0.19 -1.72 0 -6.86 0.95 0zm-4.9 4.44c-0.75,0 -1.43,0.18 -2.04,0.52 -0.6,0.35 -1.08,0.84 -1.43,1.47 -0.34,0.63 -0.52,1.35 -0.52,2.17 0,0.83 0.18,1.56 0.52,2.18 0.35,0.63 0.83,1.11 1.43,1.46 0.61,0.35 1.29,0.52 2.04,0.52 0.76,0 1.44,-0.17 2.03,-0.52 0.6,-0.35 1.08,-0.83 1.42,-1.46 0.35,-0.62 0.52,-1.35 0.52,-2.18 0,-0.82 -0.17,-1.54 -0.52,-2.17 -0.34,-0.63 -0.82,-1.12 -1.42,-1.47 -0.59,-0.34 -1.27,-0.52 -2.03,-0.52z"/>
    <path id="_11_44" class="fil2" d="M99.55 285.9c0.87,0 1.65,0.2 2.35,0.61 0.7,0.4 1.25,0.98 1.66,1.72 0.41,0.75 0.62,1.65 0.62,2.68 0,1.03 -0.21,1.92 -0.62,2.67 -0.41,0.75 -0.96,1.33 -1.66,1.73 -0.7,0.41 -1.48,0.61 -2.35,0.61 -0.94,0 -1.77,-0.21 -2.51,-0.63 -0.73,-0.43 -1.31,-1.02 -1.74,-1.77 -0.42,-0.76 -0.63,-1.63 -0.63,-2.61 0,-0.98 0.21,-1.85 0.63,-2.61 0.43,-0.75 1.01,-1.34 1.74,-1.77 0.74,-0.42 1.57,-0.63 2.51,-0.63zm4.95 -3.59l0 13.53 -0.91 0 0 -3.23 0.15 -1.72 -0.18 -1.72 0 -6.86 0.94 0zm-4.9 4.44c-0.75,0 -1.43,0.18 -2.04,0.52 -0.6,0.35 -1.08,0.84 -1.42,1.47 -0.35,0.63 -0.52,1.35 -0.52,2.17 0,0.83 0.17,1.56 0.52,2.18 0.34,0.63 0.82,1.11 1.42,1.46 0.61,0.35 1.29,0.52 2.04,0.52 0.76,0 1.44,-0.17 2.04,-0.52 0.59,-0.35 1.07,-0.83 1.41,-1.46 0.35,-0.62 0.52,-1.35 0.52,-2.18 0,-0.82 -0.17,-1.54 -0.52,-2.17 -0.34,-0.63 -0.82,-1.12 -1.41,-1.47 -0.6,-0.34 -1.28,-0.52 -2.04,-0.52z"/>
    <path id="_12_45" class="fil2" d="M83.1 285.88c0.99,0 1.92,0.17 2.79,0.5 0.88,0.34 1.55,0.77 2.03,1.3l-0.43 0.72c-0.46,-0.47 -1.08,-0.86 -1.86,-1.19 -0.79,-0.32 -1.63,-0.48 -2.51,-0.48 -0.88,0 -1.6,0.12 -2.16,0.35 -0.56,0.24 -0.98,0.55 -1.25,0.94 -0.27,0.39 -0.41,0.82 -0.41,1.3 0,0.57 0.16,1.02 0.46,1.36 0.3,0.34 0.7,0.61 1.19,0.82 0.49,0.2 1.03,0.37 1.6,0.51 0.58,0.13 1.17,0.28 1.76,0.44 0.6,0.16 1.14,0.36 1.63,0.61 0.49,0.26 0.88,0.6 1.18,1.03 0.3,0.44 0.44,1 0.44,1.7 0,0.63 -0.16,1.21 -0.49,1.74 -0.33,0.52 -0.84,0.95 -1.53,1.28 -0.69,0.33 -1.58,0.49 -2.66,0.49 -0.73,0 -1.46,-0.11 -2.17,-0.32 -0.71,-0.21 -1.32,-0.5 -1.82,-0.87l0.36 -0.77c0.55,0.37 1.15,0.65 1.78,0.84 0.64,0.18 1.25,0.27 1.85,0.27 0.84,0 1.54,-0.12 2.09,-0.36 0.56,-0.24 0.97,-0.55 1.23,-0.95 0.27,-0.4 0.4,-0.84 0.4,-1.33 0,-0.57 -0.15,-1.03 -0.44,-1.37 -0.3,-0.34 -0.69,-0.61 -1.19,-0.81 -0.49,-0.2 -1.03,-0.37 -1.62,-0.51 -0.59,-0.14 -1.18,-0.29 -1.76,-0.44 -0.58,-0.16 -1.11,-0.37 -1.61,-0.62 -0.49,-0.25 -0.88,-0.59 -1.19,-1.02 -0.3,-0.43 -0.45,-0.98 -0.45,-1.66 0,-0.62 0.17,-1.19 0.51,-1.73 0.34,-0.54 0.86,-0.96 1.56,-1.29 0.7,-0.32 1.6,-0.48 2.69,-0.48z"/>
    <path id="_13_46" class="fil2" d="M72.5 285.9c0.87,0 1.53,0.24 1.99,0.72 0.46,0.48 0.69,1.13 0.69,1.96l0 9.42 -0.94 0 0 -9.32c0,-0.63 -0.16,-1.12 -0.47,-1.46 -0.32,-0.34 -0.77,-0.51 -1.37,-0.51 -0.61,0 -1.12,0.19 -1.53,0.55l-0.39 -0.66c0.25,-0.24 0.55,-0.42 0.91,-0.53 0.36,-0.11 0.73,-0.17 1.11,-0.17zm4.5 9.13l0 0.81 -5.9 0 0 -0.81 5.9 0z"/>
    <path id="_14_47" class="fil2" d="M63.84 285.9c0.85,0 1.58,0.16 2.19,0.46 0.62,0.31 1.1,0.78 1.43,1.4 0.34,0.63 0.5,1.4 0.5,2.32l0 5.76 -0.94 0 0 -5.69c0,-1.1 -0.28,-1.95 -0.85,-2.53 -0.57,-0.58 -1.37,-0.87 -2.4,-0.87 -0.75,0 -1.39,0.16 -1.93,0.47 -0.54,0.32 -0.96,0.76 -1.25,1.34 -0.29,0.57 -0.43,1.25 -0.43,2.03l0 5.25 -0.95 0 0 -9.86 0.91 0 0 2.74 -0.13 -0.32c0.29,-0.77 0.77,-1.38 1.44,-1.83 0.68,-0.45 1.48,-0.67 2.41,-0.67z"/>
    <path id="_15_48" class="fil2" d="M51.41 285.9c0.92,0 1.74,0.21 2.48,0.63 0.74,0.43 1.32,1.02 1.75,1.77 0.43,0.76 0.64,1.63 0.64,2.61 0,1 -0.21,1.87 -0.64,2.62 -0.43,0.75 -1.01,1.33 -1.75,1.76 -0.74,0.42 -1.56,0.63 -2.48,0.63 -0.87,0 -1.66,-0.2 -2.36,-0.61 -0.7,-0.4 -1.25,-0.97 -1.66,-1.72 -0.41,-0.74 -0.62,-1.63 -0.62,-2.68 0,-1.02 0.21,-1.91 0.61,-2.67 0.4,-0.75 0.95,-1.33 1.65,-1.73 0.7,-0.41 1.49,-0.61 2.38,-0.61zm-0.06 0.85c-0.76,0 -1.43,0.18 -2.03,0.52 -0.6,0.35 -1.07,0.84 -1.42,1.47 -0.35,0.63 -0.52,1.35 -0.52,2.17 0,0.83 0.17,1.56 0.52,2.18 0.35,0.63 0.82,1.11 1.42,1.46 0.6,0.35 1.27,0.52 2.03,0.52 0.75,0 1.43,-0.17 2.03,-0.52 0.6,-0.35 1.07,-0.83 1.42,-1.46 0.34,-0.62 0.52,-1.35 0.52,-2.18 0,-0.82 -0.18,-1.54 -0.52,-2.17 -0.35,-0.63 -0.82,-1.12 -1.42,-1.47 -0.6,-0.34 -1.28,-0.52 -2.03,-0.52zm-3.99 -0.77l0 3.23 -0.17 1.72 0.19 1.72 0 7.35 -0.95 0 0 -14.02 0.93 0z"/>
    <path id="_16_49" class="fil2" d="M42.45 285.98l0 9.86 -0.93 0 -0.02 -9.86 0.95 0zm-0.48 12.26c0.22,0 0.4,0.08 0.55,0.23 0.15,0.15 0.23,0.33 0.23,0.53 0,0.21 -0.08,0.4 -0.23,0.55 -0.15,0.15 -0.33,0.22 -0.55,0.22 -0.22,0 -0.41,-0.07 -0.55,-0.21 -0.15,-0.15 -0.22,-0.33 -0.22,-0.54 0,-0.22 0.07,-0.4 0.22,-0.55 0.14,-0.15 0.33,-0.23 0.55,-0.23z"/>
    <path id="_17_50" class="fil2" d="M33.66 285.9c0.94,0 1.78,0.21 2.52,0.64 0.74,0.43 1.32,1.02 1.75,1.78 0.43,0.76 0.64,1.62 0.64,2.59 0.01,0.98 -0.2,1.85 -0.63,2.6 -0.44,0.75 -1.02,1.34 -1.76,1.77 -0.74,0.42 -1.58,0.64 -2.52,0.64 -0.95,0 -1.79,-0.22 -2.54,-0.64 -0.74,-0.43 -1.32,-1.02 -1.74,-1.77 -0.43,-0.75 -0.64,-1.62 -0.64,-2.6 -0.01,-0.97 0.2,-1.83 0.63,-2.59 0.42,-0.76 1.01,-1.35 1.76,-1.78 0.75,-0.43 1.6,-0.64 2.53,-0.64zm0 0.85c-0.76,0 -1.44,0.18 -2.04,0.52 -0.61,0.35 -1.08,0.84 -1.42,1.47 -0.34,0.63 -0.52,1.35 -0.53,2.17 0.01,0.83 0.19,1.56 0.53,2.18 0.34,0.63 0.81,1.11 1.42,1.46 0.6,0.35 1.28,0.52 2.04,0.54 0.75,-0.02 1.43,-0.19 2.03,-0.54 0.6,-0.35 1.07,-0.83 1.42,-1.46 0.34,-0.62 0.52,-1.35 0.54,-2.18 -0.02,-0.82 -0.2,-1.54 -0.54,-2.17 -0.35,-0.63 -0.82,-1.13 -1.41,-1.48 -0.59,-0.35 -1.27,-0.52 -2.04,-0.51z"/>
   </g>
  </g>
 </g>
</svg>
