<svg aria-hidden="true" style="position: absolute; width: 0; height: 0; overflow: hidden;" version="1.1" xmlns="http://www.w3.org/2000/svg" xmlns:xlink="http://www.w3.org/1999/xlink">
<defs>
<symbol id="icon-briefcase" viewBox="0 0 32 32">
<path fill="currentColor" d="M27 7h-5v-1c0-1.657-1.343-3-3-3v0h-6c-1.657 0-3 1.343-3 3v0 1h-5c-1.105 0-2 0.895-2 2v0 16c0 1.105 0.895 2 2 2v0h22c1.105 0 2-0.895 2-2v0-16c0-1.105-0.895-2-2-2v0zM12 6c0-0.552 0.448-1 1-1v0h6c0.552 0 1 0.448 1 1v0 1h-8zM27 9v5.201c-3.176 1.762-6.965 2.799-10.996 2.799-0.001 0-0.003 0-0.004 0h0c-0.001 0-0.003 0-0.004 0-4.031 0-7.82-1.037-11.114-2.857l0.118 0.060v-5.203zM27 25h-22v-8.545c3.21 1.605 6.993 2.545 10.995 2.545 0.002 0 0.003 0 0.005 0h-0c0 0 0 0 0.001 0 4.004 0 7.789-0.94 11.145-2.612l-0.145 0.066v8.546zM13 14c0-0.552 0.448-1 1-1v0h4c0.552 0 1 0.448 1 1s-0.448 1-1 1v0h-4c-0.552 0-1-0.448-1-1v0z"></path>
</symbol>
<symbol id="icon-caret-right" viewBox="0 0 32 32">
<path fill="currentColor" d="M22.707 16.707l-10 10c-0.181 0.181-0.431 0.293-0.707 0.293-0.553 0-1.001-0.448-1.001-1.001 0-0.276 0.112-0.526 0.293-0.707l9.294-9.293-9.294-9.293c-0.181-0.181-0.293-0.431-0.293-0.707 0-0.553 0.448-1.001 1.001-1.001 0.276 0 0.526 0.112 0.707 0.293v0l10 10c0.181 0.181 0.293 0.431 0.293 0.707s-0.112 0.526-0.293 0.707v0z"></path>
</symbol>
<symbol id="icon-clock" viewBox="0 0 32 32">
<path fill="currentColor" d="M16 3c-7.18 0-13 5.82-13 13s5.82 13 13 13c7.18 0 13-5.82 13-13v0c-0.008-7.177-5.823-12.992-12.999-13h-0.001zM16 27c-6.075 0-11-4.925-11-11s4.925-11 11-11c6.075 0 11 4.925 11 11v0c-0.007 6.072-4.928 10.993-10.999 11h-0.001zM24 16c0 0.552-0.448 1-1 1v0h-7c-0.552 0-1-0.448-1-1v0-7c0-0.552 0.448-1 1-1s1 0.448 1 1v0 6h6c0.552 0 1 0.448 1 1v0z"></path>
</symbol>
<symbol id="icon-envelope" viewBox="0 0 32 32">
<path fill="currentColor" d="M28 6h-24c-0.552 0-1 0.448-1 1v0 17c0 1.105 0.895 2 2 2v0h22c1.105 0 2-0.895 2-2v0-17c0-0.552-0.448-1-1-1v0zM16 16.644l-9.429-8.644h18.858zM12.339 16l-7.339 6.726v-13.453zM13.819 17.356l1.5 1.381c0.177 0.163 0.415 0.263 0.676 0.263s0.499-0.1 0.677-0.264l-0.001 0.001 1.5-1.381 7.25 6.644h-18.85zM19.661 16l7.339-6.727v13.455z"></path>
</symbol>
<symbol id="icon-faders" viewBox="0 0 32 32">
<path fill="currentColor" d="M17 15v12c0 0.552-0.448 1-1 1s-1-0.448-1-1v0-12c0-0.552 0.448-1 1-1s1 0.448 1 1v0zM25 24c-0.552 0-1 0.448-1 1v0 2c0 0.552 0.448 1 1 1s1-0.448 1-1v0-2c0-0.552-0.448-1-1-1v0zM28 20h-2v-15c0-0.552-0.448-1-1-1s-1 0.448-1 1v0 15h-2c-0.552 0-1 0.448-1 1s0.448 1 1 1v0h6c0.552 0 1-0.448 1-1s-0.448-1-1-1v0zM7 20c-0.552 0-1 0.448-1 1v0 6c0 0.552 0.448 1 1 1s1-0.448 1-1v0-6c0-0.552-0.448-1-1-1v0zM10 16h-2v-11c0-0.552-0.448-1-1-1s-1 0.448-1 1v0 11h-2c-0.552 0-1 0.448-1 1s0.448 1 1 1v0h6c0.552 0 1-0.448 1-1s-0.448-1-1-1v0zM19 10h-2v-5c0-0.552-0.448-1-1-1s-1 0.448-1 1v0 5h-2c-0.552 0-1 0.448-1 1s0.448 1 1 1v0h6c0.552 0 1-0.448 1-1s-0.448-1-1-1v0z"></path>
</symbol>
<symbol id="icon-gear" viewBox="0 0 32 32">
<path fill="currentColor" d="M16 10c-3.314 0-6 2.686-6 6s2.686 6 6 6c3.314 0 6-2.686 6-6v0c-0.004-3.312-2.688-5.996-6-6h-0zM16 20c-2.209 0-4-1.791-4-4s1.791-4 4-4c2.209 0 4 1.791 4 4v0c0 2.209-1.791 4-4 4v0zM27 16.27q0.008-0.27 0-0.54l1.865-2.33c0.136-0.169 0.219-0.387 0.219-0.624 0-0.092-0.012-0.181-0.036-0.265l0.002 0.007c-0.337-1.247-0.802-2.337-1.394-3.344l0.034 0.063c-0.157-0.267-0.429-0.453-0.745-0.491l-0.005-0-2.965-0.33q-0.185-0.195-0.375-0.375l-0.35-2.973c-0.038-0.322-0.225-0.593-0.488-0.747l-0.005-0.003c-0.944-0.557-2.034-1.022-3.187-1.337l-0.094-0.022c-0.077-0.021-0.166-0.034-0.257-0.034-0.238 0-0.456 0.083-0.627 0.221l0.002-0.002-2.324 1.855q-0.27 0-0.54 0l-2.33-1.861c-0.169-0.136-0.387-0.219-0.624-0.219-0.092 0-0.181 0.012-0.265 0.036l0.007-0.002c-1.247 0.337-2.337 0.802-3.344 1.394l0.063-0.034c-0.267 0.157-0.453 0.429-0.491 0.745l-0 0.005-0.33 2.97q-0.195 0.186-0.375 0.375l-2.973 0.341c-0.322 0.038-0.593 0.225-0.747 0.488l-0.003 0.005c-0.557 0.944-1.022 2.034-1.337 3.187l-0.022 0.094c-0.021 0.077-0.034 0.166-0.034 0.257 0 0.238 0.083 0.456 0.221 0.627l-0.002-0.002 1.855 2.324q0 0.27 0 0.54l-1.861 2.33c-0.136 0.169-0.219 0.387-0.219 0.624 0 0.092 0.012 0.181 0.036 0.265l-0.002-0.007c0.337 1.247 0.802 2.337 1.394 3.344l-0.034-0.063c0.157 0.267 0.429 0.453 0.745 0.491l0.005 0 2.965 0.33q0.186 0.195 0.375 0.375l0.346 2.973c0.038 0.322 0.225 0.593 0.488 0.747l0.005 0.003c0.944 0.557 2.034 1.022 3.187 1.337l0.094 0.022c0.077 0.021 0.166 0.034 0.257 0.034 0.238 0 0.456-0.083 0.627-0.221l-0.002 0.002 2.324-1.855q0.27 0.008 0.54 0l2.33 1.865c0.169 0.136 0.387 0.219 0.624 0.219 0.092 0 0.181-0.012 0.265-0.036l-0.007 0.002c1.247-0.337 2.337-0.802 3.344-1.394l-0.063 0.034c0.267-0.157 0.453-0.429 0.491-0.745l0-0.005 0.33-2.965q0.195-0.185 0.375-0.375l2.973-0.35c0.322-0.038 0.593-0.225 0.747-0.488l0.003-0.005c0.557-0.944 1.022-2.034 1.337-3.187l0.022-0.094c0.021-0.077 0.034-0.166 0.034-0.257 0-0.238-0.083-0.456-0.221-0.627l0.002 0.002zM24.988 15.457c0.010 0.162 0.016 0.352 0.016 0.543s-0.006 0.38-0.017 0.568l0.001-0.026c-0.001 0.018-0.002 0.039-0.002 0.060 0 0.237 0.083 0.455 0.221 0.627l-0.002-0.002 1.774 2.216c-0.231 0.727-0.495 1.347-0.809 1.937l0.030-0.062-2.825 0.32c-0.255 0.029-0.477 0.15-0.637 0.329l-0.001 0.001c-0.244 0.273-0.494 0.524-0.758 0.759l-0.009 0.008c-0.18 0.16-0.301 0.382-0.33 0.633l-0 0.005-0.314 2.822c-0.528 0.284-1.149 0.548-1.794 0.756l-0.081 0.023-2.218-1.774c-0.169-0.136-0.387-0.219-0.624-0.219-0 0-0.001 0-0.001 0h-0.060c-0.162 0.010-0.352 0.016-0.543 0.016s-0.38-0.006-0.568-0.017l0.026 0.001c-0.018-0.001-0.039-0.002-0.060-0.002-0.237 0-0.455 0.083-0.627 0.221l0.002-0.002-2.223 1.775c-0.727-0.231-1.347-0.495-1.937-0.809l0.062 0.030-0.32-2.821c-0.029-0.255-0.15-0.477-0.329-0.637l-0.001-0.001c-0.273-0.244-0.524-0.494-0.759-0.758l-0.008-0.009c-0.16-0.18-0.382-0.301-0.633-0.33l-0.005-0-2.822-0.315c-0.284-0.528-0.548-1.149-0.756-1.794l-0.022-0.081 1.774-2.218c0.137-0.17 0.219-0.388 0.219-0.625 0-0.021-0.001-0.042-0.002-0.063l0 0.003c-0.010-0.162-0.016-0.352-0.016-0.543s0.006-0.38 0.017-0.568l-0.001 0.026c0.001-0.018 0.002-0.039 0.002-0.060 0-0.237-0.083-0.455-0.221-0.627l0.002 0.002-1.774-2.221c0.231-0.727 0.495-1.347 0.809-1.937l-0.030 0.062 2.821-0.32c0.255-0.029 0.477-0.15 0.637-0.329l0.001-0.001c0.244-0.273 0.494-0.524 0.758-0.759l0.009-0.008c0.18-0.16 0.302-0.383 0.331-0.634l0-0.005 0.314-2.821c0.528-0.284 1.149-0.548 1.794-0.756l0.081-0.022 2.217 1.774c0.17 0.137 0.388 0.219 0.625 0.219 0.021 0 0.042-0.001 0.063-0.002l-0.003 0c0.162-0.010 0.352-0.016 0.543-0.016s0.38 0.006 0.568 0.017l-0.026-0.001c0.018 0.001 0.039 0.002 0.060 0.002 0.237 0 0.455-0.083 0.627-0.221l-0.002 0.002 2.221-1.774c0.727 0.231 1.347 0.495 1.937 0.809l-0.062-0.030 0.32 2.821c0.029 0.255 0.15 0.477 0.329 0.637l0.001 0.001c0.273 0.244 0.524 0.494 0.759 0.758l0.008 0.009c0.16 0.18 0.382 0.301 0.633 0.33l0.005 0 2.822 0.314c0.284 0.528 0.548 1.149 0.756 1.794l0.023 0.081-1.774 2.217c-0.137 0.17-0.22 0.388-0.22 0.625 0 0.023 0.001 0.046 0.002 0.069l-0-0.003z"></path>
</symbol>
<symbol id="icon-globe" viewBox="0 0 32 32">
<path fill="currentColor" d="M16 3v0c-7.18 0-13 5.82-13 13s5.82 13 13 13c7.18 0 13-5.82 13-13v0c-0.009-7.176-5.824-12.991-12.999-13h-0.001zM27 16c0 0.003 0 0.006 0 0.009 0 1.065-0.152 2.095-0.436 3.068l0.019-0.077h-4.814c0.146-0.902 0.23-1.941 0.23-3s-0.084-2.098-0.245-3.112l0.015 0.112h4.814c0.264 0.896 0.416 1.926 0.416 2.991 0 0.003 0 0.007 0 0.010v-0.001zM12.75 21h6.5c-0.681 2.19-1.798 4.074-3.257 5.633l0.007-0.008c-1.452-1.551-2.568-3.435-3.222-5.523l-0.028-0.102zM12.262 19c-0.164-0.902-0.258-1.94-0.258-3s0.094-2.098 0.273-3.106l-0.016 0.106h7.485c0.164 0.902 0.258 1.94 0.258 3s-0.094 2.098-0.273 3.106l0.016-0.106zM5 16c0-0.003 0-0.006 0-0.009 0-1.065 0.152-2.095 0.436-3.068l-0.019 0.077h4.814c-0.146 0.902-0.23 1.941-0.23 3s0.084 2.098 0.245 3.112l-0.015-0.112h-4.814c-0.264-0.896-0.416-1.926-0.416-2.991 0-0.003 0-0.007 0-0.010v0.001zM19.25 11h-6.5c0.681-2.19 1.798-4.074 3.257-5.633l-0.007 0.008c1.452 1.551 2.568 3.435 3.222 5.523l0.028 0.102zM25.791 11h-4.453c-0.605-2.179-1.562-4.081-2.818-5.743l0.031 0.043c3.183 0.783 5.771 2.865 7.216 5.639l0.029 0.061zM13.449 5.3c-1.226 1.619-2.183 3.521-2.759 5.581l-0.028 0.119h-4.457c1.474-2.835 4.062-4.917 7.169-5.684l0.076-0.016zM6.204 21h4.457c0.605 2.179 1.562 4.081 2.818 5.743l-0.031-0.043c-3.183-0.783-5.771-2.865-7.216-5.639l-0.029-0.061zM18.551 26.7c1.226-1.619 2.183-3.521 2.759-5.581l0.028-0.119h4.457c-1.474 2.835-4.062 4.917-7.169 5.684l-0.076 0.016z"></path>
</symbol>
<symbol id="icon-instagram-logo" viewBox="0 0 32 32">
<path fill="currentColor" d="M16 10c-3.314 0-6 2.686-6 6s2.686 6 6 6c3.314 0 6-2.686 6-6v0c-0.004-3.312-2.688-5.996-6-6h-0zM16 20c-2.209 0-4-1.791-4-4s1.791-4 4-4c2.209 0 4 1.791 4 4v0c0 2.209-1.791 4-4 4v0zM22 3h-12c-3.864 0.004-6.996 3.136-7 7v12c0.004 3.864 3.136 6.996 7 7h12c3.864-0.004 6.996-3.136 7-7v-12c-0.004-3.864-3.136-6.996-7-7h-0zM27 22c0 2.761-2.239 5-5 5v0h-12c-2.761 0-5-2.239-5-5v0-12c0-2.761 2.239-5 5-5v0h12c2.761 0 5 2.239 5 5v0zM24 9.5c0 0.828-0.672 1.5-1.5 1.5s-1.5-0.672-1.5-1.5c0-0.828 0.672-1.5 1.5-1.5v0c0.828 0 1.5 0.672 1.5 1.5v0z"></path>
</symbol>
<symbol id="icon-nopx" viewBox="0 0 32 32">
<path fill="#ed145b" style="fill: var(--color2, #ed145b)" d="M0 11.52l4.48 4.48-4.48 4.48v11.52h11.52l4.48-4.48 4.48 4.48h11.52v-11.52l-4.48-4.48 4.48-4.48v-11.52h-11.52l-4.48 4.48-4.48-4.48h-11.52z"></path>
</symbol>
<symbol id="icon-ranking" viewBox="0 0 32 32">
<path fill="currentColor" d="M14.051 12.816c-0.033-0.094-0.051-0.203-0.051-0.316 0-0.439 0.283-0.812 0.677-0.947l0.007-0.002 1.5-0.5c0.094-0.033 0.203-0.051 0.316-0.051 0.552 0 1 0.448 1 1 0 0 0 0 0 0v0 5c0 0.552-0.448 1-1 1s-1-0.448-1-1v0-3.613l-0.184 0.061c-0.094 0.033-0.203 0.051-0.316 0.051-0.439 0-0.812-0.283-0.947-0.677l-0.002-0.007zM31 26c0 0.552-0.448 1-1 1v0h-28c-0.552 0-1-0.448-1-1s0.448-1 1-1v0h1v-12c0-1.105 0.895-2 2-2v0h5v-4c0-1.105 0.895-2 2-2v0h8c1.105 0 2 0.895 2 2v0 9h5c1.105 0 2 0.895 2 2v0 7h1c0.552 0 1 0.448 1 1v0zM22 18v7h5v-7zM12 25h8v-18h-8zM5 25h5v-12h-5z"></path>
</symbol>
<symbol id="icon-threads-logo" viewBox="0 0 32 32">
<path fill="currentColor" d="M23.302 15.456c-0.404-0.307-0.86-0.587-1.343-0.819l-0.048-0.021c-0.5-3.736-3-4.914-4.137-5.259-2.473-0.75-5.314 0.149-6.606 2.088-0.105 0.156-0.168 0.348-0.168 0.555 0 0.553 0.448 1.001 1.001 1.001 0.346 0 0.65-0.175 0.83-0.442l0.002-0.004c0.796-1.195 2.75-1.77 4.361-1.284 1.244 0.375 2.102 1.287 2.519 2.625-0.57-0.114-1.225-0.179-1.895-0.179-0.006 0-0.012 0-0.017 0h0.001c-1.74 0-3.369 0.449-4.584 1.262-1.43 0.966-2.217 2.395-2.217 4.020 0 2.572 1.982 4.44 4.714 4.44 1.688-0.012 3.209-0.719 4.292-1.849l0.002-0.002c0.805-0.837 1.75-2.295 1.951-4.637 0.047 0.032 0.093 0.066 0.137 0.1 1.264 0.955 1.904 2.284 1.904 3.949 0 2.42-2.543 6-8 6-3.341 0-5.685-1.081-7.168-3.305-1.216-1.82-1.832-4.412-1.832-7.695s0.616-5.875 1.832-7.695c1.482-2.224 3.826-3.305 7.168-3.305 4.116 0 6.75 1.656 8.066 5.065 0.146 0.384 0.51 0.651 0.937 0.651 0.552 0 1-0.448 1-1 0-0.133-0.026-0.26-0.073-0.377l0.002 0.007c-1.598-4.151-5.032-6.346-9.933-6.346-4 0-6.976 1.411-8.832 4.195-1.439 2.159-2.168 5.12-2.168 8.805s0.729 6.646 2.168 8.805c1.856 2.784 4.832 4.195 8.832 4.195 3.759 0 6.113-1.435 7.425-2.637 1.613-1.477 2.575-3.488 2.575-5.363 0-2.293-0.933-4.21-2.697-5.544zM18.566 20.206c-0.72 0.754-1.73 1.227-2.851 1.238h-0.002c-1.351 0-2.714-0.75-2.714-2.44 0-1.579 1.5-3.276 4.801-3.276 0.006-0 0.014-0 0.022-0 0.775 0 1.525 0.111 2.234 0.317l-0.056-0.014c0 1.76-0.5 3.203-1.434 4.172z"></path>
</symbol>
<symbol id="icon-tiktok-logo" viewBox="0 0 32 32">
<path fill="currentColor" d="M28 9c-3.312-0.004-5.996-2.688-6-6v-0c0-0.552-0.448-1-1-1v0h-5c-0.552 0-1 0.448-1 1v0 16.5c-0.001 1.38-1.12 2.499-2.5 2.499s-2.5-1.119-2.5-2.5c0-0.991 0.577-1.848 1.414-2.252l0.015-0.006c0.341-0.164 0.571-0.507 0.571-0.903 0-0 0-0 0-0v0-5.336c0-0 0-0 0-0 0-0.552-0.448-1-1-1-0.062 0-0.122 0.006-0.181 0.016l0.006-0.001c-4.461 0.795-7.825 4.872-7.825 9.485 0 5.247 4.253 9.5 9.5 9.5s9.5-4.253 9.5-9.5v0-4.964c1.732 0.922 3.788 1.464 5.97 1.464 0.011 0 0.021 0 0.032-0h-0.002c0.552 0 1-0.448 1-1v0-5c0-0.552-0.448-1-1-1v0zM27 13.955c-2.052-0.187-3.903-0.916-5.447-2.040l0.031 0.022c-0.162-0.118-0.365-0.188-0.584-0.188-0.552 0-1 0.448-1 1 0 0.001 0 0.001 0 0.002v-0 6.75c0 4.142-3.358 7.5-7.5 7.5s-7.5-3.358-7.5-7.5v0c0-3.238 2.080-6.141 5-7.2v3.459c-1.213 0.819-2 2.188-2 3.742 0 2.485 2.015 4.5 4.5 4.5s4.5-2.015 4.5-4.5c0-0 0-0 0-0v0-15.5h3.063c0.476 3.624 3.314 6.462 6.897 6.933l0.041 0.004z"></path>
</symbol>
<symbol id="icon-user" viewBox="0 0 32 32">
<path fill="currentColor" d="M28.865 26.5c-1.904-3.291-4.838-5.651-8.261-6.77 2.651-1.598 4.396-4.462 4.396-7.733 0-4.971-4.029-9-9-9s-9 4.029-9 9c0 3.271 1.745 6.135 4.356 7.711l0.040 0.023c-3.424 1.117-6.357 3.477-8.261 6.77-0.093 0.149-0.148 0.329-0.148 0.523 0 0.552 0.448 1 1 1 0.377 0 0.706-0.209 0.876-0.518l0.003-0.005c2.355-4.070 6.517-6.5 11.134-6.5s8.779 2.43 11.134 6.5c0.173 0.314 0.501 0.523 0.879 0.523 0.552 0 1-0.448 1-1 0-0.193-0.055-0.374-0.15-0.527l0.002 0.004zM9 12c0-3.866 3.134-7 7-7s7 3.134 7 7c0 3.866-3.134 7-7 7v0c-3.864-0.004-6.996-3.136-7-7v-0z"></path>
</symbol>
<symbol id="icon-whatsapp-logo" viewBox="0 0 32 32">
<path fill="currentColor" d="M23.448 18.105l-4-2c-0.13-0.066-0.283-0.105-0.446-0.105-0.206 0-0.398 0.063-0.558 0.17l0.004-0.002-1.836 1.225c-0.847-0.472-1.528-1.153-1.987-1.974l-0.013-0.026 1.225-1.836c0.105-0.156 0.167-0.348 0.167-0.554 0-0.163-0.039-0.316-0.108-0.452l0.003 0.006-2-4c-0.167-0.332-0.506-0.556-0.896-0.556-0.001 0-0.002 0-0.003 0h0c-2.761 0-5 2.239-5 5v0c0.007 6.072 4.928 10.993 10.999 11h0.001c2.761 0 5-2.239 5-5v0c0-0 0-0 0-0.001 0-0.389-0.222-0.726-0.547-0.892l-0.006-0.003zM19 22c-4.968-0.006-8.994-4.032-9-8.999v-0.001c0-0 0-0.001 0-0.001 0-1.448 1.027-2.657 2.392-2.938l0.019-0.003 1.435 2.875-1.221 1.818c-0.105 0.156-0.168 0.348-0.168 0.555 0 0.139 0.028 0.271 0.079 0.391l-0.002-0.007c0.731 1.706 2.063 3.038 3.723 3.751l0.046 0.018c0.117 0.052 0.254 0.082 0.397 0.082 0.205 0 0.395-0.062 0.554-0.167l-0.004 0.002 1.826-1.218 2.875 1.435c-0.286 1.383-1.494 2.408-2.941 2.408-0.004 0-0.007 0-0.011-0h0.001zM16 3c-0.001 0-0.002 0-0.003 0-7.18 0-13 5.82-13 13 0 2.236 0.565 4.341 1.559 6.179l-0.034-0.069-1.419 4.256c-0.065 0.189-0.103 0.406-0.103 0.633 0 1.105 0.895 2 2 2 0.226 0 0.444-0.038 0.647-0.107l-0.014 0.004 4.256-1.419c1.768 0.959 3.87 1.523 6.105 1.523 7.18 0 13-5.82 13-13 0-7.178-5.817-12.997-12.994-13h-0zM16 27c-0.002 0-0.005 0-0.007 0-2.025 0-3.923-0.548-5.552-1.504l0.052 0.028c-0.144-0.085-0.317-0.135-0.502-0.135-0.113 0-0.222 0.019-0.323 0.053l0.007-0.002-4.675 1.56 1.559-4.675c0.033-0.095 0.052-0.204 0.052-0.317 0-0.184-0.050-0.357-0.137-0.505l0.003 0.005c-0.929-1.579-1.478-3.479-1.478-5.508 0-6.075 4.925-11 11-11s11 4.925 11 11c0 6.075-4.924 10.999-10.998 11h-0z"></path>
</symbol>
<symbol id="icon-x-logo" viewBox="0 0 32 32">
<path fill="currentColor" d="M26.844 26.464l-7.825-12.297 7.721-8.494c0.156-0.176 0.252-0.409 0.252-0.664 0-0.552-0.448-1-1-1-0.289 0-0.549 0.122-0.731 0.318l-0.001 0.001-7.355 8.090-5.061-7.954c-0.18-0.28-0.491-0.464-0.844-0.464h-6c-0 0-0 0-0 0-0.552 0-1 0.448-1 1 0 0.2 0.058 0.385 0.159 0.541l-0.002-0.004 7.825 12.296-7.721 8.5c-0.166 0.178-0.268 0.418-0.268 0.681 0 0.552 0.448 1 1 1 0.297 0 0.564-0.13 0.747-0.335l0.001-0.001 7.355-8.090 5.061 7.954c0.181 0.277 0.489 0.457 0.84 0.457 0.001 0 0.003 0 0.004 0h6c0.552-0 1-0.448 1-1 0-0.199-0.058-0.384-0.158-0.54l0.002 0.004zM20.549 26l-12.727-20h3.625l12.733 20z"></path>
</symbol>
<symbol id="icon-share-network-bold" viewBox="0 0 32 32">
<path fill="#fd0069" style="fill: var(--color1, #fd0069)" d="M22 19.5c-0.003 0-0.006 0-0.009 0-1.394 0-2.667 0.521-3.633 1.38l0.006-0.005-5.101-3.275c0.151-0.479 0.237-1.029 0.237-1.6s-0.087-1.121-0.248-1.639l0.010 0.039 5.101-3.275c0.96 0.847 2.228 1.363 3.617 1.363 3.026 0 5.479-2.453 5.479-5.479s-2.453-5.479-5.479-5.479c-3.026 0-5.479 2.453-5.479 5.479 0 0.569 0.087 1.117 0.247 1.633l-0.010-0.039-5.102 3.271c-0.965-0.856-2.243-1.379-3.642-1.379-3.038 0-5.5 2.462-5.5 5.5s2.462 5.5 5.5 5.5c1.4 0 2.677-0.523 3.648-1.384l-0.006 0.005 5.101 3.282c-0.151 0.479-0.238 1.029-0.238 1.6 0 3.038 2.462 5.5 5.5 5.5s5.5-2.462 5.5-5.5c0-3.037-2.462-5.5-5.5-5.5h-0zM22 4.5c1.381 0 2.5 1.119 2.5 2.5s-1.119 2.5-2.5 2.5c-1.381 0-2.5-1.119-2.5-2.5v0c0-1.381 1.119-2.5 2.5-2.5v0zM8 18.5c-1.381 0-2.5-1.119-2.5-2.5s1.119-2.5 2.5-2.5c1.381 0 2.5 1.119 2.5 2.5v0c0 1.381-1.119 2.5-2.5 2.5v0zM22 27.5c-1.381 0-2.5-1.119-2.5-2.5s1.119-2.5 2.5-2.5c1.381 0 2.5 1.119 2.5 2.5v0c0 1.381-1.119 2.5-2.5 2.5v0z"></path>
</symbol>
<symbol id="icon-link-bold" viewBox="0 0 32 32">
<path fill="#fd0069" style="fill: var(--color1, #fd0069)" d="M14.648 23.593c0.273 0.272 0.441 0.647 0.441 1.063s-0.169 0.791-0.441 1.062l-0.64 0.64c-1.319 1.324-3.143 2.143-5.159 2.143-0.008 0-0.017 0-0.025-0h0.001c-0.001 0-0.002 0-0.002 0-4.047 0-7.327-3.281-7.327-7.328 0-2.024 0.821-3.856 2.147-5.182l4.344-4.344c1.326-1.326 3.159-2.147 5.183-2.147 3.456 0 6.353 2.392 7.127 5.61l0.010 0.050c0.029 0.111 0.046 0.239 0.046 0.37 0 0.828-0.672 1.5-1.5 1.5-0.719 0-1.32-0.506-1.466-1.181l-0.002-0.010c-0.465-1.929-2.176-3.34-4.216-3.34-1.195 0-2.278 0.484-3.061 1.267l-4.344 4.344c-0.784 0.783-1.269 1.866-1.269 3.061 0 2.39 1.937 4.327 4.326 4.328h0c0.004 0 0.008 0 0.012 0 1.192 0 2.27-0.485 3.049-1.267l0-0 0.639-0.64c0.272-0.273 0.648-0.442 1.063-0.442s0.791 0.169 1.063 0.442l0 0zM28.354 5.646c-1.327-1.326-3.159-2.146-5.183-2.146s-3.857 0.82-5.183 2.146l-0.639 0.639c-0.272 0.272-0.44 0.648-0.44 1.063 0 0.83 0.673 1.503 1.503 1.503 0.415 0 0.791-0.168 1.063-0.44l0.64-0.64c0.784-0.784 1.867-1.269 3.063-1.269 2.392 0 4.331 1.939 4.331 4.331 0 1.196-0.485 2.279-1.269 3.063v0l-4.351 4.338c-0.779 0.783-1.857 1.268-3.048 1.268-0.005 0-0.009 0-0.014-0h0.001c-2.039-0.002-3.748-1.412-4.205-3.31l-0.006-0.030c-0.16-0.67-0.753-1.16-1.461-1.16-0.829 0-1.5 0.672-1.5 1.5 0 0.121 0.014 0.238 0.041 0.35l-0.002-0.010c0.783 3.265 3.676 5.655 7.127 5.66h0.007c0.006 0 0.013 0 0.020 0 2.018 0 3.844-0.82 5.163-2.146l4.344-4.344c1.326-1.326 2.147-3.158 2.147-5.182s-0.82-3.856-2.147-5.182v0z"></path>
</symbol>
<symbol id="icon-faders-horizontal-bold" viewBox="0 0 32 32">
<path fill="#fd0069" style="fill: var(--color1, #fd0069)" d="M22 10c0-0.828 0.672-1.5 1.5-1.5v0h3.5c0.828 0 1.5 0.672 1.5 1.5s-0.672 1.5-1.5 1.5v0h-3.5c-0.828 0-1.5-0.672-1.5-1.5v0zM5 11.5h12v1.5c0 0.828 0.672 1.5 1.5 1.5s1.5-0.672 1.5-1.5v0-6c0-0.828-0.672-1.5-1.5-1.5s-1.5 0.672-1.5 1.5v0 1.5h-12c-0.828 0-1.5 0.672-1.5 1.5s0.672 1.5 1.5 1.5v0zM27 20.5h-11.5c-0.828 0-1.5 0.672-1.5 1.5s0.672 1.5 1.5 1.5v0h11.5c0.828 0 1.5-0.672 1.5-1.5s-0.672-1.5-1.5-1.5v0zM10.5 17.5c-0.828 0-1.5 0.672-1.5 1.5v0 1.5h-4c-0.828 0-1.5 0.672-1.5 1.5s0.672 1.5 1.5 1.5v0h4v1.5c0 0.828 0.672 1.5 1.5 1.5s1.5-0.672 1.5-1.5v0-6c0-0.828-0.672-1.5-1.5-1.5v0z"></path>
</symbol>


</defs>
</svg>
